<svg width="4524" height="2264" xmlns="http://www.w3.org/2000/svg" xmlns:xlink="http://www.w3.org/1999/xlink" xml:space="preserve" overflow="hidden"><g transform="translate(62 -101)"><path d="M1212.11 344.093C1207.27 346.754 1203.32 350.021 1200.27 353.895 1197.22 357.768 1195.65 363.865 1195.55 372.185 1195.66 376.135 1197.28 379.688 1200.41 382.844 1203.55 386 1207.53 388.505 1212.37 390.359 1216 391.749 1219.74 392.63 1223.59 393.001L1227.47 393.203 1232.41 392.975C1243.54 392.134 1251.97 389.137 1257.7 383.983 1264.24 378.092 1267.5 370.926 1267.46 362.484 1267.3 357.634 1265.13 353.951 1260.97 351.436 1256.81 348.921 1251.62 347.169 1245.41 346.181 1239.21 345.193 1232.96 344.564 1226.66 344.295 1224.72 344.286 1222.5 344.253 1220 344.194 1217.49 344.135 1214.87 344.101 1212.11 344.093ZM1546.07 298.049C1543.14 298.63 1539.65 299.237 1535.58 299.868 1531.52 300.499 1526.26 301.308 1519.8 302.293 1509.11 304.141 1502.14 307.113 1498.9 311.209 1495.67 315.304 1494.21 319.741 1494.54 324.519 1494.65 329.104 1495.65 332.552 1497.53 334.862 1499.41 337.172 1501.45 338.718 1503.67 339.501 1505.88 340.285 1507.55 340.679 1508.68 340.684 1515.92 340.973 1522.91 339.23 1529.65 335.455 1536.39 331.679 1541.86 327.158 1546.07 321.892ZM757.069 298.049C754.143 298.63 750.648 299.237 746.585 299.868 742.522 300.499 737.259 301.308 730.796 302.293 720.106 304.141 713.142 307.113 709.905 311.209 706.668 315.304 705.211 319.741 705.536 324.519 705.654 329.104 706.652 332.552 708.529 334.862 710.406 337.172 712.452 338.718 714.666 339.501 716.88 340.285 718.551 340.679 719.68 340.684 726.922 340.973 733.912 339.23 740.648 335.455 747.385 331.679 752.859 327.158 757.069 321.892ZM1788.05 255.415C1778.94 255.511 1771.74 259.308 1766.45 266.806 1761.16 274.303 1758.46 284.92 1758.34 298.656 1758.42 309.146 1760.49 318.07 1764.56 325.429 1768.62 332.787 1774.23 336.862 1781.38 337.654 1788.51 338.021 1794.77 336.701 1800.15 333.694 1805.53 330.687 1810.08 327.017 1813.8 322.686 1817.52 318.354 1820.45 314.385 1822.6 310.779L1822.6 273.802C1816.96 268.262 1811.12 263.834 1805.1 260.517 1799.07 257.199 1793.39 255.499 1788.05 255.415ZM2265.64 253.395C2258.18 253.576 2252.09 256.247 2247.36 261.406 2242.63 266.566 2239.16 273.129 2236.96 281.094L2293.32 281.094C2292.75 277.187 2291.5 273.116 2289.55 268.88 2287.61 264.645 2284.71 261.038 2280.85 258.06 2277 255.083 2271.93 253.528 2265.64 253.395ZM1931.64 253.395C1924.18 253.576 1918.09 256.247 1913.36 261.406 1908.63 266.566 1905.16 273.129 1902.96 281.094L1959.32 281.094C1958.75 277.187 1957.5 273.116 1955.55 268.88 1953.61 264.645 1950.71 261.038 1946.85 258.06 1943 255.083 1937.93 253.528 1931.64 253.395ZM2868.26 252.789C2863.04 252.734 2858.06 254.146 2853.31 257.025 2848.57 259.903 2844.68 264.578 2841.65 271.049 2838.61 277.519 2837.04 286.116 2836.94 296.837 2837.04 307.434 2838.61 315.988 2841.65 322.498 2844.68 329.009 2848.57 333.746 2853.31 336.709 2858.06 339.673 2863.04 341.132 2868.26 341.087 2873.48 341.143 2878.46 339.729 2883.21 336.844 2887.95 333.959 2891.84 329.267 2894.88 322.768 2897.91 316.268 2899.48 307.625 2899.58 296.837 2899.48 286.434 2897.91 277.987 2894.88 271.498 2891.84 265.008 2887.95 260.259 2883.21 257.249 2878.46 254.239 2873.48 252.753 2868.26 252.789ZM409.26 252.789C404.039 252.734 399.057 254.146 394.314 257.025 389.571 259.903 385.682 264.578 382.646 271.049 379.609 277.519 378.04 286.116 377.938 296.837 378.04 307.434 379.609 315.988 382.646 322.498 385.682 329.009 389.571 333.746 394.314 336.709 399.057 339.673 404.039 341.132 409.26 341.087 414.482 341.143 419.464 339.729 424.207 336.844 428.95 333.959 432.839 329.267 435.875 322.768 438.912 316.268 440.481 307.625 440.583 296.837 440.481 286.434 438.912 277.987 435.875 271.498 432.839 265.008 428.95 260.259 424.207 257.249 419.464 254.239 414.482 252.753 409.26 252.789ZM1226.66 251.387C1223.15 251.36 1219.32 252.088 1215.16 253.572 1211 255.056 1207.4 257.46 1204.37 260.784 1201.33 264.108 1199.74 268.517 1199.6 274.011 1199.74 281.577 1201.33 287.206 1204.37 290.897 1207.4 294.588 1211 296.999 1215.16 298.132 1219.32 299.264 1223.15 299.775 1226.66 299.665 1230.18 299.741 1233.99 299.095 1238.12 297.728 1242.24 296.36 1245.81 293.813 1248.81 290.089 1251.81 286.364 1253.39 281.005 1253.53 274.011 1253.39 268.517 1251.81 264.108 1248.81 260.784 1245.81 257.46 1242.24 255.056 1238.12 253.572 1233.99 252.088 1230.18 251.36 1226.66 251.387ZM2441.1 241.3 2460.7 241.3 2489.58 327.13 2490.19 330.967C2490.29 331.287 2490.39 330.85 2490.49 329.655 2490.59 328.46 2490.7 327.618 2490.8 327.13 2493.94 315.296 2497.61 303.151 2501.81 290.696 2506 278.241 2510.02 267.413 2513.85 258.212 2517.69 249.01 2520.64 243.373 2522.71 241.3L2541.09 241.3C2537.89 244.921 2534.39 250.943 2530.59 259.366 2526.79 267.789 2523 277.242 2519.21 287.727 2515.43 298.211 2511.96 308.356 2508.81 318.162 2505.65 327.968 2503.12 336.064 2501.21 342.451 2499.3 348.839 2498.32 352.146 2498.27 352.375L2483.52 352.375ZM2760.07 241.275 2776.82 241.275 2776.82 352.375 2760.07 352.375ZM2575.07 241.275 2591.82 241.275 2591.82 352.375 2575.07 352.375ZM1323.07 241.275 1339.82 241.275 1339.82 352.375 1323.07 352.375ZM1118.08 241.275 1134.82 241.275 1134.82 352.375 1118.08 352.375ZM2989.17 238.876C2996.5 238.922 3003.16 240.09 3009.15 242.379 3015.14 244.669 3020.12 247.803 3024.11 251.781L3013.22 262.285C3010.54 259.423 3007.11 257.166 3002.94 255.516 2998.76 253.866 2994.18 253.024 2989.17 252.991 2987.09 252.931 2984.62 253.342 2981.74 254.225 2978.87 255.108 2976.32 256.822 2974.09 259.367 2971.87 261.911 2970.69 265.645 2970.57 270.57 2970.8 275.187 2973.18 278.681 2977.7 281.051 2982.22 283.421 2987.53 285.45 2993.61 287.138 2999.73 288.843 3005.59 290.889 3011.19 293.275 3016.79 295.661 3021.39 299.069 3024.98 303.498 3028.58 307.927 3030.44 314.058 3030.57 321.892 3030.45 329.357 3028.51 335.522 3024.77 340.388 3021.02 345.255 3016.19 348.875 3010.26 351.25 3004.34 353.625 2998.05 354.808 2991.39 354.799 2983.01 354.803 2974.92 352.929 2967.1 349.176 2959.29 345.423 2952.91 339.763 2947.97 332.197L2959.68 322.701C2962.86 328.299 2967.35 332.66 2973.16 335.784 2978.96 338.907 2985.18 340.541 2991.8 340.684 2997.58 340.696 3002.64 339.156 3006.98 336.062 3011.32 332.968 3013.6 328.245 3013.83 321.892 3013.53 316.273 3010.84 312.055 3005.77 309.238 3000.69 306.422 2995.03 304.174 2988.76 302.495 2982.99 300.896 2977.45 298.93 2972.16 296.598 2966.87 294.265 2962.52 291.057 2959.12 286.974 2955.71 282.89 2953.95 277.422 2953.83 270.57 2954.07 261.661 2956.33 254.913 2960.61 250.328 2964.9 245.742 2969.77 242.66 2975.25 241.08 2980.72 239.501 2985.36 238.766 2989.17 238.876ZM2868.26 238.876C2876.49 238.809 2884.25 240.69 2891.55 244.518 2898.85 248.346 2904.8 254.521 2909.4 263.041 2914 271.562 2916.38 282.827 2916.53 296.837 2916.38 311.038 2914 322.393 2909.4 330.903 2904.8 339.412 2898.85 345.541 2891.55 349.291 2884.25 353.04 2876.49 354.876 2868.26 354.799 2860.03 354.895 2852.27 353.134 2844.97 349.515 2837.67 345.897 2831.72 339.842 2827.12 331.352 2822.52 322.861 2820.14 311.356 2819.99 296.837 2820.14 282.763 2822.52 271.468 2827.12 262.951 2831.72 254.435 2837.67 248.275 2844.97 244.473 2852.27 240.672 2860.03 238.806 2868.26 238.876ZM2683.64 238.876C2691.25 239.095 2697.58 240.629 2702.64 243.478 2707.69 246.327 2711.48 249.176 2714 252.025 2716.52 254.874 2717.78 256.408 2717.78 256.627L2707.07 266.73C2707.09 266.573 2706.29 265.473 2704.66 263.43 2703.04 261.387 2700.47 259.345 2696.96 257.302 2693.45 255.259 2688.87 254.159 2683.24 254.002 2678.48 253.995 2673.79 255.626 2669.19 258.896 2664.58 262.166 2660.75 267.12 2657.7 273.758 2654.64 280.395 2653.05 288.762 2652.94 298.858 2653.05 310.291 2655.71 319.905 2660.92 327.701 2666.13 335.496 2673.23 339.554 2682.23 339.874 2686.06 340.051 2690.06 339.344 2694.25 337.753 2698.43 336.163 2703.45 332.627 2709.3 327.146L2719.8 337.249C2711.9 345.129 2704.93 350.096 2698.89 352.151 2692.86 354.206 2687.3 355.089 2682.23 354.799 2672.88 354.692 2664.76 352.192 2657.85 347.3 2650.95 342.408 2645.59 335.765 2641.79 327.37 2637.98 318.976 2636.05 309.472 2635.99 298.858 2636.18 284.949 2638.7 273.569 2643.54 264.717 2648.39 255.865 2654.44 249.337 2661.68 245.132 2668.93 240.927 2676.25 238.842 2683.64 238.876ZM2399.08 238.876C2404.88 239.013 2409.77 239.971 2413.76 241.752 2417.75 243.532 2420.78 245.312 2422.84 247.093 2424.9 248.873 2425.93 249.832 2425.94 249.968L2414.23 261.273C2414.22 261.012 2413.02 259.968 2410.61 258.142 2408.21 256.315 2404.63 255.272 2399.88 255.011 2395.57 255.127 2391.59 256.623 2387.95 259.499 2384.31 262.376 2381.07 265.937 2378.22 270.183 2375.37 274.429 2372.96 278.663 2371 282.887L2371 352.375 2354.05 352.375 2354.05 241.296 2371 241.3 2371 256.425C2374.55 250.398 2378.7 245.96 2383.45 243.111 2388.19 240.262 2393.4 238.851 2399.08 238.876ZM2265.64 238.876C2275.9 239.071 2284.06 241.269 2290.12 245.469 2296.17 249.669 2300.67 254.701 2303.59 260.564 2306.52 266.427 2308.42 271.95 2309.3 277.134 2310.18 282.317 2310.58 285.99 2310.49 288.152L2310.49 296.017 2234.74 296.017C2234.28 309.356 2236.76 320.018 2242.19 328.001 2247.61 335.984 2255.7 340.077 2266.45 340.279 2268.43 340.411 2271.13 340.214 2274.54 339.688 2277.96 339.161 2281.9 337.512 2286.37 334.739 2290.83 331.967 2295.64 327.279 2300.79 320.675L2311.09 330.578C2304.33 338.757 2298.1 344.558 2292.38 347.981 2286.66 351.405 2281.61 353.438 2277.22 354.081 2272.82 354.724 2269.23 354.963 2266.45 354.799 2255.68 354.663 2246.7 352.018 2239.52 346.865 2232.34 341.711 2226.96 334.862 2223.38 326.318 2219.79 317.773 2217.99 308.346 2217.99 298.038 2218.04 287.136 2220.01 277.236 2223.88 268.339 2227.76 259.443 2233.25 252.341 2240.36 247.034 2247.47 241.727 2255.9 239.008 2265.64 238.876ZM1931.64 238.876C1941.9 239.071 1950.06 241.269 1956.12 245.469 1962.17 249.669 1966.67 254.701 1969.59 260.564 1972.52 266.427 1974.42 271.95 1975.3 277.134 1976.18 282.317 1976.58 285.99 1976.49 288.152L1976.49 296.017 1900.74 296.017C1900.28 309.356 1902.76 320.018 1908.19 328.001 1913.61 335.984 1921.7 340.077 1932.45 340.279 1934.43 340.411 1937.13 340.214 1940.54 339.688 1943.96 339.161 1947.9 337.512 1952.37 334.739 1956.83 331.967 1961.64 327.279 1966.79 320.675L1977.09 330.578C1970.33 338.757 1964.1 344.558 1958.38 347.981 1952.66 351.405 1947.61 353.438 1943.22 354.081 1938.82 354.724 1935.23 354.963 1932.45 354.799 1921.68 354.663 1912.7 352.018 1905.52 346.865 1898.34 341.711 1892.96 334.862 1889.38 326.318 1885.79 317.773 1883.99 308.346 1883.99 298.038 1884.04 287.136 1886.01 277.236 1889.88 268.339 1893.76 259.443 1899.25 252.341 1906.36 247.034 1913.47 241.727 1921.9 239.008 1931.64 238.876ZM1535.96 238.876C1543.6 239.075 1549.36 241.053 1553.24 244.81 1557.12 248.567 1559.71 252.908 1561.01 257.833 1562.31 262.757 1562.91 267.07 1562.81 270.772L1562.81 330.581C1562.57 331.196 1563 332.997 1564.1 335.985 1565.2 338.973 1568.4 341.883 1573.72 344.717L1562.81 354.799C1558.04 352.841 1554.47 350.354 1552.09 347.337 1549.72 344.32 1548.12 341.025 1547.28 337.451 1542.39 342.676 1536.71 346.853 1530.25 349.984 1523.8 353.114 1516.81 354.719 1509.29 354.799 1507.5 354.944 1504.14 354.406 1499.2 353.184 1494.26 351.962 1489.57 349.181 1485.12 344.841 1480.67 340.501 1478.3 333.727 1477.99 324.519 1477.86 319.647 1478.78 314.753 1480.78 309.836 1482.77 304.919 1486.66 300.519 1492.44 296.635 1498.23 292.751 1506.74 289.922 1517.98 288.149 1525.3 287.147 1531.22 286.271 1535.74 285.522 1540.25 284.773 1543.7 284.099 1546.07 283.501L1546.07 270.772C1546.13 269.236 1545.9 267.211 1545.38 264.695 1544.86 262.179 1543.7 259.899 1541.91 257.855 1540.11 255.811 1537.32 254.728 1533.54 254.607 1527.58 254.803 1521.22 256.162 1514.43 258.685 1507.65 261.209 1501.82 263.721 1496.95 266.222 1492.07 268.722 1489.52 270.037 1489.29 270.165 1489.21 269.94 1488.62 268.752 1487.52 266.603 1486.43 264.454 1485.34 262.294 1484.27 260.122 1483.2 257.951 1482.65 256.719 1482.64 256.425 1485.16 254.937 1489.19 252.822 1494.7 250.08 1500.22 247.338 1506.58 244.821 1513.78 242.528 1520.98 240.235 1528.38 239.018 1535.96 238.876ZM746.964 238.876C754.604 239.075 760.363 241.053 764.242 244.81 768.12 248.567 770.709 252.908 772.009 257.833 773.308 262.757 773.908 267.07 773.81 270.772L773.81 330.581C773.57 331.196 773.999 332.997 775.098 335.985 776.196 338.973 779.403 341.883 784.718 344.717L773.81 354.799C769.041 352.841 765.469 350.354 763.095 347.337 760.721 344.32 759.115 341.025 758.279 337.451 753.388 342.676 747.713 346.853 741.254 349.984 734.796 353.114 727.807 354.719 720.287 354.799 718.501 354.944 715.138 354.406 710.198 353.184 705.258 351.962 700.565 349.181 696.12 344.841 691.674 340.501 689.299 333.727 688.995 324.519 688.857 319.647 689.784 314.753 691.776 309.836 693.769 304.919 697.657 300.519 703.442 296.635 709.227 292.751 717.738 289.922 728.977 288.149 736.299 287.147 742.219 286.271 746.737 285.522 751.255 284.773 754.699 284.099 757.069 283.501L757.069 270.772C757.128 269.236 756.898 267.211 756.38 264.695 755.863 262.179 754.705 259.899 752.907 257.855 751.11 255.811 748.32 254.728 744.539 254.607 738.584 254.803 732.216 256.162 725.432 258.685 718.649 261.209 712.82 263.721 707.946 266.222 703.071 268.722 700.52 270.037 700.292 270.165 700.206 269.94 699.615 268.752 698.521 266.603 697.427 264.454 696.344 262.294 695.272 260.122 694.2 257.951 693.654 256.719 693.636 256.425 696.164 254.937 700.187 252.822 705.703 250.08 711.22 247.338 717.579 244.821 724.781 242.528 731.984 240.235 739.378 239.018 746.964 238.876ZM544.076 238.876C549.877 239.013 554.772 239.971 558.762 241.752 562.752 243.532 565.777 245.312 567.837 247.093 569.897 248.873 570.932 249.832 570.942 249.968L559.226 261.273C559.222 261.012 558.018 259.968 555.615 258.142 553.212 256.315 549.635 255.272 544.884 255.011 540.566 255.127 536.588 256.623 532.951 259.499 529.314 262.376 526.069 265.937 523.218 270.183 520.366 274.429 517.959 278.663 515.998 282.887L515.998 352.375 499.055 352.375 499.055 241.296 515.998 241.3 515.998 256.425C519.554 250.398 523.703 245.96 528.446 243.111 533.189 240.262 538.399 238.851 544.076 238.876ZM409.26 238.876C417.49 238.809 425.254 240.69 432.551 244.518 439.848 248.346 445.799 254.521 450.401 263.041 455.004 271.562 457.379 282.827 457.526 296.837 457.379 311.038 455.004 322.393 450.401 330.903 445.799 339.412 439.848 345.541 432.551 349.291 425.254 353.04 417.49 354.876 409.26 354.799 401.03 354.895 393.267 353.134 385.97 349.515 378.672 345.897 372.722 339.842 368.12 331.352 363.517 322.861 361.142 311.356 360.995 296.837 361.142 282.763 363.517 271.468 368.12 262.951 372.722 254.435 378.672 248.275 385.97 244.473 393.267 240.672 401.03 238.806 409.26 238.876ZM1270.71 228.372C1272.64 228.38 1274.63 228.565 1276.68 228.927 1278.74 229.289 1280.78 229.777 1282.81 230.392L1279.99 244.52C1278.77 244.117 1277.37 243.814 1275.8 243.613 1274.23 243.411 1272.53 243.31 1270.71 243.31 1267.86 243.319 1265.03 243.604 1262.23 244.167 1259.42 244.73 1256.8 245.52 1254.35 246.536 1258.9 249.343 1262.67 253.011 1265.66 257.54 1268.65 262.07 1270.2 267.56 1270.3 274.011 1270.07 284.598 1267.53 292.69 1262.67 298.285 1257.82 303.881 1252.04 307.692 1245.34 309.718 1238.64 311.745 1232.42 312.699 1226.66 312.581 1224.83 312.589 1222.89 312.522 1220.83 312.379 1218.77 312.236 1216.67 311.967 1214.54 311.573 1211.21 313.927 1208.42 316.497 1206.15 319.282 1203.89 322.068 1202.71 324.892 1202.61 327.753 1203.27 328.215 1205.23 328.55 1208.5 328.757 1211.76 328.965 1215.2 329.105 1218.83 329.177 1222.45 329.249 1225.13 329.314 1226.87 329.372 1235.91 329.728 1244.79 330.809 1253.5 332.615 1262.22 334.421 1269.46 337.641 1275.24 342.275 1281.01 346.909 1284 353.645 1284.22 362.484 1284.24 370.744 1282.23 378.294 1278.17 385.134 1274.12 391.974 1267.9 397.455 1259.51 401.578 1251.12 405.701 1240.44 407.816 1227.47 407.925 1218.86 407.843 1210.9 406.191 1203.59 402.97 1196.28 399.749 1190.39 395.451 1185.91 390.074 1181.43 384.697 1179.13 378.734 1179.01 372.185 1179.19 363.541 1180.83 356.981 1183.93 352.507 1187.02 348.033 1191.03 344.155 1195.96 340.873 1193.06 339.695 1190.63 338.062 1188.69 335.975 1186.74 333.887 1185.73 331.144 1185.66 327.743L1185.66 327.753C1185.75 324.183 1187.13 320.602 1189.8 317.008 1192.46 313.415 1195.86 309.991 1199.99 306.734 1195.21 304.189 1191.19 300.303 1187.93 295.077 1184.67 289.85 1182.97 282.829 1182.84 274.012 1183.07 265.621 1185.63 258.806 1190.52 253.567 1195.4 248.328 1201.21 244.492 1207.94 242.06 1214.66 239.628 1220.91 238.426 1226.67 238.455 1228.69 238.454 1230.85 238.606 1233.13 238.911 1235.41 239.215 1237.77 239.673 1240.2 240.286 1244.43 236.522 1249.21 233.602 1254.55 231.528 1259.88 229.453 1265.27 228.401 1270.71 228.372ZM1000.26 210.976C993.68 211.044 988.342 211.363 984.242 211.935 980.142 212.507 977.33 212.928 975.806 213.197L975.806 337.048C981.607 337.048 986.08 337.048 989.224 337.048 992.369 337.048 995.345 337.048 998.152 337.048 1000.96 337.048 1004.76 337.048 1009.55 337.048 1022.86 336.888 1033.73 331.45 1042.16 320.733 1050.59 310.016 1054.94 294.981 1055.22 275.628 1055.34 262.808 1053.79 251.564 1050.58 241.895 1047.36 232.226 1041.74 224.678 1033.72 219.252 1025.7 213.826 1014.55 211.067 1000.26 210.976ZM276.083 209.362C271.334 209.387 266.687 210.295 262.142 212.088 257.597 213.88 253.156 216.405 248.819 219.663L248.819 274.625C253.476 278.797 258.54 282.021 264.011 284.299 269.482 286.576 275.258 287.73 281.337 287.759 290.469 287.78 297.769 284.252 303.238 277.176 308.706 270.099 311.51 259.348 311.649 244.921 311.557 234.334 308.408 225.806 302.202 219.337 295.996 212.868 287.29 209.543 276.083 209.362ZM1396.11 200.9 1413.06 200.9 1413.06 240.896 1439.72 240.896 1439.72 255.011 1413.06 255.011 1413.06 320.074C1412.99 322.674 1413.12 325.511 1413.45 328.583 1413.77 331.655 1414.68 334.311 1416.17 336.553 1417.66 338.794 1420.13 339.969 1423.56 340.078 1426.86 340.052 1429.86 339.345 1432.55 337.956 1435.24 336.567 1437.84 334.647 1440.33 332.197L1450.63 342.095C1446.22 346.683 1441.45 349.959 1436.31 351.925 1431.17 353.891 1425.44 354.849 1419.12 354.799 1410.74 354.665 1404.79 351.504 1401.26 345.316 1397.73 339.128 1396.01 330.714 1396.11 320.074L1396.11 255.011 1381.97 255.011 1381.97 240.896 1396.11 240.896ZM607.115 200.9 624.058 200.9 624.058 240.896 650.722 240.896 650.722 255.011 624.058 255.011 624.058 320.074C623.993 322.674 624.123 325.511 624.447 328.583 624.771 331.655 625.679 334.311 627.17 336.553 628.661 338.794 631.125 339.969 634.562 340.078 637.861 340.052 640.858 339.345 643.551 337.956 646.244 336.567 648.837 334.647 651.328 332.197L661.63 342.095C657.224 346.683 652.452 349.959 647.313 351.925 642.175 353.891 636.443 354.849 630.118 354.799 621.743 354.665 615.79 351.504 612.26 345.316 608.729 339.128 607.014 330.714 607.115 320.074L607.115 255.011 592.975 255.011 592.975 240.896 607.115 240.896ZM2768.55 196.86C2771.53 196.923 2773.98 197.906 2775.88 199.81 2777.79 201.714 2778.77 204.161 2778.84 207.149 2778.77 210.234 2777.79 212.739 2775.88 214.665 2773.98 216.59 2771.53 217.582 2768.55 217.641 2765.46 217.582 2762.96 216.59 2761.03 214.665 2759.11 212.739 2758.11 210.234 2758.05 207.149 2758.11 204.161 2759.11 201.714 2761.03 199.81 2762.96 197.906 2765.46 196.923 2768.55 196.86ZM2583.55 196.86C2586.53 196.923 2588.98 197.906 2590.88 199.81 2592.79 201.714 2593.77 204.161 2593.84 207.149 2593.77 210.234 2592.79 212.739 2590.88 214.665 2588.98 216.59 2586.53 217.582 2583.55 217.641 2580.46 217.582 2577.96 216.59 2576.03 214.665 2574.11 212.739 2573.11 210.234 2573.05 207.149 2573.11 204.161 2574.11 201.714 2576.03 199.81 2577.96 197.906 2580.46 196.923 2583.55 196.86ZM1331.55 196.86C1334.53 196.923 1336.98 197.906 1338.88 199.81 1340.79 201.714 1341.77 204.161 1341.84 207.149 1341.77 210.234 1340.79 212.739 1338.88 214.665 1336.98 216.59 1334.53 217.582 1331.55 217.641 1328.46 217.582 1325.96 216.59 1324.03 214.665 1322.11 212.739 1321.11 210.234 1321.05 207.149 1321.11 204.161 1322.11 201.714 1324.03 199.81 1325.96 197.906 1328.46 196.923 1331.55 196.86ZM1126.55 196.86C1129.53 196.923 1131.98 197.906 1133.88 199.81 1135.79 201.714 1136.77 204.161 1136.84 207.149 1136.77 210.234 1135.79 212.739 1133.88 214.665 1131.98 216.59 1129.53 217.582 1126.55 217.641 1123.46 217.582 1120.96 216.59 1119.03 214.665 1117.11 212.739 1116.11 210.234 1116.06 207.149 1116.11 204.161 1117.11 201.714 1119.03 199.81 1120.96 197.906 1123.46 196.923 1126.55 196.86ZM1004.56 195.845C1015.47 196.069 1025.76 197.921 1035.42 201.403 1046.47 205.382 1055.43 213.143 1062.32 224.686 1069.21 236.23 1072.76 253.21 1072.97 275.628 1072.67 300.216 1066.77 319.12 1055.28 332.337 1043.79 345.555 1028.55 352.234 1009.55 352.376 1005.66 352.376 1002.57 352.376 1000.26 352.376 997.957 352.376 995.1 352.376 991.694 352.376 988.287 352.376 982.991 352.376 975.806 352.376L958.055 352.376 958.055 199.479C967.575 198.269 975.421 197.361 981.594 196.756 987.766 196.151 993.852 195.848 999.851 195.848 1001.44 195.814 1003.01 195.813 1004.56 195.845ZM2130.68 193.83C2140.49 193.842 2148.87 195.481 2155.81 198.747 2162.76 202.013 2168.87 206.829 2174.12 213.197L2162 223.501C2158.19 219.313 2153.85 216.022 2149 213.627 2144.14 211.233 2138.04 210.012 2130.68 209.966 2127.5 209.867 2123.85 210.468 2119.74 211.769 2115.63 213.069 2111.97 215.661 2108.75 219.543 2105.54 223.425 2103.69 229.189 2103.2 236.836 2103.21 244.328 2106.42 250.002 2112.82 253.858 2119.23 257.713 2126.93 260.862 2135.94 263.303 2143.97 265.613 2151.63 268.514 2158.91 272.006 2166.18 275.498 2172.15 280.269 2176.79 286.321 2181.44 292.372 2183.85 300.391 2184 310.378 2183.87 320.474 2181.49 328.854 2176.85 335.519 2172.22 342.185 2166.13 347.166 2158.58 350.465 2151.02 353.763 2142.8 355.41 2133.92 355.405 2121.78 355.068 2111.35 352.462 2102.63 347.585 2093.91 342.709 2086.36 335.155 2079.99 324.925L2092.51 313.813C2097.66 322.273 2103.6 328.587 2110.3 332.754 2117.01 336.92 2125.01 339.092 2134.32 339.268 2143.27 339.277 2150.83 336.886 2157 332.097 2163.18 327.307 2166.39 320.068 2166.65 310.378 2166.33 301.169 2162.73 294.484 2155.84 290.326 2148.95 286.167 2140.7 282.817 2131.09 280.274 2123.08 277.965 2115.64 275.198 2108.76 271.976 2101.89 268.753 2096.35 264.385 2092.15 258.873 2087.94 253.361 2085.84 246.015 2085.85 236.836 2086.33 224.671 2089.23 215.48 2094.55 209.262 2099.88 203.044 2105.97 198.879 2112.82 196.767 2119.67 194.656 2125.62 193.676 2130.68 193.83ZM281.943 193.83C296.008 194.077 307.28 198.829 315.759 208.085 324.238 217.342 328.589 229.62 328.811 244.921 328.694 264.352 324.436 279.031 316.037 288.958 307.638 298.885 295.802 303.865 280.529 303.898 273.713 303.814 267.744 302.772 262.622 300.772 257.501 298.772 252.899 296.318 248.819 293.411L248.819 352.375 231.055 352.375 231.055 196.857 248.819 196.857 248.819 202.908C253.513 200.147 258.704 197.953 264.39 196.327 270.076 194.7 275.927 193.868 281.943 193.83ZM1822.6 186.76 1839.55 186.76 1839.55 325.732C1839.45 325.883 1839.51 327.175 1839.71 329.607 1839.92 332.04 1840.84 334.708 1842.48 337.611 1844.12 340.515 1847.05 342.748 1851.26 344.311L1840.56 355.203C1833.81 352.488 1829.35 349.042 1827.17 344.864 1824.99 340.687 1823.8 336.936 1823.61 333.612 1818.25 339.772 1812.05 344.708 1805 348.419 1797.95 352.13 1790.07 353.988 1781.38 353.992 1773.12 353.788 1765.98 351.146 1759.95 346.067 1753.93 340.987 1749.27 334.291 1745.99 325.979 1742.7 317.667 1741.04 308.559 1740.99 298.656 1741.15 279.634 1745.38 264.947 1753.68 254.596 1761.99 244.245 1773.44 239.005 1788.05 238.876 1793.54 238.897 1799.23 240.216 1805.1 242.834 1810.97 245.452 1816.81 249.242 1822.6 254.204ZM1611.05 186.76 1627.8 186.76 1627.8 322.887C1627.74 325.311 1627.85 327.785 1628.12 330.31 1628.4 332.834 1629.16 334.804 1630.42 336.217 1631.93 337.72 1633.76 338.805 1635.9 339.474 1638.04 340.143 1640.53 340.471 1643.35 340.459L1642.74 354.799C1639.37 354.904 1635.26 354.542 1630.43 353.713 1625.59 352.884 1621.48 350.957 1618.11 347.932 1614.73 344.263 1612.67 340.139 1611.94 335.561 1611.2 330.983 1610.91 326.759 1611.05 322.887ZM822.055 186.76 838.796 186.76 838.796 322.887C838.741 325.311 838.851 327.785 839.124 330.31 839.398 332.834 840.164 334.804 841.422 336.217 842.933 337.72 844.759 338.805 846.901 339.474 849.043 340.143 851.526 340.471 854.35 340.459L853.744 354.799C850.369 354.904 846.263 354.542 841.426 353.713 836.589 352.884 832.485 350.957 829.114 347.932 825.732 344.263 823.673 340.139 822.938 335.561 822.202 330.983 821.908 326.759 822.055 322.887Z" stroke="#333333" stroke-linejoin="round" stroke-miterlimit="10" fill="#3A3A3A" fill-rule="evenodd"/><text fill="#000000" fill-opacity="0" font-family="Arial,Arial_MSFontService,sans-serif" font-size="221.165" x="231.055" y="380.279">Portal Digital de Servicios</text><g><g><g><path d="M364.515 284.499 62.2343 284.499 62.2343 88.9061 364.515 88.9061 364.515 284.499ZM373.406 62.2343 53.3437 62.2343C43.564 62.2343 35.5624 70.2358 35.5624 80.0155L35.5624 293.39C35.5624 303.17 43.564 311.171 53.3437 311.171L177.812 311.171 177.812 337.843 133.359 337.843 133.359 364.515 293.39 364.515 293.39 337.843 248.937 337.843 248.937 311.171 373.406 311.171C383.185 311.171 391.187 303.17 391.187 293.39L391.187 80.0155C391.187 70.2358 383.185 62.2343 373.406 62.2343Z" fill="#3A3A3A" transform="matrix(1.00059 0 0 1 1646 83.8244)"/></g></g></g><path d="M0 65.0002 32.5001 0 116.5 0 149 65.0002 116.5 130 32.5001 130Z" fill="#D9D9D9" fill-rule="evenodd" transform="matrix(-1 0 0 1 4027 1019)"/><path d="M0 138 69.0002 0 249 0 318 138 249 276 69.0002 276Z" fill="#D9D9D9" fill-rule="evenodd" fill-opacity="0.501961" transform="matrix(-1 0 0 1 3410 946)"/><path d="M0 307.001 153.5 0 552.5 0 706 307.001 552.5 614 153.5 614Z" fill="#D9D9D9" fill-rule="evenodd" fill-opacity="0.4" transform="matrix(-1 0 0 1 2902 777)"/><path d="M0 138.5 69.2498 0 248.75 0 318 138.5 248.75 277 69.2498 277Z" fill="#D9D9D9" fill-rule="evenodd" fill-opacity="0.501961" transform="matrix(-1 0 0 1 4462 1530)"/><path d="M0 138.5 69.2498 0 248.75 0 318 138.5 248.75 277 69.2498 277Z" fill="#D9D9D9" fill-rule="evenodd" transform="matrix(-1 0 0 1 3059 1920)"/><path d="M0 195 97.4998 0 350.5 0 448 195 350.5 390 97.4998 390Z" fill="#D9D9D9" fill-rule="evenodd" fill-opacity="0.501961" transform="matrix(-1 0 0 1 2072 889)"/><path d="M0 307 153.5 0 553.5 0 707 307 553.5 614 153.5 614Z" fill="#D9D9D9" fill-rule="evenodd" fill-opacity="0.4" transform="matrix(-1 0 0 1 2552 1751)"/><path d="M0 65.0002 32.5001 0 116.5 0 149 65.0002 116.5 130 32.5001 130Z" fill="#D9D9D9" fill-rule="evenodd" fill-opacity="0.501961" transform="matrix(-1 0 0 1 3676 824)"/><path d="M0 138.5 69.2498 0 248.75 0 318 138.5 248.75 277 69.2498 277Z" fill="#D9D9D9" fill-rule="evenodd" fill-opacity="0.8" transform="matrix(-1 0 0 1 3761 1530)"/><path d="M0 138.5 69.2498 0 248.75 0 318 138.5 248.75 277 69.2498 277Z" fill="#D9D9D9" fill-rule="evenodd" fill-opacity="0.501961" transform="matrix(-1 0 0 1 3059 1140)"/><path d="M0 65 32.5 0 116.5 0 149 65 116.5 130 32.5 130Z" fill="#D9D9D9" fill-rule="evenodd" transform="matrix(-1 0 0 1 1922 1409)"/><path d="M0 138 69.0001 0 250 0 319 138 250 276 69.0001 276Z" fill="#D9D9D9" fill-rule="evenodd" fill-opacity="0.501961" transform="matrix(-1 0 0 1 2358 751)"/><path d="M0 138.5 69.2499 0 249.75 0 319 138.5 249.75 277 69.2499 277Z" fill="#D9D9D9" fill-rule="evenodd" transform="matrix(-1 0 0 1 4112 1725)"/><path d="M0 229.49 114.745 0 413.255 0 528 229.49 413.255 458.98 114.745 458.98Z" fill="#D9D9D9" fill-rule="evenodd" fill-opacity="0.8" transform="matrix(-1 0 0 1 3866 1049)"/><g><g><g><path d="M219.985 194.513 187.823 162.351C183.449 157.977 177.531 156.433 171.871 157.463L160.55 146.142C170.585 133.277 176.502 116.811 176.502 99.3146 176.502 56.8615 141.768 22.1271 99.3146 22.1271 56.8615 22.1271 22.1271 56.8615 22.1271 99.3146 22.1271 141.768 56.8615 176.502 99.3146 176.502 116.811 176.502 133.02 170.585 146.142 160.55L157.463 171.871C156.433 177.531 157.977 183.449 162.351 187.823L194.513 219.985C198.115 223.587 202.746 225.388 207.377 225.388 212.008 225.388 216.64 223.587 220.242 219.985 226.931 212.78 226.931 201.46 219.985 194.513ZM99.0574 160.807C65.0948 160.807 37.3073 133.02 37.3073 99.0574 37.3073 65.0948 65.0948 37.3073 99.0574 37.3073 133.02 37.3073 160.807 65.0948 160.807 99.0574 160.807 133.02 133.02 160.807 99.0574 160.807Z" fill="#3A3A3A" transform="matrix(-1 0 0 1.00405 3723 1155)"/></g></g></g><path d="M0 229.5 114.75 0 412.25 0 527 229.5 412.25 459 114.75 459Z" fill="#D9D9D9" fill-rule="evenodd" fill-opacity="0.8" transform="matrix(-1 0 0 1 2462 1439)"/><g><g><g><path d="M2084.83 1782.18 2312.2 1782.18 2312.2 1762.12 2104.89 1762.12 2104.89 1554.81 2084.83 1554.81 2084.83 1782.18Z" fill="#3A3A3A"/><path d="M2124.95 1715.31 2158.39 1715.31 2158.39 1742.05 2124.95 1742.05Z" fill="#3A3A3A"/><path d="M2171.77 1695.25 2205.2 1695.25 2205.2 1742.05 2171.77 1742.05Z" fill="#3A3A3A"/><path d="M2218.58 1658.46 2252.02 1658.46 2252.02 1742.05 2218.58 1742.05Z" fill="#3A3A3A"/><path d="M2265.39 1584.9 2298.83 1584.9 2298.83 1742.05 2265.39 1742.05Z" fill="#3A3A3A"/><path d="M2212.87 1606.97C2215.91 1606.99 2218.39 1604.54 2218.41 1601.49 2218.43 1598.45 2215.98 1595.97 2212.94 1595.96 2211.58 1595.95 2210.27 1596.44 2209.25 1597.35L2196.98 1601.44C2195.94 1599.26 2194.65 1597.22 2193.14 1595.35L2202.75 1584.06C2202.86 1584.07 2202.97 1584.09 2203.09 1584.09 2207.59 1584.2 2211.32 1580.64 2211.43 1576.14 2211.53 1571.64 2207.97 1567.91 2203.48 1567.8 2198.98 1567.69 2195.24 1571.26 2195.13 1575.75 2195.12 1576.3 2195.16 1576.85 2195.26 1577.39L2185.59 1588.74C2182.14 1586.59 2178.29 1585.15 2174.28 1584.51L2174.05 1577.46C2175.81 1574.58 2174.91 1570.81 2172.03 1569.05 2169.15 1567.28 2165.38 1568.19 2163.62 1571.07 2162.28 1573.26 2162.44 1576.05 2164.04 1578.06L2164.25 1584.57C2160.08 1585.28 2156.1 1586.85 2152.57 1589.18L2146.09 1582.11C2146.15 1581.76 2146.19 1581.4 2146.2 1581.04 2146.2 1576.65 2142.64 1573.08 2138.25 1573.08 2133.86 1573.08 2130.3 1576.64 2130.3 1581.04 2130.3 1585.43 2133.86 1588.99 2138.25 1588.99 2138.25 1588.99 2138.25 1588.99 2138.25 1588.99 2138.42 1588.99 2138.57 1588.95 2138.74 1588.94L2145.24 1596.03C2141.98 1600.26 2139.88 1605.27 2139.17 1610.56L2133.06 1610.4C2130.36 1607.83 2126.09 1607.94 2123.53 1610.64 2120.96 1613.33 2121.07 1617.6 2123.77 1620.16 2126.26 1622.53 2130.14 1622.65 2132.77 1620.42L2139.45 1620.6C2140.12 1624 2141.37 1627.26 2143.15 1630.23L2131.04 1639.22C2127.01 1638.81 2123.42 1641.73 2123 1645.75 2122.59 1649.78 2125.52 1653.37 2129.54 1653.79 2133.56 1654.2 2137.16 1651.27 2137.57 1647.25 2137.59 1647.11 2137.6 1646.97 2137.6 1646.84L2149.61 1637.93C2152.53 1640.42 2155.9 1642.34 2159.54 1643.59L2157.2 1652.02C2152.78 1653.79 2150.64 1658.81 2152.41 1663.22 2154.17 1667.63 2159.19 1669.78 2163.6 1668.01 2168.01 1666.24 2170.16 1661.23 2168.39 1656.82 2168.04 1655.94 2167.55 1655.13 2166.94 1654.42L2169.49 1645.26C2173.52 1645.26 2177.51 1644.46 2181.24 1642.9L2188.63 1654.52C2187.99 1658.17 2190.43 1661.66 2194.08 1662.31 2197.74 1662.95 2201.23 1660.51 2201.87 1656.85 2202.46 1653.49 2200.44 1650.21 2197.16 1649.24L2189.71 1637.54C2192.58 1634.99 2194.95 1631.93 2196.69 1628.51L2205.81 1631.34C2207.64 1634.57 2211.74 1635.7 2214.96 1633.87 2218.18 1632.04 2219.31 1627.95 2217.48 1624.73 2215.81 1621.77 2212.19 1620.54 2209.06 1621.85L2199.7 1618.94C2200.1 1616.34 2200.14 1613.69 2199.8 1611.07L2212.29 1606.91C2212.48 1606.94 2212.68 1606.96 2212.87 1606.97ZM2167 1629.36C2164.97 1629.36 2163.33 1627.71 2163.33 1625.69 2163.33 1623.66 2164.97 1622.02 2167 1622.02 2169.02 1622.02 2170.67 1623.66 2170.67 1625.69 2170.67 1627.71 2169.03 1629.36 2167 1629.36ZM2174.95 1613.45C2172.58 1613.45 2170.67 1611.54 2170.67 1609.17 2170.67 1606.81 2172.58 1604.89 2174.95 1604.89 2177.31 1604.89 2179.23 1606.81 2179.23 1609.17 2179.23 1609.17 2179.23 1609.17 2179.23 1609.17 2179.23 1611.54 2177.31 1613.45 2174.95 1613.45ZM2182.29 1629.36C2179.93 1629.36 2178.01 1627.44 2178.01 1625.08 2178.01 1622.71 2179.93 1620.79 2182.29 1620.79 2184.65 1620.79 2186.57 1622.71 2186.57 1625.08 2186.57 1625.08 2186.57 1625.08 2186.57 1625.08 2186.57 1627.44 2184.65 1629.36 2182.29 1629.36Z" fill="#3A3A3A"/></g></g></g><path d="M0 229.5 114.75 0 412.25 0 527 229.5 412.25 459 114.75 459Z" fill="#D9D9D9" fill-rule="evenodd" fill-opacity="0.8" transform="matrix(-1 0 0 1 4216 1244)"/><g><g><g><path d="M79.7604 64.3229 149.229 64.3229 149.229 74.6145 79.7604 74.6145Z" fill="#3A3A3A" transform="matrix(1 0 0 1 3831 1350)"/><path d="M105.49 102.917 149.229 102.917 149.229 113.208 105.49 113.208Z" fill="#3A3A3A" transform="matrix(1 0 0 1 3831 1350)"/><path d="M79.7604 102.917 92.6249 102.917 92.6249 113.208 79.7604 113.208Z" fill="#3A3A3A" transform="matrix(1 0 0 1 3831 1350)"/><path d="M105.49 128.646 149.229 128.646 149.229 138.937 105.49 138.937Z" fill="#3A3A3A" transform="matrix(1 0 0 1 3831 1350)"/><path d="M79.7604 128.646 92.6249 128.646 92.6249 138.937 79.7604 138.937Z" fill="#3A3A3A" transform="matrix(1 0 0 1 3831 1350)"/><path d="M105.49 154.375 149.229 154.375 149.229 164.667 105.49 164.667Z" fill="#3A3A3A" transform="matrix(1 0 0 1 3831 1350)"/><path d="M79.7604 154.375 92.6249 154.375 92.6249 164.667 79.7604 164.667Z" fill="#3A3A3A" transform="matrix(1 0 0 1 3831 1350)"/><path d="M20.5833 187.823 20.5833 223.844 208.406 223.844 208.406 187.823 182.677 187.823 182.677 95.1978 223.844 95.1978 223.844 51.4583C223.844 35.7635 211.236 23.1562 195.542 23.1562L74.6145 23.1562C58.9197 23.1562 46.3125 35.7635 46.3125 51.4583L46.3125 187.823 20.5833 187.823ZM170.327 38.5937C168.269 42.4531 167.239 47.0843 167.239 51.4583L167.239 200.687 61.75 200.687 61.75 51.4583C61.75 44.2541 67.4104 38.5937 74.6145 38.5937L170.327 38.5937ZM182.677 79.7604 182.677 51.4583C182.677 44.2541 188.337 38.5937 195.542 38.5937 202.746 38.5937 208.406 44.2541 208.406 51.4583L208.406 79.7604 182.677 79.7604Z" fill="#3A3A3A" transform="matrix(1 0 0 1 3831 1350)"/></g></g></g><path d="M0 229.49 114.745 0 413.255 0 528 229.49 413.255 458.98 114.745 458.98Z" fill="#D9D9D9" fill-rule="evenodd" fill-opacity="0.8" transform="matrix(-1 0 0 1 2813 1244)"/><g><g><g><path d="M2590.67 1524.96 2590.67 1504.38 2503.19 1504.38C2500.36 1504.38 2498.04 1502.06 2498.04 1499.23L2498.04 1447.77C2498.04 1444.94 2500.36 1442.62 2503.19 1442.62L2590.67 1442.62 2590.67 1422.04C2590.67 1416.38 2586.04 1411.75 2580.37 1411.75L2571.37 1411.75C2570.6 1411.75 2570.08 1411.24 2570.08 1410.46L2570.08 1402.74C2570.08 1401.97 2570.6 1401.46 2571.37 1401.46L2577.8 1401.46C2579.35 1401.46 2580.37 1400.43 2580.37 1398.89L2580.37 1380.87C2580.37 1375.21 2575.74 1370.58 2570.08 1370.58L2498.04 1370.58C2492.38 1370.58 2487.75 1375.21 2487.75 1380.87L2487.75 1398.89C2487.75 1400.43 2488.78 1401.46 2490.32 1401.46L2496.76 1401.46C2497.53 1401.46 2498.04 1401.97 2498.04 1402.74L2498.04 1410.46C2498.04 1411.24 2497.53 1411.75 2496.76 1411.75L2487.75 1411.75C2482.09 1411.75 2477.46 1416.38 2477.46 1422.04L2477.46 1545.54C2477.46 1551.2 2482.09 1555.83 2487.75 1555.83L2523.77 1555.83C2523.77 1538.85 2537.66 1524.96 2554.65 1524.96L2590.67 1524.96Z" fill="#3A3A3A"/><path d="M2508.33 1455.49 2508.33 1491.51C2508.33 1493.05 2509.36 1494.08 2510.91 1494.08L2590.67 1494.08 2590.67 1452.92 2510.91 1452.92C2509.36 1452.92 2508.33 1453.95 2508.33 1455.49Z" fill="#3A3A3A"/><path d="M2577.8 1566.12 2554.65 1566.12C2548.99 1566.12 2544.35 1561.49 2544.35 1555.83 2544.35 1550.17 2548.99 1545.54 2554.65 1545.54L2577.8 1545.54 2577.8 1566.12ZM2600.96 1535.25 2554.65 1535.25C2543.32 1535.25 2534.06 1544.51 2534.06 1555.83 2534.06 1567.15 2543.32 1576.42 2554.65 1576.42L2600.96 1576.42C2612.28 1576.42 2621.54 1567.15 2621.54 1555.83 2621.54 1544.51 2612.28 1535.25 2600.96 1535.25Z" fill="#3A3A3A"/></g></g></g><path d="M0 229.49 114.745 0 413.255 0 528 229.49 413.255 458.98 114.745 458.98Z" fill="#D9D9D9" fill-rule="evenodd" fill-opacity="0.8" transform="matrix(-1 0 0 1 3515 1244)"/><g><g><g><path d="M208.365 131.991 190.612 101.373 190.612 100.344C191.691 72.1418 177.153 45.6369 152.79 31.3896 128.432 16.9811 98.1599 16.9811 73.8016 31.3896 49.3923 45.5913 34.8376 72.1269 35.9797 100.344 35.8894 124.542 47.1227 147.389 66.3401 162.094L66.3401 226.417 147.644 226.417 147.644 195.799 160.252 195.799C168.379 195.854 176.18 192.603 181.864 186.794 187.493 181.01 190.633 173.252 190.612 165.181L190.612 149.744 201.933 149.744C208.648 149.229 214.566 141.511 208.365 131.991ZM106.326 122.095C111.361 121.323 113.985 127.624 110.867 131.836L110.409 132.423C107.093 136.473 100.22 135.624 99.7392 130.563 99.4536 127.599 95.5633 124.55 93.7726 126.853L82.3643 141.511 71.9053 133.372C69.6026 131.571 72.6541 127.689 75.6155 127.403 80.6841 126.919 81.5332 120.05 77.4757 116.733L76.8891 116.275C72.6772 113.157 66.3813 115.781 67.1532 120.814 67.606 123.755 64.5803 127.668 62.2801 125.875L52.4078 118.192 63.8676 103.467C65.6686 101.165 61.7475 98.1414 58.8066 98.5942 53.774 99.3661 51.1496 93.0625 54.268 88.8532L54.7234 88.2665C58.0425 84.2168 64.9122 85.0633 65.3959 90.1268 65.6815 93.0882 69.5717 96.1371 71.3625 93.8369L82.7708 79.1713 92.5813 86.8077C94.8841 88.6087 91.8352 92.4887 88.8737 92.7717 83.8025 93.258 82.956 100.128 87.011 103.444L87.5976 103.902C91.8094 107.021 98.1157 104.388 97.3412 99.361 96.8884 96.4201 99.9013 92.5041 102.214 94.3026L112.732 102.487 101.268 117.222C99.4742 119.522 103.385 122.548 106.326 122.095ZM145.347 79.4723C143.384 80.9955 140.811 77.6584 141.199 75.1524 141.866 70.8633 136.367 68.7201 132.773 71.3702L132.274 71.7613C128.811 74.5915 129.66 80.3445 133.974 80.7665 136.498 81.0238 139.095 84.3326 137.131 85.8557L128.708 92.3961 118.954 79.8325C117.428 77.8694 114.106 80.4655 113.862 82.9895 113.445 87.3094 107.687 88.1533 104.857 84.6902L104.46 84.1859C101.813 80.5838 103.946 75.0958 108.24 75.7596 110.749 76.1481 114.083 73.5752 112.56 71.612L102.85 59.1051 111.22 52.6059C113.185 51.0802 115.758 54.4069 115.37 56.9232 114.703 61.2149 120.202 63.3555 123.793 60.7054L124.308 60.3169C127.769 57.4867 126.922 51.7311 122.605 51.3117 120.081 51.0673 117.477 47.7534 119.45 46.2225L128.425 39.255 138.181 51.8186C139.704 53.7817 143.026 51.1856 143.27 48.6616 143.687 44.3391 149.445 43.4978 152.276 46.9609L152.664 47.4601C155.314 51.0621 153.179 56.5502 148.885 55.8864 146.378 55.4978 143.041 58.0708 144.565 60.0339L154.27 72.5563Z" fill="#3A3A3A" transform="matrix(-1.00405 0 0 1 3375 1350)"/></g></g></g><path d="M0 229.49 114.745 0 413.255 0 528 229.49 413.255 458.98 114.745 458.98Z" fill="#D9D9D9" fill-rule="evenodd" fill-opacity="0.8" transform="matrix(-1 0 0 1 3164 1439)"/><g><g><g><path d="M236.708 131.219C236.736 125.563 232.174 120.956 226.519 120.928 224.604 120.918 222.726 121.446 221.096 122.45L177.099 147.606C177.693 150.468 177.674 153.424 177.045 156.279 174.737 165.834 166.123 172.52 156.294 172.385L110.635 172.385 110.635 162.094 156.948 162.094C162.632 162.094 167.239 157.486 167.239 151.802 167.239 146.118 162.632 141.51 156.948 141.51L95.1978 141.51C90.9047 141.511 86.6974 142.713 83.0511 144.979L10.2917 180.104 46.3125 216.125C62.9566 199.481 84.5846 192.969 108.062 192.969L156.15 192.969C158.34 192.968 160.472 192.27 162.238 190.975L232.908 139.143C235.304 137.209 236.7 134.298 236.708 131.219Z" fill="#3A3A3A" transform="matrix(1.00405 0 0 1 2776 1545)"/><path d="M133.792 53.2979C117.582 21.1365 90.052 40.4334 90.052 58.4438 90.052 85.4594 133.792 118.907 133.792 118.907 133.792 118.907 177.531 85.4594 177.531 58.4438 177.531 40.4334 150.001 21.1365 133.792 53.2979Z" fill="#3A3A3A" transform="matrix(1.00405 0 0 1 2776 1545)"/></g></g></g><path d="M4077.89 890.407 3980.45 695.525 3984.55 693.475 4081.99 888.357ZM4088.14 885.282C4090.4 889.81 4088.57 895.317 4084.04 897.581 4079.51 899.845 4074.01 898.009 4071.74 893.481 4069.48 888.953 4071.31 883.447 4075.84 881.183 4080.37 878.919 4085.88 880.754 4088.14 885.282ZM3974.3 698.599C3972.04 694.071 3973.87 688.565 3978.4 686.301 3982.93 684.037 3988.43 685.872 3990.7 690.4 3992.96 694.929 3991.13 700.435 3986.6 702.699 3982.07 704.963 3976.56 703.128 3974.3 698.599Z" fill="#7F7F7F"/><path d="M2.04973-1.02486 99.4907 193.857 95.3912 195.907-2.04973 1.02486ZM-8.19892 4.09946C-10.463-0.428678-8.62759-5.93485-4.09946-8.19892 0.428678-10.463 5.93485-8.62759 8.19892-4.09946 10.463 0.428678 8.62759 5.93485 4.09946 8.19892-0.428678 10.463-5.93485 8.62759-8.19892 4.09946ZM105.64 190.782C107.904 195.311 106.069 200.817 101.54 203.081 97.0123 205.345 91.5061 203.509 89.242 198.981 86.978 194.453 88.8133 188.947 93.3415 186.683 97.8696 184.419 103.376 186.254 105.64 190.782Z" fill="#7F7F7F" transform="matrix(1 0 0 -1 3982.5 694.382)"/><path d="M3.26448e-06-2.29167 253.346-2.29131 253.346 2.29203-3.26448e-06 2.29167ZM-1.30579e-05 9.16667C-5.06262 9.16666-9.16667 5.0626-9.16667-1.30579e-05-9.16666-5.06262-5.0626-9.16667 1.30579e-05-9.16667 5.06262-9.16666 9.16667-5.0626 9.16667 1.30579e-05 9.16666 5.06262 5.0626 9.16667-1.30579e-05 9.16667ZM253.346-9.16631C258.409-9.1663 262.513-5.06224 262.513 0.00037395 262.513 5.06298 258.409 9.16703 253.346 9.16703 248.284 9.16702 244.18 5.06296 244.18 0.000347834 244.18-5.06226 248.284-9.16631 253.346-9.16631Z" fill="#7F7F7F" transform="matrix(-1 0 0 1 3631.85 110.5)"/><path d="M2.04973-1.02486 99.4907 193.857 95.3912 195.907-2.04973 1.02486ZM-8.19892 4.09946C-10.463-0.428678-8.62759-5.93485-4.09946-8.19892 0.428678-10.463 5.93485-8.62759 8.19892-4.09946 10.463 0.428678 8.62759 5.93485 4.09946 8.19892-0.428678 10.463-5.93485 8.62759-8.19892 4.09946ZM105.64 190.782C107.904 195.311 106.069 200.817 101.54 203.081 97.0123 205.345 91.5061 203.509 89.242 198.981 86.978 194.453 88.8133 188.947 93.3415 186.683 97.8696 184.419 103.376 186.254 105.64 190.782Z" fill="#7F7F7F" transform="matrix(-1 0 0 1 3377.94 110.5)"/><path d="M3282.55 303.475 3379.99 498.357 3375.89 500.407 3278.45 305.525ZM3272.3 308.6C3270.04 304.071 3271.87 298.565 3276.4 296.301 3280.93 294.037 3286.43 295.872 3288.7 300.401 3290.96 304.929 3289.13 310.435 3284.6 312.699 3280.07 314.963 3274.57 313.128 3272.3 308.6ZM3386.14 495.282C3388.4 499.811 3386.57 505.317 3382.04 507.581 3377.51 509.845 3372.01 508.01 3369.74 503.481 3367.48 498.953 3369.31 493.447 3373.84 491.183 3378.37 488.919 3383.88 490.754 3386.14 495.282Z" fill="#7F7F7F"/><path d="M2.04973-1.02486 99.4907 193.857 95.3912 195.907-2.04973 1.02486ZM-8.19892 4.09946C-10.463-0.428678-8.62759-5.93485-4.09946-8.19892 0.428678-10.463 5.93485-8.62759 8.19892-4.09946 10.463 0.428678 8.62759 5.93485 4.09946 8.19892-0.428678 10.463-5.93485 8.62759-8.19892 4.09946ZM105.64 190.782C107.904 195.311 106.069 200.817 101.54 203.081 97.0123 205.345 91.5061 203.509 89.242 198.981 86.978 194.453 88.8133 188.947 93.3415 186.683 97.8696 184.419 103.376 186.254 105.64 190.782Z" fill="#7F7F7F" transform="matrix(-1 0 0 1 4079.94 889.5)"/><path d="M3.26448e-06-2.29167 253.346-2.29131 253.346 2.29203-3.26448e-06 2.29167ZM-1.30579e-05 9.16667C-5.06262 9.16666-9.16667 5.0626-9.16667-1.30579e-05-9.16666-5.06262-5.0626-9.16667 1.30579e-05-9.16667 5.06262-9.16666 9.16667-5.0626 9.16667 1.30579e-05 9.16666 5.06262 5.0626 9.16667-1.30579e-05 9.16667ZM253.346-9.16631C258.409-9.1663 262.513-5.06224 262.513 0.00037395 262.513 5.06298 258.409 9.16703 253.346 9.16703 248.284 9.16702 244.18 5.06296 244.18 0.000347834 244.18-5.06226 248.284-9.16631 253.346-9.16631Z" fill="#7F7F7F" transform="matrix(-1 0 0 1 3981.85 1084.5)"/><path d="M3633.55 888.475 3730.99 1083.36 3726.89 1085.41 3629.45 890.525ZM3623.3 893.6C3621.04 889.071 3622.87 883.565 3627.4 881.301 3631.93 879.037 3637.43 880.872 3639.7 885.401 3641.96 889.929 3640.13 895.435 3635.6 897.699 3631.07 899.963 3625.56 898.128 3623.3 893.6ZM3737.14 1080.28C3739.4 1084.81 3737.57 1090.32 3733.04 1092.58 3728.51 1094.84 3723.01 1093.01 3720.74 1088.48 3718.48 1083.95 3720.31 1078.45 3724.84 1076.18 3729.37 1073.92 3734.88 1075.75 3737.14 1080.28Z" fill="#7F7F7F"/><path d="M3.26448e-06-2.29167 253.346-2.29131 253.346 2.29203-3.26448e-06 2.29167ZM-1.30579e-05 9.16667C-5.06262 9.16666-9.16667 5.0626-9.16667-1.30579e-05-9.16666-5.06262-5.0626-9.16667 1.30579e-05-9.16667 5.06262-9.16666 9.16667-5.0626 9.16667 1.30579e-05 9.16666 5.06262 5.0626 9.16667-1.30579e-05 9.16667ZM253.346-9.16631C258.409-9.1663 262.513-5.06224 262.513 0.00037395 262.513 5.06298 258.409 9.16703 253.346 9.16703 248.284 9.16702 244.18 5.06296 244.18 0.000347834 244.18-5.06226 248.284-9.16631 253.346-9.16631Z" fill="#7F7F7F" transform="matrix(-1 0 0 1 3631.85 889.5)"/><path d="M2.04973-1.02486 99.4907 193.857 95.3912 195.907-2.04973 1.02486ZM-8.19892 4.09946C-10.463-0.428678-8.62759-5.93485-4.09946-8.19892 0.428678-10.463 5.93485-8.62759 8.19892-4.09946 10.463 0.428678 8.62759 5.93485 4.09946 8.19892-0.428678 10.463-5.93485 8.62759-8.19892 4.09946ZM105.64 190.782C107.904 195.311 106.069 200.817 101.54 203.081 97.0123 205.345 91.5061 203.509 89.242 198.981 86.978 194.453 88.8133 188.947 93.3415 186.683 97.8696 184.419 103.376 186.254 105.64 190.782Z" fill="#7F7F7F" transform="matrix(-1 0 0 1 3377.94 499.5)"/><path d="M3282.55 693.475 3379.99 888.357 3375.89 890.407 3278.45 695.525ZM3272.3 698.599C3270.04 694.071 3271.87 688.565 3276.4 686.301 3280.93 684.037 3286.43 685.872 3288.7 690.4 3290.96 694.929 3289.13 700.435 3284.6 702.699 3280.07 704.963 3274.57 703.128 3272.3 698.599ZM3386.14 885.282C3388.4 889.81 3386.57 895.317 3382.04 897.581 3377.51 899.845 3372.01 898.009 3369.74 893.481 3367.48 888.953 3369.31 883.447 3373.84 881.183 3378.37 878.919 3383.88 880.754 3386.14 885.282Z" fill="#7F7F7F"/><path d="M3375.89 1280.41 3278.45 1085.52 3282.55 1083.48 3379.99 1278.36ZM3386.14 1275.28C3388.4 1279.81 3386.57 1285.32 3382.04 1287.58 3377.51 1289.84 3372.01 1288.01 3369.74 1283.48 3367.48 1278.95 3369.31 1273.45 3373.84 1271.18 3378.37 1268.92 3383.88 1270.75 3386.14 1275.28ZM3272.3 1088.6C3270.04 1084.07 3271.87 1078.57 3276.4 1076.3 3280.93 1074.04 3286.43 1075.87 3288.7 1080.4 3290.96 1084.93 3289.13 1090.43 3284.6 1092.7 3280.07 1094.96 3274.57 1093.13 3272.3 1088.6Z" fill="#7F7F7F"/><path d="M3.26448e-06-2.29167 253.346-2.29131 253.346 2.29203-3.26448e-06 2.29167ZM-1.30579e-05 9.16667C-5.06262 9.16666-9.16667 5.0626-9.16667-1.30579e-05-9.16666-5.06262-5.0626-9.16667 1.30579e-05-9.16667 5.06262-9.16666 9.16667-5.0626 9.16667 1.30579e-05 9.16666 5.06262 5.0626 9.16667-1.30579e-05 9.16667ZM253.346-9.16631C258.409-9.1663 262.513-5.06224 262.513 0.00037395 262.513 5.06298 258.409 9.16703 253.346 9.16703 248.284 9.16702 244.18 5.06296 244.18 0.000347834 244.18-5.06226 248.284-9.16631 253.346-9.16631Z" fill="#7F7F7F" transform="matrix(-1 0 0 1 3280.85 1084.5)"/><path d="M2.04973-1.02486 99.4907 193.857 95.3912 195.907-2.04973 1.02486ZM-8.19892 4.09946C-10.463-0.428678-8.62759-5.93485-4.09946-8.19892 0.428678-10.463 5.93485-8.62759 8.19892-4.09946 10.463 0.428678 8.62759 5.93485 4.09946 8.19892-0.428678 10.463-5.93485 8.62759-8.19892 4.09946ZM105.64 190.782C107.904 195.311 106.069 200.817 101.54 203.081 97.0123 205.345 91.5061 203.509 89.242 198.981 86.978 194.453 88.8133 188.947 93.3415 186.683 97.8696 184.419 103.376 186.254 105.64 190.782Z" fill="#7F7F7F" transform="matrix(-1 0 0 1 3026.94 694.5)"/><path d="M3.26448e-06-2.29167 253.346-2.29131 253.346 2.29203-3.26448e-06 2.29167ZM-1.30579e-05 9.16667C-5.06262 9.16666-9.16667 5.0626-9.16667-1.30579e-05-9.16666-5.06262-5.0626-9.16667 1.30579e-05-9.16667 5.06262-9.16666 9.16667-5.0626 9.16667 1.30579e-05 9.16666 5.06262 5.0626 9.16667-1.30579e-05 9.16667ZM253.346-9.16631C258.409-9.1663 262.513-5.06224 262.513 0.00037395 262.513 5.06298 258.409 9.16703 253.346 9.16703 248.284 9.16702 244.18 5.06296 244.18 0.000347834 244.18-5.06226 248.284-9.16631 253.346-9.16631Z" fill="#7F7F7F" transform="matrix(-1 0 0 1 3280.85 694.5)"/><path d="M3.26448e-06-2.29167 253.346-2.29131 253.346 2.29203-3.26448e-06 2.29167ZM-1.30579e-05 9.16667C-5.06262 9.16666-9.16667 5.0626-9.16667-1.30579e-05-9.16666-5.06262-5.0626-9.16667 1.30579e-05-9.16667 5.06262-9.16666 9.16667-5.0626 9.16667 1.30579e-05 9.16666 5.06262 5.0626 9.16667-1.30579e-05 9.16667ZM253.346-9.16631C258.409-9.1663 262.513-5.06224 262.513 0.00037395 262.513 5.06298 258.409 9.16703 253.346 9.16703 248.284 9.16702 244.18 5.06296 244.18 0.000347834 244.18-5.06226 248.284-9.16631 253.346-9.16631Z" fill="#7F7F7F" transform="matrix(-1 0 0 1 2929.85 889.5)"/><path d="M2.04973-1.02486 99.4907 193.857 95.3912 195.907-2.04973 1.02486ZM-8.19892 4.09946C-10.463-0.428678-8.62759-5.93485-4.09946-8.19892 0.428678-10.463 5.93485-8.62759 8.19892-4.09946 10.463 0.428678 8.62759 5.93485 4.09946 8.19892-0.428678 10.463-5.93485 8.62759-8.19892 4.09946ZM105.64 190.782C107.904 195.311 106.069 200.817 101.54 203.081 97.0123 205.345 91.5061 203.509 89.242 198.981 86.978 194.453 88.8133 188.947 93.3415 186.683 97.8696 184.419 103.376 186.254 105.64 190.782Z" fill="#7F7F7F" transform="matrix(-1 0 0 1 3026.94 1084.5)"/><path d="M2581.55 693.475 2678.99 888.357 2674.89 890.407 2577.45 695.525ZM2571.3 698.599C2569.04 694.071 2570.87 688.565 2575.4 686.301 2579.93 684.037 2585.43 685.872 2587.7 690.4 2589.96 694.929 2588.13 700.435 2583.6 702.699 2579.07 704.963 2573.57 703.128 2571.3 698.599ZM2685.14 885.282C2687.4 889.81 2685.57 895.317 2681.04 897.581 2676.51 899.845 2671.01 898.009 2668.74 893.481 2666.48 888.953 2668.31 883.447 2672.84 881.183 2677.37 878.919 2682.88 880.754 2685.14 885.282Z" fill="#7F7F7F"/><path d="M2.04973-1.02486 99.4907 193.857 95.3912 195.907-2.04973 1.02486ZM-8.19892 4.09946C-10.463-0.428678-8.62759-5.93485-4.09946-8.19892 0.428678-10.463 5.93485-8.62759 8.19892-4.09946 10.463 0.428678 8.62759 5.93485 4.09946 8.19892-0.428678 10.463-5.93485 8.62759-8.19892 4.09946ZM105.64 190.782C107.904 195.311 106.069 200.817 101.54 203.081 97.0123 205.345 91.5061 203.509 89.242 198.981 86.978 194.453 88.8133 188.947 93.3415 186.683 97.8696 184.419 103.376 186.254 105.64 190.782Z" fill="#7F7F7F" transform="matrix(-1 0 0 1 2676.94 889.5)"/><path d="M2581.55 1083.48 2678.99 1278.36 2674.89 1280.41 2577.45 1085.52ZM2571.3 1088.6C2569.04 1084.07 2570.87 1078.57 2575.4 1076.3 2579.93 1074.04 2585.43 1075.87 2587.7 1080.4 2589.96 1084.93 2588.13 1090.43 2583.6 1092.7 2579.07 1094.96 2573.57 1093.13 2571.3 1088.6ZM2685.14 1275.28C2687.4 1279.81 2685.57 1285.32 2681.04 1287.58 2676.51 1289.84 2671.01 1288.01 2668.74 1283.48 2666.48 1278.95 2668.31 1273.45 2672.84 1271.18 2677.37 1268.92 2682.88 1270.75 2685.14 1275.28Z" fill="#7F7F7F"/><path d="M3.26448e-06-2.29167 253.346-2.29131 253.346 2.29203-3.26448e-06 2.29167ZM-1.30579e-05 9.16667C-5.06262 9.16666-9.16667 5.0626-9.16667-1.30579e-05-9.16666-5.06262-5.0626-9.16667 1.30579e-05-9.16667 5.06262-9.16666 9.16667-5.0626 9.16667 1.30579e-05 9.16666 5.06262 5.0626 9.16667-1.30579e-05 9.16667ZM253.346-9.16631C258.409-9.1663 262.513-5.06224 262.513 0.00037395 262.513 5.06298 258.409 9.16703 253.346 9.16703 248.284 9.16702 244.18 5.06296 244.18 0.000347834 244.18-5.06226 248.284-9.16631 253.346-9.16631Z" fill="#7F7F7F" transform="matrix(-1 0 0 1 2929.85 1279.5)"/><path d="M3.26448e-06-2.29167 253.346-2.29131 253.346 2.29203-3.26448e-06 2.29167ZM-1.30579e-05 9.16667C-5.06262 9.16666-9.16667 5.0626-9.16667-1.30579e-05-9.16666-5.06262-5.0626-9.16667 1.30579e-05-9.16667 5.06262-9.16666 9.16667-5.0626 9.16667 1.30579e-05 9.16666 5.06262 5.0626 9.16667-1.30579e-05 9.16667ZM253.346-9.16631C258.409-9.1663 262.513-5.06224 262.513 0.00037395 262.513 5.06298 258.409 9.16703 253.346 9.16703 248.284 9.16702 244.18 5.06296 244.18 0.000347834 244.18-5.06226 248.284-9.16631 253.346-9.16631Z" fill="#7F7F7F" transform="matrix(-1 0 0 1 2578.85 694.5)"/><path d="M2.04973-1.02486 99.4907 193.857 95.3912 195.907-2.04973 1.02486ZM-8.19892 4.09946C-10.463-0.428678-8.62759-5.93485-4.09946-8.19892 0.428678-10.463 5.93485-8.62759 8.19892-4.09946 10.463 0.428678 8.62759 5.93485 4.09946 8.19892-0.428678 10.463-5.93485 8.62759-8.19892 4.09946ZM105.64 190.782C107.904 195.311 106.069 200.817 101.54 203.081 97.0123 205.345 91.5061 203.509 89.242 198.981 86.978 194.453 88.8133 188.947 93.3415 186.683 97.8696 184.419 103.376 186.254 105.64 190.782Z" fill="#7F7F7F" transform="matrix(-1 0 0 1 2325.94 694.5)"/><path d="M3.26448e-06-2.29167 253.346-2.29131 253.346 2.29203-3.26448e-06 2.29167ZM-1.30579e-05 9.16667C-5.06262 9.16666-9.16667 5.0626-9.16667-1.30579e-05-9.16666-5.06262-5.0626-9.16667 1.30579e-05-9.16667 5.06262-9.16666 9.16667-5.0626 9.16667 1.30579e-05 9.16666 5.06262 5.0626 9.16667-1.30579e-05 9.16667ZM253.346-9.16631C258.409-9.1663 262.513-5.06224 262.513 0.00037395 262.513 5.06298 258.409 9.16703 253.346 9.16703 248.284 9.16702 244.18 5.06296 244.18 0.000347834 244.18-5.06226 248.284-9.16631 253.346-9.16631Z" fill="#7F7F7F" transform="matrix(-1 0 0 1 2578.85 1084.5)"/><path d="M3.26448e-06-2.29167 253.346-2.29131 253.346 2.29203-3.26448e-06 2.29167ZM-1.30579e-05 9.16667C-5.06262 9.16666-9.16667 5.0626-9.16667-1.30579e-05-9.16666-5.06262-5.0626-9.16667 1.30579e-05-9.16667 5.06262-9.16666 9.16667-5.0626 9.16667 1.30579e-05 9.16666 5.06262 5.0626 9.16667-1.30579e-05 9.16667ZM253.346-9.16631C258.409-9.1663 262.513-5.06224 262.513 0.00037395 262.513 5.06298 258.409 9.16703 253.346 9.16703 248.284 9.16702 244.18 5.06296 244.18 0.000347834 244.18-5.06226 248.284-9.16631 253.346-9.16631Z" fill="#7F7F7F" transform="matrix(-1 0 0 1 2227.85 889.5)"/><path d="M2.04973-1.02486 99.4907 193.857 95.3912 195.907-2.04973 1.02486ZM-8.19892 4.09946C-10.463-0.428678-8.62759-5.93485-4.09946-8.19892 0.428678-10.463 5.93485-8.62759 8.19892-4.09946 10.463 0.428678 8.62759 5.93485 4.09946 8.19892-0.428678 10.463-5.93485 8.62759-8.19892 4.09946ZM105.64 190.782C107.904 195.311 106.069 200.817 101.54 203.081 97.0123 205.345 91.5061 203.509 89.242 198.981 86.978 194.453 88.8133 188.947 93.3415 186.683 97.8696 184.419 103.376 186.254 105.64 190.782Z" fill="#7F7F7F" transform="matrix(-1 0 0 1 2325.94 1084.5)"/><path d="M1879.55 1083.48 1976.99 1278.36 1972.89 1280.41 1875.45 1085.52ZM1869.3 1088.6C1867.04 1084.07 1868.87 1078.57 1873.4 1076.3 1877.93 1074.04 1883.43 1075.87 1885.7 1080.4 1887.96 1084.93 1886.13 1090.43 1881.6 1092.7 1877.07 1094.96 1871.57 1093.13 1869.3 1088.6ZM1983.14 1275.28C1985.4 1279.81 1983.57 1285.32 1979.04 1287.58 1974.51 1289.84 1969.01 1288.01 1966.74 1283.48 1964.48 1278.95 1966.31 1273.45 1970.84 1271.18 1975.37 1268.92 1980.88 1270.75 1983.14 1275.28Z" fill="#7F7F7F"/><path d="M2.04973-1.02486 99.4907 193.857 95.3912 195.907-2.04973 1.02486ZM-8.19892 4.09946C-10.463-0.428678-8.62759-5.93485-4.09946-8.19892 0.428678-10.463 5.93485-8.62759 8.19892-4.09946 10.463 0.428678 8.62759 5.93485 4.09946 8.19892-0.428678 10.463-5.93485 8.62759-8.19892 4.09946ZM105.64 190.782C107.904 195.311 106.069 200.817 101.54 203.081 97.0123 205.345 91.5061 203.509 89.242 198.981 86.978 194.453 88.8133 188.947 93.3415 186.683 97.8696 184.419 103.376 186.254 105.64 190.782Z" fill="#7F7F7F" transform="matrix(-1 0 0 1 1974.94 889.5)"/><path d="M2.04973-1.02486 99.4907 193.857 95.3912 195.907-2.04973 1.02486ZM-8.19892 4.09946C-10.463-0.428678-8.62759-5.93485-4.09946-8.19892 0.428678-10.463 5.93485-8.62759 8.19892-4.09946 10.463 0.428678 8.62759 5.93485 4.09946 8.19892-0.428678 10.463-5.93485 8.62759-8.19892 4.09946ZM105.64 190.782C107.904 195.311 106.069 200.817 101.54 203.081 97.0123 205.345 91.5061 203.509 89.242 198.981 86.978 194.453 88.8133 188.947 93.3415 186.683 97.8696 184.419 103.376 186.254 105.64 190.782Z" fill="#7F7F7F" transform="matrix(-1 0 0 1 1623.94 694.5)"/><path d="M1528.55 888.475 1625.99 1083.36 1621.89 1085.41 1524.45 890.525ZM1518.3 893.6C1516.04 889.071 1517.87 883.565 1522.4 881.301 1526.93 879.037 1532.43 880.872 1534.7 885.401 1536.96 889.929 1535.13 895.435 1530.6 897.699 1526.07 899.963 1520.57 898.128 1518.3 893.6ZM1632.14 1080.28C1634.4 1084.81 1632.57 1090.32 1628.04 1092.58 1623.51 1094.84 1618.01 1093.01 1615.74 1088.48 1613.48 1083.95 1615.31 1078.45 1619.84 1076.18 1624.37 1073.92 1629.88 1075.75 1632.14 1080.28Z" fill="#7F7F7F"/><path d="M1624.5 1082.21 1877.85 1082.21 1877.85 1086.79 1624.5 1086.79ZM1624.5 1093.67C1619.44 1093.67 1615.33 1089.56 1615.33 1084.5 1615.33 1079.44 1619.44 1075.33 1624.5 1075.33 1629.56 1075.33 1633.67 1079.44 1633.67 1084.5 1633.67 1089.56 1629.56 1093.67 1624.5 1093.67ZM1877.85 1075.33C1882.91 1075.33 1887.01 1079.44 1887.01 1084.5 1887.01 1089.56 1882.91 1093.67 1877.85 1093.67 1872.78 1093.67 1868.68 1089.56 1868.68 1084.5 1868.68 1079.44 1872.78 1075.33 1877.85 1075.33Z" fill="#7F7F7F"/><path d="M2230.55 1278.47 2327.99 1473.36 2323.89 1475.41 2226.45 1280.52ZM2220.3 1283.6C2218.04 1279.07 2219.87 1273.57 2224.4 1271.3 2228.93 1269.04 2234.43 1270.87 2236.7 1275.4 2238.96 1279.93 2237.13 1285.43 2232.6 1287.7 2228.07 1289.96 2222.57 1288.13 2220.3 1283.6ZM2334.14 1470.28C2336.4 1474.81 2334.57 1480.32 2330.04 1482.58 2325.51 1484.84 2320.01 1483.01 2317.74 1478.48 2315.48 1473.95 2317.31 1468.45 2321.84 1466.18 2326.37 1463.92 2331.88 1465.75 2334.14 1470.28Z" fill="#7F7F7F"/><path d="M3.26448e-06-2.29167 253.346-2.29131 253.346 2.29203-3.26448e-06 2.29167ZM-1.30579e-05 9.16667C-5.06262 9.16666-9.16667 5.0626-9.16667-1.30579e-05-9.16666-5.06262-5.0626-9.16667 1.30579e-05-9.16667 5.06262-9.16666 9.16667-5.0626 9.16667 1.30579e-05 9.16666 5.06262 5.0626 9.16667-1.30579e-05 9.16667ZM253.346-9.16631C258.409-9.1663 262.513-5.06224 262.513 0.00037395 262.513 5.06298 258.409 9.16703 253.346 9.16703 248.284 9.16702 244.18 5.06296 244.18 0.000347834 244.18-5.06226 248.284-9.16631 253.346-9.16631Z" fill="#595959" transform="matrix(-1 0 0 1 4430.85 1474.5)"/><path d="M4174.89 1475.41 4077.45 1280.52 4081.55 1278.48 4178.99 1473.36ZM4185.14 1470.28C4187.4 1474.81 4185.57 1480.32 4181.04 1482.58 4176.51 1484.84 4171.01 1483.01 4168.74 1478.48 4166.48 1473.95 4168.31 1468.45 4172.84 1466.18 4177.37 1463.92 4182.88 1465.75 4185.14 1470.28ZM4071.3 1283.6C4069.04 1279.07 4070.87 1273.57 4075.4 1271.3 4079.93 1269.04 4085.43 1270.87 4087.7 1275.4 4089.96 1279.93 4088.13 1285.43 4083.6 1287.7 4079.07 1289.96 4073.57 1288.13 4071.3 1283.6Z" fill="#595959"/><path d="M2.04973-1.02486 99.4907 193.857 95.3912 195.907-2.04973 1.02486ZM-8.19892 4.09946C-10.463-0.428678-8.62759-5.93485-4.09946-8.19892 0.428678-10.463 5.93485-8.62759 8.19892-4.09946 10.463 0.428678 8.62759 5.93485 4.09946 8.19892-0.428678 10.463-5.93485 8.62759-8.19892 4.09946ZM105.64 190.782C107.904 195.311 106.069 200.817 101.54 203.081 97.0123 205.345 91.5061 203.509 89.242 198.981 86.978 194.453 88.8133 188.947 93.3415 186.683 97.8696 184.419 103.376 186.254 105.64 190.782Z" fill="#595959" transform="matrix(1 0 0 -1 4079.5 1279.38)"/><path d="M3.26448e-06-2.29167 253.346-2.29131 253.346 2.29203-3.26448e-06 2.29167ZM-1.30579e-05 9.16667C-5.06262 9.16666-9.16667 5.0626-9.16667-1.30579e-05-9.16666-5.06262-5.0626-9.16667 1.30579e-05-9.16667 5.06262-9.16666 9.16667-5.0626 9.16667 1.30579e-05 9.16666 5.06262 5.0626 9.16667-1.30579e-05 9.16667ZM253.346-9.16631C258.409-9.1663 262.513-5.06224 262.513 0.00037395 262.513 5.06298 258.409 9.16703 253.346 9.16703 248.284 9.16702 244.18 5.06296 244.18 0.000347834 244.18-5.06226 248.284-9.16631 253.346-9.16631Z" fill="#595959" transform="matrix(-1 0 0 1 4079.85 1279.5)"/><path d="M3730.55 1083.48 3827.99 1278.36 3823.89 1280.41 3726.45 1085.52ZM3720.3 1088.6C3718.04 1084.07 3719.87 1078.57 3724.4 1076.3 3728.93 1074.04 3734.44 1075.87 3736.7 1080.4 3738.96 1084.93 3737.13 1090.43 3732.6 1092.7 3728.07 1094.96 3722.57 1093.13 3720.3 1088.6ZM3834.14 1275.28C3836.4 1279.81 3834.57 1285.32 3830.04 1287.58 3825.51 1289.84 3820.01 1288.01 3817.74 1283.48 3815.48 1278.95 3817.31 1273.45 3821.84 1271.18 3826.37 1268.92 3831.88 1270.75 3834.14 1275.28Z" fill="#595959"/><path d="M3823.89 890.407 3726.45 695.525 3730.55 693.475 3827.99 888.357ZM3834.14 885.282C3836.4 889.81 3834.57 895.317 3830.04 897.581 3825.51 899.845 3820.01 898.009 3817.74 893.481 3815.48 888.953 3817.31 883.447 3821.84 881.183 3826.37 878.919 3831.88 880.754 3834.14 885.282ZM3720.3 698.599C3718.04 694.071 3719.87 688.565 3724.4 686.301 3728.93 684.037 3734.44 685.872 3736.7 690.4 3738.96 694.929 3737.13 700.435 3732.6 702.699 3728.07 704.963 3722.57 703.128 3720.3 698.599Z" fill="#595959"/><path d="M3.26448e-06-2.29167 253.346-2.29131 253.346 2.29203-3.26448e-06 2.29167ZM-1.30579e-05 9.16667C-5.06262 9.16666-9.16667 5.0626-9.16667-1.30579e-05-9.16666-5.06262-5.0626-9.16667 1.30579e-05-9.16667 5.06262-9.16666 9.16667-5.0626 9.16667 1.30579e-05 9.16666 5.06262 5.0626 9.16667-1.30579e-05 9.16667ZM253.346-9.16631C258.409-9.1663 262.513-5.06224 262.513 0.00037395 262.513 5.06298 258.409 9.16703 253.346 9.16703 248.284 9.16702 244.18 5.06296 244.18 0.000347834 244.18-5.06226 248.284-9.16631 253.346-9.16631Z" fill="#595959" transform="matrix(-1 0 0 1 3728.85 694.5)"/><path d="M2.04973-1.02486 99.4907 193.857 95.3912 195.907-2.04973 1.02486ZM-8.19892 4.09946C-10.463-0.428678-8.62759-5.93485-4.09946-8.19892 0.428678-10.463 5.93485-8.62759 8.19892-4.09946 10.463 0.428678 8.62759 5.93485 4.09946 8.19892-0.428678 10.463-5.93485 8.62759-8.19892 4.09946ZM105.64 190.782C107.904 195.311 106.069 200.817 101.54 203.081 97.0123 205.345 91.5061 203.509 89.242 198.981 86.978 194.453 88.8133 188.947 93.3415 186.683 97.8696 184.419 103.376 186.254 105.64 190.782Z" fill="#595959" transform="matrix(-1 0 0 1 3475.94 694.5)"/><path d="M3380.55 888.475 3477.99 1083.36 3473.89 1085.41 3376.45 890.525ZM3370.3 893.6C3368.04 889.071 3369.87 883.565 3374.4 881.301 3378.93 879.037 3384.43 880.872 3386.7 885.401 3388.96 889.929 3387.13 895.435 3382.6 897.699 3378.07 899.963 3372.56 898.128 3370.3 893.6ZM3484.14 1080.28C3486.4 1084.81 3484.57 1090.32 3480.04 1092.58 3475.51 1094.84 3470.01 1093.01 3467.74 1088.48 3465.48 1083.95 3467.31 1078.45 3471.84 1076.18 3476.37 1073.92 3481.88 1075.75 3484.14 1080.28Z" fill="#595959"/><path d="M3.26448e-06-2.29167 253.346-2.29131 253.346 2.29203-3.26448e-06 2.29167ZM-1.30579e-05 9.16667C-5.06262 9.16666-9.16667 5.0626-9.16667-1.30579e-05-9.16666-5.06262-5.0626-9.16667 1.30579e-05-9.16667 5.06262-9.16666 9.16667-5.0626 9.16667 1.30579e-05 9.16666 5.06262 5.0626 9.16667-1.30579e-05 9.16667ZM253.346-9.16631C258.409-9.1663 262.513-5.06224 262.513 0.00037395 262.513 5.06298 258.409 9.16703 253.346 9.16703 248.284 9.16702 244.18 5.06296 244.18 0.000347834 244.18-5.06226 248.284-9.16631 253.346-9.16631Z" fill="#595959" transform="matrix(-1 0 0 1 3728.85 1084.5)"/><path d="M2.04973-1.02486 99.4907 193.857 95.3912 195.907-2.04973 1.02486ZM-8.19892 4.09946C-10.463-0.428678-8.62759-5.93485-4.09946-8.19892 0.428678-10.463 5.93485-8.62759 8.19892-4.09946 10.463 0.428678 8.62759 5.93485 4.09946 8.19892-0.428678 10.463-5.93485 8.62759-8.19892 4.09946ZM105.64 190.782C107.904 195.311 106.069 200.817 101.54 203.081 97.0123 205.345 91.5061 203.509 89.242 198.981 86.978 194.453 88.8133 188.947 93.3415 186.683 97.8696 184.419 103.376 186.254 105.64 190.782Z" fill="#595959" transform="matrix(-1 0 0 1 3825.94 1279.5)"/><path d="M2.04973-1.02486 99.4907 193.857 95.3912 195.907-2.04973 1.02486ZM-8.19892 4.09946C-10.463-0.428678-8.62759-5.93485-4.09946-8.19892 0.428678-10.463 5.93485-8.62759 8.19892-4.09946 10.463 0.428678 8.62759 5.93485 4.09946 8.19892-0.428678 10.463-5.93485 8.62759-8.19892 4.09946ZM105.64 190.782C107.904 195.311 106.069 200.817 101.54 203.081 97.0123 205.345 91.5061 203.509 89.242 198.981 86.978 194.453 88.8133 188.947 93.3415 186.683 97.8696 184.419 103.376 186.254 105.64 190.782Z" fill="#595959" transform="matrix(-1 0 0 1 4176.94 1474.5)"/><path d="M3.26448e-06-2.29167 253.346-2.29131 253.346 2.29203-3.26448e-06 2.29167ZM-1.30579e-05 9.16667C-5.06262 9.16666-9.16667 5.0626-9.16667-1.30579e-05-9.16666-5.06262-5.0626-9.16667 1.30579e-05-9.16667 5.06262-9.16666 9.16667-5.0626 9.16667 1.30579e-05 9.16666 5.06262 5.0626 9.16667-1.30579e-05 9.16667ZM253.346-9.16631C258.409-9.1663 262.513-5.06224 262.513 0.00037395 262.513 5.06298 258.409 9.16703 253.346 9.16703 248.284 9.16702 244.18 5.06296 244.18 0.000347834 244.18-5.06226 248.284-9.16631 253.346-9.16631Z" fill="#595959" transform="matrix(-1 0 0 1 4079.85 1669.5)"/><path d="M3730.55 1473.47 3827.99 1668.36 3823.89 1670.41 3726.45 1475.52ZM3720.3 1478.6C3718.04 1474.07 3719.87 1468.57 3724.4 1466.3 3728.93 1464.04 3734.44 1465.87 3736.7 1470.4 3738.96 1474.93 3737.13 1480.43 3732.6 1482.7 3728.07 1484.96 3722.57 1483.13 3720.3 1478.6ZM3834.14 1665.28C3836.4 1669.81 3834.57 1675.32 3830.04 1677.58 3825.51 1679.84 3820.01 1678.01 3817.74 1673.48 3815.48 1668.95 3817.31 1663.45 3821.84 1661.18 3826.37 1658.92 3831.88 1660.75 3834.14 1665.28Z" fill="#595959"/><path d="M3.26448e-06-2.29167 253.346-2.29131 253.346 2.29203-3.26448e-06 2.29167ZM-1.30579e-05 9.16667C-5.06262 9.16666-9.16667 5.0626-9.16667-1.30579e-05-9.16666-5.06262-5.0626-9.16667 1.30579e-05-9.16667 5.06262-9.16666 9.16667-5.0626 9.16667 1.30579e-05 9.16666 5.06262 5.0626 9.16667-1.30579e-05 9.16667ZM253.346-9.16631C258.409-9.1663 262.513-5.06224 262.513 0.00037395 262.513 5.06298 258.409 9.16703 253.346 9.16703 248.284 9.16702 244.18 5.06296 244.18 0.000347834 244.18-5.06226 248.284-9.16631 253.346-9.16631Z" fill="#595959" transform="matrix(-1 0 0 1 3728.85 1474.5)"/><path d="M2.04973-1.02486 99.4907 193.857 95.3912 195.907-2.04973 1.02486ZM-8.19892 4.09946C-10.463-0.428678-8.62759-5.93485-4.09946-8.19892 0.428678-10.463 5.93485-8.62759 8.19892-4.09946 10.463 0.428678 8.62759 5.93485 4.09946 8.19892-0.428678 10.463-5.93485 8.62759-8.19892 4.09946ZM105.64 190.782C107.904 195.311 106.069 200.817 101.54 203.081 97.0123 205.345 91.5061 203.509 89.242 198.981 86.978 194.453 88.8133 188.947 93.3415 186.683 97.8696 184.419 103.376 186.254 105.64 190.782Z" fill="#595959" transform="matrix(-1 0 0 1 3475.94 1084.5)"/><path d="M3380.55 1278.47 3477.99 1473.36 3473.89 1475.41 3376.45 1280.52ZM3370.3 1283.6C3368.04 1279.07 3369.87 1273.57 3374.4 1271.3 3378.93 1269.04 3384.43 1270.87 3386.7 1275.4 3388.96 1279.93 3387.13 1285.43 3382.6 1287.7 3378.07 1289.96 3372.56 1288.13 3370.3 1283.6ZM3484.14 1470.28C3486.4 1474.81 3484.57 1480.32 3480.04 1482.58 3475.51 1484.84 3470.01 1483.01 3467.74 1478.48 3465.48 1473.95 3467.31 1468.45 3471.84 1466.18 3476.37 1463.92 3481.88 1465.75 3484.14 1470.28Z" fill="#595959"/><path d="M3.26448e-06-2.29167 253.346-2.29131 253.346 2.29203-3.26448e-06 2.29167ZM-1.30579e-05 9.16667C-5.06262 9.16666-9.16667 5.0626-9.16667-1.30579e-05-9.16666-5.06262-5.0626-9.16667 1.30579e-05-9.16667 5.06262-9.16666 9.16667-5.0626 9.16667 1.30579e-05 9.16666 5.06262 5.0626 9.16667-1.30579e-05 9.16667ZM253.346-9.16631C258.409-9.1663 262.513-5.06224 262.513 0.00037395 262.513 5.06298 258.409 9.16703 253.346 9.16703 248.284 9.16702 244.18 5.06296 244.18 0.000347834 244.18-5.06226 248.284-9.16631 253.346-9.16631Z" fill="#595959" transform="matrix(-1 0 0 1 3728.85 1863.5)"/><path d="M3473.89 1865.41 3376.45 1670.52 3380.55 1668.48 3477.99 1863.36ZM3484.14 1860.28C3486.4 1864.81 3484.57 1870.32 3480.04 1872.58 3475.51 1874.84 3470.01 1873.01 3467.74 1868.48 3465.48 1863.95 3467.31 1858.45 3471.84 1856.18 3476.37 1853.92 3481.88 1855.75 3484.14 1860.28ZM3370.3 1673.6C3368.04 1669.07 3369.87 1663.57 3374.4 1661.3 3378.93 1659.04 3384.43 1660.87 3386.7 1665.4 3388.96 1669.93 3387.13 1675.43 3382.6 1677.7 3378.07 1679.96 3372.57 1678.13 3370.3 1673.6Z" fill="#595959"/><path d="M2.04973-1.02486 99.4907 193.857 95.3912 195.907-2.04973 1.02486ZM-8.19892 4.09946C-10.463-0.428678-8.62759-5.93485-4.09946-8.19892 0.428678-10.463 5.93485-8.62759 8.19892-4.09946 10.463 0.428678 8.62759 5.93485 4.09946 8.19892-0.428678 10.463-5.93485 8.62759-8.19892 4.09946ZM105.64 190.782C107.904 195.311 106.069 200.817 101.54 203.081 97.0123 205.345 91.5061 203.509 89.242 198.981 86.978 194.453 88.8133 188.947 93.3415 186.683 97.8696 184.419 103.376 186.254 105.64 190.782Z" fill="#595959" transform="matrix(-1 0 0 1 3475.94 1474.5)"/><path d="M3.26448e-06-2.29167 253.346-2.29131 253.346 2.29203-3.26448e-06 2.29167ZM-1.30579e-05 9.16667C-5.06262 9.16666-9.16667 5.0626-9.16667-1.30579e-05-9.16666-5.06262-5.0626-9.16667 1.30579e-05-9.16667 5.06262-9.16666 9.16667-5.0626 9.16667 1.30579e-05 9.16666 5.06262 5.0626 9.16667-1.30579e-05 9.16667ZM253.346-9.16631C258.409-9.1663 262.513-5.06224 262.513 0.00037395 262.513 5.06298 258.409 9.16703 253.346 9.16703 248.284 9.16702 244.18 5.06296 244.18 0.000347834 244.18-5.06226 248.284-9.16631 253.346-9.16631Z" fill="#595959" transform="matrix(-1 0 0 1 3377.85 1669.5)"/><path d="M3122.89 1670.41 3025.45 1475.52 3029.55 1473.47 3126.99 1668.36ZM3133.14 1665.28C3135.4 1669.81 3133.57 1675.32 3129.04 1677.58 3124.51 1679.84 3119.01 1678.01 3116.74 1673.48 3114.48 1668.95 3116.31 1663.45 3120.84 1661.18 3125.37 1658.92 3130.88 1660.75 3133.14 1665.28ZM3019.3 1478.6C3017.04 1474.07 3018.87 1468.56 3023.4 1466.3 3027.93 1464.04 3033.43 1465.87 3035.7 1470.4 3037.96 1474.93 3036.13 1480.43 3031.6 1482.7 3027.07 1484.96 3021.57 1483.13 3019.3 1478.6Z" fill="#595959"/><path d="M2.04973-1.02486 99.4907 193.857 95.3912 195.907-2.04973 1.02486ZM-8.19892 4.09946C-10.463-0.428678-8.62759-5.93485-4.09946-8.19892 0.428678-10.463 5.93485-8.62759 8.19892-4.09946 10.463 0.428678 8.62759 5.93485 4.09946 8.19892-0.428678 10.463-5.93485 8.62759-8.19892 4.09946ZM105.64 190.782C107.904 195.311 106.069 200.817 101.54 203.081 97.0123 205.345 91.5061 203.509 89.242 198.981 86.978 194.453 88.8133 188.947 93.3415 186.683 97.8696 184.419 103.376 186.254 105.64 190.782Z" fill="#595959" transform="matrix(-1 0 0 1 3124.94 1279.5)"/><path d="M3.26448e-06-2.29167 253.346-2.29131 253.346 2.29203-3.26448e-06 2.29167ZM-1.30579e-05 9.16667C-5.06262 9.16666-9.16667 5.0626-9.16667-1.30579e-05-9.16666-5.06262-5.0626-9.16667 1.30579e-05-9.16667 5.06262-9.16666 9.16667-5.0626 9.16667 1.30579e-05 9.16666 5.06262 5.0626 9.16667-1.30579e-05 9.16667ZM253.346-9.16631C258.409-9.1663 262.513-5.06224 262.513 0.00037395 262.513 5.06298 258.409 9.16703 253.346 9.16703 248.284 9.16702 244.18 5.06296 244.18 0.000347834 244.18-5.06226 248.284-9.16631 253.346-9.16631Z" fill="#595959" transform="matrix(-1 0 0 1 3377.85 1279.5)"/><path d="M3.26448e-06-2.29167 253.346-2.29131 253.346 2.29203-3.26448e-06 2.29167ZM-1.30579e-05 9.16667C-5.06262 9.16666-9.16667 5.0626-9.16667-1.30579e-05-9.16666-5.06262-5.0626-9.16667 1.30579e-05-9.16667 5.06262-9.16666 9.16667-5.0626 9.16667 1.30579e-05 9.16666 5.06262 5.0626 9.16667-1.30579e-05 9.16667ZM253.346-9.16631C258.409-9.1663 262.513-5.06224 262.513 0.00037395 262.513 5.06298 258.409 9.16703 253.346 9.16703 248.284 9.16702 244.18 5.06296 244.18 0.000347834 244.18-5.06226 248.284-9.16631 253.346-9.16631Z" fill="#595959" transform="matrix(-1 0 0 1 3377.85 889.5)"/><path d="M2.04973-1.02486 99.4907 193.857 95.3912 195.907-2.04973 1.02486ZM-8.19892 4.09946C-10.463-0.428678-8.62759-5.93485-4.09946-8.19892 0.428678-10.463 5.93485-8.62759 8.19892-4.09946 10.463 0.428678 8.62759 5.93485 4.09946 8.19892-0.428678 10.463-5.93485 8.62759-8.19892 4.09946ZM105.64 190.782C107.904 195.311 106.069 200.817 101.54 203.081 97.0123 205.345 91.5061 203.509 89.242 198.981 86.978 194.453 88.8133 188.947 93.3415 186.683 97.8696 184.419 103.376 186.254 105.64 190.782Z" fill="#595959" transform="matrix(-1 0 0 1 3124.94 889.5)"/><path d="M3.26448e-06-2.29167 253.346-2.29131 253.346 2.29203-3.26448e-06 2.29167ZM-1.30579e-05 9.16667C-5.06262 9.16666-9.16667 5.0626-9.16667-1.30579e-05-9.16666-5.06262-5.0626-9.16667 1.30579e-05-9.16667 5.06262-9.16666 9.16667-5.0626 9.16667 1.30579e-05 9.16666 5.06262 5.0626 9.16667-1.30579e-05 9.16667ZM253.346-9.16631C258.409-9.1663 262.513-5.06224 262.513 0.00037395 262.513 5.06298 258.409 9.16703 253.346 9.16703 248.284 9.16702 244.18 5.06296 244.18 0.000347834 244.18-5.06226 248.284-9.16631 253.346-9.16631Z" fill="#595959" transform="matrix(-1 0 0 1 3026.85 1084.5)"/><path d="M3.26448e-06-2.29167 253.346-2.29131 253.346 2.29203-3.26448e-06 2.29167ZM-1.30579e-05 9.16667C-5.06262 9.16666-9.16667 5.0626-9.16667-1.30579e-05-9.16666-5.06262-5.0626-9.16667 1.30579e-05-9.16667 5.06262-9.16666 9.16667-5.0626 9.16667 1.30579e-05 9.16666 5.06262 5.0626 9.16667-1.30579e-05 9.16667ZM253.346-9.16631C258.409-9.1663 262.513-5.06224 262.513 0.00037395 262.513 5.06298 258.409 9.16703 253.346 9.16703 248.284 9.16702 244.18 5.06296 244.18 0.000347834 244.18-5.06226 248.284-9.16631 253.346-9.16631Z" fill="#595959" transform="matrix(-1 0 0 1 3026.85 1474.5)"/><path d="M2.04973-1.02486 99.4907 193.857 95.3912 195.907-2.04973 1.02486ZM-8.19892 4.09946C-10.463-0.428678-8.62759-5.93485-4.09946-8.19892 0.428678-10.463 5.93485-8.62759 8.19892-4.09946 10.463 0.428678 8.62759 5.93485 4.09946 8.19892-0.428678 10.463-5.93485 8.62759-8.19892 4.09946ZM105.64 190.782C107.904 195.311 106.069 200.817 101.54 203.081 97.0123 205.345 91.5061 203.509 89.242 198.981 86.978 194.453 88.8133 188.947 93.3415 186.683 97.8696 184.419 103.376 186.254 105.64 190.782Z" fill="#595959" transform="matrix(-1 0 0 1 3124.94 1669.5)"/><path d="M2678.55 888.475 2775.99 1083.36 2771.89 1085.41 2674.45 890.525ZM2668.3 893.6C2666.04 889.071 2667.87 883.565 2672.4 881.301 2676.93 879.037 2682.43 880.872 2684.7 885.401 2686.96 889.929 2685.13 895.435 2680.6 897.699 2676.07 899.963 2670.57 898.128 2668.3 893.6ZM2782.14 1080.28C2784.4 1084.81 2782.57 1090.32 2778.04 1092.58 2773.51 1094.84 2768.01 1093.01 2765.74 1088.48 2763.48 1083.95 2765.31 1078.45 2769.84 1076.18 2774.37 1073.92 2779.88 1075.75 2782.14 1080.28Z" fill="#595959"/><path d="M2678.55 1278.47 2775.99 1473.36 2771.89 1475.41 2674.45 1280.52ZM2668.3 1283.6C2666.04 1279.07 2667.87 1273.57 2672.4 1271.3 2676.93 1269.04 2682.43 1270.87 2684.7 1275.4 2686.96 1279.93 2685.13 1285.43 2680.6 1287.7 2676.07 1289.96 2670.57 1288.13 2668.3 1283.6ZM2782.14 1470.28C2784.4 1474.81 2782.57 1480.32 2778.04 1482.58 2773.51 1484.84 2768.01 1483.01 2765.74 1478.48 2763.48 1473.95 2765.31 1468.45 2769.84 1466.18 2774.37 1463.92 2779.88 1465.75 2782.14 1470.28Z" fill="#595959"/><path d="M2.04973-1.02486 99.4907 193.857 95.3912 195.907-2.04973 1.02486ZM-8.19892 4.09946C-10.463-0.428678-8.62759-5.93485-4.09946-8.19892 0.428678-10.463 5.93485-8.62759 8.19892-4.09946 10.463 0.428678 8.62759 5.93485 4.09946 8.19892-0.428678 10.463-5.93485 8.62759-8.19892 4.09946ZM105.64 190.782C107.904 195.311 106.069 200.817 101.54 203.081 97.0123 205.345 91.5061 203.509 89.242 198.981 86.978 194.453 88.8133 188.947 93.3415 186.683 97.8696 184.419 103.376 186.254 105.64 190.782Z" fill="#595959" transform="matrix(-1 0 0 1 2773.94 1474.5)"/><path d="M2678.55 1668.48 2775.99 1863.36 2771.89 1865.41 2674.45 1670.53ZM2668.3 1673.6C2666.04 1669.07 2667.87 1663.57 2672.4 1661.3 2676.93 1659.04 2682.43 1660.87 2684.7 1665.4 2686.96 1669.93 2685.13 1675.43 2680.6 1677.7 2676.07 1679.96 2670.57 1678.13 2668.3 1673.6ZM2782.14 1860.28C2784.4 1864.81 2782.57 1870.32 2778.04 1872.58 2773.51 1874.84 2768.01 1873.01 2765.74 1868.48 2763.48 1863.95 2765.31 1858.45 2769.84 1856.18 2774.37 1853.92 2779.88 1855.75 2782.14 1860.28Z" fill="#595959"/><path d="M3.26448e-06-2.29167 253.346-2.29131 253.346 2.29203-3.26448e-06 2.29167ZM-1.30579e-05 9.16667C-5.06262 9.16666-9.16667 5.0626-9.16667-1.30579e-05-9.16666-5.06262-5.0626-9.16667 1.30579e-05-9.16667 5.06262-9.16666 9.16667-5.0626 9.16667 1.30579e-05 9.16666 5.06262 5.0626 9.16667-1.30579e-05 9.16667ZM253.346-9.16631C258.409-9.1663 262.513-5.06224 262.513 0.00037395 262.513 5.06298 258.409 9.16703 253.346 9.16703 248.284 9.16702 244.18 5.06296 244.18 0.000347834 244.18-5.06226 248.284-9.16631 253.346-9.16631Z" fill="#595959" transform="matrix(-1 0 0 1 3026.85 1863.5)"/><path d="M3.26448e-06-2.29167 253.346-2.29131 253.346 2.29203-3.26448e-06 2.29167ZM-1.30579e-05 9.16667C-5.06262 9.16666-9.16667 5.0626-9.16667-1.30579e-05-9.16666-5.06262-5.0626-9.16667 1.30579e-05-9.16667 5.06262-9.16666 9.16667-5.0626 9.16667 1.30579e-05 9.16666 5.06262 5.0626 9.16667-1.30579e-05 9.16667ZM253.346-9.16631C258.409-9.1663 262.513-5.06224 262.513 0.00037395 262.513 5.06298 258.409 9.16703 253.346 9.16703 248.284 9.16702 244.18 5.06296 244.18 0.000347834 244.18-5.06226 248.284-9.16631 253.346-9.16631Z" fill="#595959" transform="matrix(-1 0 0 1 2676.85 889.5)"/><path d="M2.04973-1.02486 99.4907 193.857 95.3912 195.907-2.04973 1.02486ZM-8.19892 4.09946C-10.463-0.428678-8.62759-5.93485-4.09946-8.19892 0.428678-10.463 5.93485-8.62759 8.19892-4.09946 10.463 0.428678 8.62759 5.93485 4.09946 8.19892-0.428678 10.463-5.93485 8.62759-8.19892 4.09946ZM105.64 190.782C107.904 195.311 106.069 200.817 101.54 203.081 97.0123 205.345 91.5061 203.509 89.242 198.981 86.978 194.453 88.8133 188.947 93.3415 186.683 97.8696 184.419 103.376 186.254 105.64 190.782Z" fill="#595959" transform="matrix(-1 0 0 1 2422.94 889.5)"/><path d="M2327.55 1083.48 2424.99 1278.36 2420.89 1280.41 2323.45 1085.52ZM2317.3 1088.6C2315.04 1084.07 2316.87 1078.57 2321.4 1076.3 2325.93 1074.04 2331.43 1075.87 2333.7 1080.4 2335.96 1084.93 2334.13 1090.43 2329.6 1092.7 2325.07 1094.96 2319.57 1093.13 2317.3 1088.6ZM2431.14 1275.28C2433.4 1279.81 2431.57 1285.32 2427.04 1287.58 2422.51 1289.84 2417.01 1288.01 2414.74 1283.48 2412.48 1278.95 2414.31 1273.45 2418.84 1271.18 2423.37 1268.92 2428.88 1270.75 2431.14 1275.28Z" fill="#595959"/><path d="M3.26448e-06-2.29167 253.346-2.29131 253.346 2.29203-3.26448e-06 2.29167ZM-1.30579e-05 9.16667C-5.06262 9.16666-9.16667 5.0626-9.16667-1.30579e-05-9.16666-5.06262-5.0626-9.16667 1.30579e-05-9.16667 5.06262-9.16666 9.16667-5.0626 9.16667 1.30579e-05 9.16666 5.06262 5.0626 9.16667-1.30579e-05 9.16667ZM253.346-9.16631C258.409-9.1663 262.513-5.06224 262.513 0.00037395 262.513 5.06298 258.409 9.16703 253.346 9.16703 248.284 9.16702 244.18 5.06296 244.18 0.000347834 244.18-5.06226 248.284-9.16631 253.346-9.16631Z" fill="#595959" transform="matrix(-1 0 0 1 2676.85 1279.5)"/><path d="M2.04973-1.02486 99.4907 193.857 95.3912 195.907-2.04973 1.02486ZM-8.19892 4.09946C-10.463-0.428678-8.62759-5.93485-4.09946-8.19892 0.428678-10.463 5.93485-8.62759 8.19892-4.09946 10.463 0.428678 8.62759 5.93485 4.09946 8.19892-0.428678 10.463-5.93485 8.62759-8.19892 4.09946ZM105.64 190.782C107.904 195.311 106.069 200.817 101.54 203.081 97.0123 205.345 91.5061 203.509 89.242 198.981 86.978 194.453 88.8133 188.947 93.3415 186.683 97.8696 184.419 103.376 186.254 105.64 190.782Z" fill="#595959" transform="matrix(-1 0 0 1 2422.94 1279.5)"/><path d="M3.26448e-06-2.29167 253.346-2.29131 253.346 2.29203-3.26448e-06 2.29167ZM-1.30579e-05 9.16667C-5.06262 9.16666-9.16667 5.0626-9.16667-1.30579e-05-9.16666-5.06262-5.0626-9.16667 1.30579e-05-9.16667 5.06262-9.16666 9.16667-5.0626 9.16667 1.30579e-05 9.16666 5.06262 5.0626 9.16667-1.30579e-05 9.16667ZM253.346-9.16631C258.409-9.1663 262.513-5.06224 262.513 0.00037395 262.513 5.06298 258.409 9.16703 253.346 9.16703 248.284 9.16702 244.18 5.06296 244.18 0.000347834 244.18-5.06226 248.284-9.16631 253.346-9.16631Z" fill="#595959" transform="matrix(-1 0 0 1 2676.85 1669.5)"/><path d="M2327.55 1473.47 2424.99 1668.36 2420.89 1670.41 2323.45 1475.52ZM2317.3 1478.6C2315.04 1474.07 2316.87 1468.57 2321.4 1466.3 2325.93 1464.04 2331.43 1465.87 2333.7 1470.4 2335.96 1474.93 2334.13 1480.43 2329.6 1482.7 2325.07 1484.96 2319.57 1483.13 2317.3 1478.6ZM2431.14 1665.28C2433.4 1669.81 2431.57 1675.32 2427.04 1677.58 2422.51 1679.84 2417.01 1678.01 2414.74 1673.48 2412.48 1668.95 2414.31 1663.45 2418.84 1661.18 2423.37 1658.92 2428.88 1660.75 2431.14 1665.28Z" fill="#595959"/><path d="M3.26448e-06-2.29167 253.346-2.29131 253.346 2.29203-3.26448e-06 2.29167ZM-1.30579e-05 9.16667C-5.06262 9.16666-9.16667 5.0626-9.16667-1.30579e-05-9.16666-5.06262-5.0626-9.16667 1.30579e-05-9.16667 5.06262-9.16666 9.16667-5.0626 9.16667 1.30579e-05 9.16666 5.06262 5.0626 9.16667-1.30579e-05 9.16667ZM253.346-9.16631C258.409-9.1663 262.513-5.06224 262.513 0.00037395 262.513 5.06298 258.409 9.16703 253.346 9.16703 248.284 9.16702 244.18 5.06296 244.18 0.000347834 244.18-5.06226 248.284-9.16631 253.346-9.16631Z" fill="#595959" transform="matrix(-1 0 0 1 2325.85 1474.5)"/><path d="M2.04973-1.02486 99.4907 193.857 95.3912 195.907-2.04973 1.02486ZM-8.19892 4.09946C-10.463-0.428678-8.62759-5.93485-4.09946-8.19892 0.428678-10.463 5.93485-8.62759 8.19892-4.09946 10.463 0.428678 8.62759 5.93485 4.09946 8.19892-0.428678 10.463-5.93485 8.62759-8.19892 4.09946ZM105.64 190.782C107.904 195.311 106.069 200.817 101.54 203.081 97.0123 205.345 91.5061 203.509 89.242 198.981 86.978 194.453 88.8133 188.947 93.3415 186.683 97.8696 184.419 103.376 186.254 105.64 190.782Z" fill="#595959" transform="matrix(-1 0 0 1 2422.94 1669.5)"/><path d="M3.26448e-06-2.29167 253.346-2.29131 253.346 2.29203-3.26448e-06 2.29167ZM-1.30579e-05 9.16667C-5.06262 9.16666-9.16667 5.0626-9.16667-1.30579e-05-9.16666-5.06262-5.0626-9.16667 1.30579e-05-9.16667 5.06262-9.16666 9.16667-5.0626 9.16667 1.30579e-05 9.16666 5.06262 5.0626 9.16667-1.30579e-05 9.16667ZM253.346-9.16631C258.409-9.1663 262.513-5.06224 262.513 0.00037395 262.513 5.06298 258.409 9.16703 253.346 9.16703 248.284 9.16702 244.18 5.06296 244.18 0.000347834 244.18-5.06226 248.284-9.16631 253.346-9.16631Z" fill="#595959" transform="matrix(-1 0 0 1 2325.85 1863.5)"/><path d="M1976.55 1668.48 2073.99 1863.36 2069.89 1865.41 1972.45 1670.53ZM1966.3 1673.6C1964.04 1669.07 1965.87 1663.57 1970.4 1661.3 1974.93 1659.04 1980.43 1660.87 1982.7 1665.4 1984.96 1669.93 1983.13 1675.43 1978.6 1677.7 1974.07 1679.96 1968.57 1678.13 1966.3 1673.6ZM2080.14 1860.28C2082.4 1864.81 2080.57 1870.32 2076.04 1872.58 2071.51 1874.84 2066.01 1873.01 2063.74 1868.48 2061.48 1863.95 2063.31 1858.45 2067.84 1856.18 2072.37 1853.92 2077.88 1855.75 2080.14 1860.28Z" fill="#595959"/><path d="M2.04973-1.02486 99.4907 193.857 95.3912 195.907-2.04973 1.02486ZM-8.19892 4.09946C-10.463-0.428678-8.62759-5.93485-4.09946-8.19892 0.428678-10.463 5.93485-8.62759 8.19892-4.09946 10.463 0.428678 8.62759 5.93485 4.09946 8.19892-0.428678 10.463-5.93485 8.62759-8.19892 4.09946ZM105.64 190.782C107.904 195.311 106.069 200.817 101.54 203.081 97.0123 205.345 91.5061 203.509 89.242 198.981 86.978 194.453 88.8133 188.947 93.3415 186.683 97.8696 184.419 103.376 186.254 105.64 190.782Z" fill="#595959" transform="matrix(-1 0 0 1 2071.94 1474.5)"/><path d="M2.04973-1.02486 99.4907 193.857 95.3912 195.907-2.04973 1.02486ZM-8.19892 4.09946C-10.463-0.428678-8.62759-5.93485-4.09946-8.19892 0.428678-10.463 5.93485-8.62759 8.19892-4.09946 10.463 0.428678 8.62759 5.93485 4.09946 8.19892-0.428678 10.463-5.93485 8.62759-8.19892 4.09946ZM105.64 190.782C107.904 195.311 106.069 200.817 101.54 203.081 97.0123 205.345 91.5061 203.509 89.242 198.981 86.978 194.453 88.8133 188.947 93.3415 186.683 97.8696 184.419 103.376 186.254 105.64 190.782Z" fill="#595959" transform="matrix(-1 0 0 1 1721.94 1279.5)"/><path d="M1626.55 1473.47 1723.99 1668.36 1719.89 1670.41 1622.45 1475.52ZM1616.3 1478.6C1614.04 1474.07 1615.87 1468.57 1620.4 1466.3 1624.93 1464.04 1630.43 1465.87 1632.7 1470.4 1634.96 1474.93 1633.13 1480.43 1628.6 1482.7 1624.07 1484.96 1618.57 1483.13 1616.3 1478.6ZM1730.14 1665.28C1732.4 1669.81 1730.57 1675.32 1726.04 1677.58 1721.51 1679.84 1716.01 1678.01 1713.74 1673.48 1711.48 1668.95 1713.31 1663.45 1717.84 1661.18 1722.37 1658.92 1727.88 1660.75 1730.14 1665.28Z" fill="#595959"/><path d="M1721.5 1667.21 1974.85 1667.21 1974.85 1671.79 1721.5 1671.79ZM1721.5 1678.67C1716.44 1678.67 1712.33 1674.56 1712.33 1669.5 1712.33 1664.44 1716.44 1660.33 1721.5 1660.33 1726.56 1660.33 1730.67 1664.44 1730.67 1669.5 1730.67 1674.56 1726.56 1678.67 1721.5 1678.67ZM1974.85 1660.33C1979.91 1660.33 1984.01 1664.44 1984.01 1669.5 1984.01 1674.56 1979.91 1678.67 1974.85 1678.67 1969.78 1678.67 1965.68 1674.56 1965.68 1669.5 1965.68 1664.44 1969.78 1660.33 1974.85 1660.33Z" fill="#595959"/><path d="M3.26448e-06-2.29167 253.346-2.29131 253.346 2.29203-3.26448e-06 2.29167ZM-1.30579e-05 9.16667C-5.06262 9.16666-9.16667 5.0626-9.16667-1.30579e-05-9.16666-5.06262-5.0626-9.16667 1.30579e-05-9.16667 5.06262-9.16666 9.16667-5.0626 9.16667 1.30579e-05 9.16666 5.06262 5.0626 9.16667-1.30579e-05 9.16667ZM253.346-9.16631C258.409-9.1663 262.513-5.06224 262.513 0.00037395 262.513 5.06298 258.409 9.16703 253.346 9.16703 248.284 9.16702 244.18 5.06296 244.18 0.000347834 244.18-5.06226 248.284-9.16631 253.346-9.16631Z" fill="#595959" transform="matrix(-1 0 0 1 4430.85 1863.5)"/><path d="M4081.55 1668.48 4178.99 1863.36 4174.89 1865.41 4077.45 1670.53ZM4071.3 1673.6C4069.04 1669.07 4070.87 1663.57 4075.4 1661.3 4079.93 1659.04 4085.44 1660.87 4087.7 1665.4 4089.96 1669.93 4088.13 1675.43 4083.6 1677.7 4079.07 1679.96 4073.57 1678.13 4071.3 1673.6ZM4185.14 1860.28C4187.4 1864.81 4185.57 1870.32 4181.04 1872.58 4176.51 1874.84 4171.01 1873.01 4168.74 1868.48 4166.48 1863.95 4168.31 1858.45 4172.84 1856.18 4177.37 1853.92 4182.88 1855.75 4185.14 1860.28Z" fill="#595959"/><path d="M2.04973-1.02486 99.4907 193.857 95.3912 195.907-2.04973 1.02486ZM-8.19892 4.09946C-10.463-0.428678-8.62759-5.93485-4.09946-8.19892 0.428678-10.463 5.93485-8.62759 8.19892-4.09946 10.463 0.428678 8.62759 5.93485 4.09946 8.19892-0.428678 10.463-5.93485 8.62759-8.19892 4.09946ZM105.64 190.782C107.904 195.311 106.069 200.817 101.54 203.081 97.0123 205.345 91.5061 203.509 89.242 198.981 86.978 194.453 88.8133 188.947 93.3415 186.683 97.8696 184.419 103.376 186.254 105.64 190.782Z" fill="#595959" transform="matrix(-1 0 0 1 4176.94 1863.5)"/><path d="M3730.55 1862.48 3827.99 2057.36 3823.89 2059.41 3726.45 1864.52ZM3720.3 1867.6C3718.04 1863.07 3719.87 1857.57 3724.4 1855.3 3728.93 1853.04 3734.44 1854.87 3736.7 1859.4 3738.96 1863.93 3737.13 1869.43 3732.6 1871.7 3728.07 1873.96 3722.57 1872.13 3720.3 1867.6ZM3834.14 2054.28C3836.4 2058.81 3834.57 2064.32 3830.04 2066.58 3825.51 2068.84 3820.01 2067.01 3817.74 2062.48 3815.48 2057.95 3817.31 2052.45 3821.84 2050.18 3826.37 2047.92 3831.88 2049.75 3834.14 2054.28Z" fill="#595959"/><path d="M3029.55 1862.48 3126.99 2057.36 3122.89 2059.41 3025.45 1864.52ZM3019.3 1867.6C3017.04 1863.07 3018.87 1857.57 3023.4 1855.3 3027.93 1853.04 3033.43 1854.87 3035.7 1859.4 3037.96 1863.93 3036.13 1869.43 3031.6 1871.7 3027.07 1873.96 3021.57 1872.13 3019.3 1867.6ZM3133.14 2054.28C3135.4 2058.81 3133.57 2064.32 3129.04 2066.58 3124.51 2068.84 3119.01 2067.01 3116.74 2062.48 3114.48 2057.95 3116.31 2052.45 3120.84 2050.18 3125.37 2047.92 3130.88 2049.75 3133.14 2054.28Z" fill="#595959"/><path d="M2.04973-1.02486 99.4907 193.857 95.3912 195.907-2.04973 1.02486ZM-8.19892 4.09946C-10.463-0.428678-8.62759-5.93485-4.09946-8.19892 0.428678-10.463 5.93485-8.62759 8.19892-4.09946 10.463 0.428678 8.62759 5.93485 4.09946 8.19892-0.428678 10.463-5.93485 8.62759-8.19892 4.09946ZM105.64 190.782C107.904 195.311 106.069 200.817 101.54 203.081 97.0123 205.345 91.5061 203.509 89.242 198.981 86.978 194.453 88.8133 188.947 93.3415 186.683 97.8696 184.419 103.376 186.254 105.64 190.782Z" fill="#595959" transform="matrix(-1 0 0 1 2773.94 1863.5)"/><path d="M2327.55 1862.48 2424.99 2057.36 2420.89 2059.41 2323.45 1864.52ZM2317.3 1867.6C2315.04 1863.07 2316.87 1857.57 2321.4 1855.3 2325.93 1853.04 2331.43 1854.87 2333.7 1859.4 2335.96 1863.93 2334.13 1869.43 2329.6 1871.7 2325.07 1873.96 2319.57 1872.13 2317.3 1867.6ZM2431.14 2054.28C2433.4 2058.81 2431.57 2064.32 2427.04 2066.58 2422.51 2068.84 2417.01 2067.01 2414.74 2062.48 2412.48 2057.95 2414.31 2052.45 2418.84 2050.18 2423.37 2047.92 2428.88 2049.75 2431.14 2054.28Z" fill="#595959"/><path d="M2.04973-1.02486 99.4907 193.857 95.3912 195.907-2.04973 1.02486ZM-8.19892 4.09946C-10.463-0.428678-8.62759-5.93485-4.09946-8.19892 0.428678-10.463 5.93485-8.62759 8.19892-4.09946 10.463 0.428678 8.62759 5.93485 4.09946 8.19892-0.428678 10.463-5.93485 8.62759-8.19892 4.09946ZM105.64 190.782C107.904 195.311 106.069 200.817 101.54 203.081 97.0123 205.345 91.5061 203.509 89.242 198.981 86.978 194.453 88.8133 188.947 93.3415 186.683 97.8696 184.419 103.376 186.254 105.64 190.782Z" fill="#595959" transform="matrix(-1 0 0 1 2071.94 1863.5)"/><path d="M1719.89 1280.41 1622.45 1085.52 1626.55 1083.48 1723.99 1278.36ZM1730.14 1275.28C1732.4 1279.81 1730.57 1285.32 1726.04 1287.58 1721.51 1289.84 1716.01 1288.01 1713.74 1283.48 1711.48 1278.95 1713.31 1273.45 1717.84 1271.18 1722.37 1268.92 1727.88 1270.75 1730.14 1275.28ZM1616.3 1088.6C1614.04 1084.07 1615.87 1078.57 1620.4 1076.3 1624.93 1074.04 1630.43 1075.87 1632.7 1080.4 1634.96 1084.93 1633.13 1090.43 1628.6 1092.7 1624.07 1094.96 1618.57 1093.13 1616.3 1088.6Z" fill="#595959"/><path d="M2420.89 890.407 2323.45 695.525 2327.55 693.475 2424.99 888.357ZM2431.14 885.282C2433.4 889.81 2431.57 895.317 2427.04 897.581 2422.51 899.845 2417.01 898.009 2414.74 893.481 2412.48 888.953 2414.31 883.447 2418.84 881.183 2423.37 878.919 2428.88 880.754 2431.14 885.282ZM2317.3 698.599C2315.04 694.071 2316.87 688.565 2321.4 686.301 2325.93 684.037 2331.43 685.872 2333.7 690.4 2335.96 694.929 2334.13 700.435 2329.6 702.699 2325.07 704.963 2319.57 703.128 2317.3 698.599Z" fill="#595959"/><path d="M0 307.001 153.5 0 552.5 0 706 307.001 552.5 614.001 153.5 614.001Z" fill="#D9D9D9" fill-rule="evenodd" fill-opacity="0.301961" transform="matrix(-1 0 0 1 1725 1485)"/><path d="M0 578.501 289.25 0 1040.75 0 1330 578.501 1040.75 1157 289.25 1157Z" fill="#D9D9D9" fill-rule="evenodd" fill-opacity="0.4" transform="matrix(-1 0 0 1 1268 635)"/><text fill="#3A3A3A" font-family="Junction Bold,Junction Bold_MSFontService,sans-serif" font-weight="700" font-size="367" transform="matrix(1 0 0 1 249.114 1326)">mre</text><g><g><g><path d="M355.052 156.223C347.951 139.097 328.319 131.16 311.193 138.261 296.99 144.109 288.636 159.147 290.725 173.767L236.84 196.323C230.993 186.298 220.55 178.779 208.854 176.691L208.854 118.629C223.056 114.87 233.917 101.921 233.917 86.4656 233.917 68.0864 218.879 53.0489 200.5 53.0489L200.5 53.0489C182.121 53.0489 167.083 68.0864 167.083 86.4656 167.083 101.921 177.944 114.87 192.146 118.629L192.146 176.273C180.032 178.361 170.007 185.88 164.159 195.905L110.275 173.349C112.363 158.729 104.427 143.692 89.8072 137.844 72.6812 130.743 53.0489 138.679 45.9479 155.805 38.8469 172.931 46.7833 192.563 63.9093 199.664 78.1114 205.512 94.402 200.918 103.174 188.804L158.311 211.36C157.894 213.031 157.894 215.12 157.894 216.791 157.894 225.98 160.818 234.752 166.248 241.853L122.806 285.712C109.857 278.194 93.1489 279.864 82.2885 290.725 69.3395 303.674 69.3395 324.977 82.2885 337.926 95.2374 350.875 116.541 350.875 129.49 337.926 140.35 327.065 142.021 310.357 134.502 297.408L178.779 253.131C185.045 256.891 192.146 258.979 199.664 258.979 200.082 258.979 200.082 258.979 200.5 258.979 200.918 258.979 200.918 258.979 201.335 258.979 208.854 258.979 215.955 256.891 222.221 253.131L266.498 297.408C258.979 310.357 260.65 327.065 271.51 338.344 284.459 351.293 305.762 351.293 318.711 338.344 331.66 325.395 331.66 304.092 318.711 291.143 307.851 280.282 291.143 278.611 278.194 286.13L234.752 242.271C240.182 235.17 243.106 226.816 243.106 217.208 243.106 215.537 243.106 213.449 242.688 211.778L297.826 189.222C306.598 200.918 322.888 205.93 337.09 200.082 353.799 192.563 362.153 173.349 355.052 156.223Z" fill="#3A3A3A" transform="matrix(-1 0 0 1 1572 1592)"/></g></g></g></g></svg>