<svg width="4524" height="2264" xmlns="http://www.w3.org/2000/svg" xmlns:xlink="http://www.w3.org/1999/xlink" xml:space="preserve" overflow="hidden"><g transform="translate(62 -101)"><path d="M775.758 298.049C772.831 298.63 769.337 299.237 765.274 299.868 761.211 300.499 755.948 301.308 749.485 302.293 738.794 304.141 731.831 307.113 728.594 311.209 725.356 315.304 723.9 319.741 724.224 324.519 724.343 329.104 725.341 332.552 727.218 334.862 729.095 337.172 731.14 338.718 733.354 339.501 735.568 340.285 737.24 340.679 738.369 340.684 745.611 340.973 752.6 339.23 759.337 335.455 766.074 331.679 771.547 327.158 775.758 321.892ZM427.949 252.789C422.727 252.734 417.745 254.146 413.002 257.025 408.26 259.903 404.37 264.578 401.334 271.049 398.298 277.519 396.729 286.116 396.626 296.837 396.729 307.434 398.298 315.988 401.334 322.498 404.37 329.009 408.26 333.746 413.002 336.709 417.745 339.673 422.727 341.132 427.949 341.087 433.171 341.143 438.153 339.729 442.895 336.844 447.638 333.959 451.528 329.267 454.564 322.768 457.6 316.268 459.169 307.625 459.272 296.837 459.169 286.434 457.6 277.987 454.564 271.498 451.528 265.008 447.638 260.259 442.895 257.249 438.153 254.239 433.171 252.753 427.949 252.789ZM765.653 238.876C773.292 239.075 779.052 241.053 782.93 244.81 786.809 248.567 789.398 252.908 790.697 257.833 791.997 262.757 792.597 267.07 792.498 270.772L792.498 330.581C792.259 331.196 792.688 332.997 793.786 335.985 794.885 338.973 798.091 341.883 803.406 344.717L792.498 354.799C787.729 352.841 784.157 350.354 781.783 347.337 779.409 344.32 777.804 341.025 776.968 337.451 772.076 342.676 766.402 346.853 759.943 349.984 753.484 353.114 746.495 354.719 738.975 354.799 737.189 354.944 733.826 354.406 728.887 353.184 723.947 351.962 719.254 349.181 714.808 344.841 710.363 340.501 707.988 333.727 707.684 324.519 707.545 319.647 708.472 314.753 710.465 309.836 712.457 304.919 716.346 300.519 722.13 296.635 727.915 292.751 736.427 289.922 747.666 288.149 754.988 287.147 760.907 286.271 765.425 285.522 769.943 284.773 773.387 284.099 775.758 283.501L775.758 270.772C775.816 269.236 775.587 267.211 775.069 264.695 774.551 262.179 773.394 259.899 771.596 257.855 769.798 255.811 767.009 254.728 763.227 254.607 757.273 254.803 750.904 256.162 744.121 258.685 737.338 261.209 731.509 263.721 726.634 266.222 721.76 268.722 719.208 270.037 718.98 270.165 718.894 269.94 718.304 268.752 717.21 266.603 716.115 264.454 715.032 262.294 713.96 260.122 712.888 257.951 712.343 256.719 712.324 256.425 714.853 254.937 718.876 252.822 724.392 250.08 729.908 247.338 736.268 244.821 743.47 242.528 750.672 240.235 758.066 239.018 765.653 238.876ZM562.764 238.876C568.565 239.013 573.461 239.971 577.451 241.752 581.441 243.532 584.466 245.312 586.526 247.093 588.586 248.873 589.62 249.832 589.63 249.968L577.914 261.273C577.91 261.012 576.707 259.968 574.304 258.142 571.901 256.315 568.324 255.272 563.573 255.011 559.254 255.127 555.277 256.623 551.64 259.499 548.002 262.376 544.758 265.937 541.906 270.183 539.054 274.429 536.648 278.663 534.686 282.887L534.686 352.375 517.744 352.375 517.744 241.296 534.686 241.3 534.686 256.425C538.242 250.398 542.392 245.96 547.135 243.111 551.878 240.262 557.087 238.851 562.764 238.876ZM427.949 238.876C436.179 238.809 443.943 240.69 451.24 244.518 458.537 248.346 464.487 254.521 469.09 263.041 473.693 271.562 476.068 282.827 476.214 296.837 476.068 311.038 473.693 322.393 469.09 330.903 464.487 339.412 458.537 345.541 451.24 349.291 443.943 353.04 436.179 354.876 427.949 354.799 419.719 354.895 411.955 353.134 404.658 349.515 397.361 345.897 391.411 339.842 386.808 331.352 382.205 322.861 379.831 311.356 379.684 296.837 379.831 282.763 382.205 271.468 386.808 262.951 391.411 254.435 397.361 248.275 404.658 244.473 411.955 240.672 419.719 238.806 427.949 238.876ZM294.772 209.362C290.023 209.387 285.375 210.295 280.831 212.088 276.286 213.88 271.845 216.405 267.507 219.663L267.507 274.625C272.164 278.797 277.228 282.021 282.699 284.299 288.171 286.576 293.946 287.73 300.026 287.759 309.157 287.78 316.457 284.252 321.926 277.176 327.395 270.099 330.199 259.348 330.338 244.921 330.245 234.334 327.096 225.806 320.891 219.337 314.685 212.868 305.979 209.543 294.772 209.362ZM625.804 200.9 642.746 200.9 642.746 240.896 669.41 240.896 669.41 255.011 642.746 255.011 642.746 320.074C642.682 322.674 642.811 325.511 643.135 328.583 643.46 331.655 644.367 334.312 645.859 336.553 647.35 338.794 649.814 339.969 653.25 340.078 656.55 340.052 659.546 339.345 662.239 337.956 664.933 336.567 667.525 334.647 670.016 332.197L680.318 342.095C675.912 346.683 671.14 349.959 666.002 351.925 660.863 353.891 655.132 354.849 648.806 354.799 640.432 354.665 634.479 351.504 630.948 345.316 627.417 339.128 625.703 330.714 625.804 320.074L625.804 255.011 611.664 255.011 611.664 240.896 625.804 240.896ZM300.632 193.83C314.697 194.077 325.969 198.829 334.448 208.085 342.927 217.342 347.277 229.62 347.5 244.921 347.382 264.352 343.124 279.031 334.726 288.958 326.327 298.885 314.491 303.865 299.217 303.898 292.401 303.814 286.432 302.772 281.311 300.772 276.189 298.772 271.588 296.318 267.507 293.411L267.507 352.375 249.744 352.375 249.744 196.857 267.507 196.857 267.507 202.908C272.202 200.147 277.392 197.953 283.078 196.327 288.764 194.7 294.616 193.868 300.632 193.83ZM840.744 186.76 857.484 186.76 857.484 322.887C857.43 325.311 857.539 327.785 857.813 330.31 858.086 332.834 858.852 334.804 860.11 336.217 861.621 337.72 863.448 338.805 865.59 339.474 867.732 340.143 870.215 340.471 873.038 340.459L872.432 354.799C869.057 354.904 864.951 354.542 860.114 353.713 855.277 352.884 851.173 350.957 847.803 347.932 844.42 344.263 842.361 340.139 841.626 335.561 840.891 330.983 840.597 326.759 840.744 322.887Z" stroke="#333333" stroke-linejoin="round" stroke-miterlimit="10" fill="#3A3A3A" fill-rule="evenodd"/><text fill="#000000" fill-opacity="0" font-family="Arial,Arial_MSFontService,sans-serif" font-size="168.062" x="249.744" y="333.814">Portal </text><path d="M1017.88 255.415C1008.78 255.511 1001.58 259.308 996.285 266.806 990.993 274.303 988.29 284.92 988.176 298.656 988.252 309.146 990.323 318.07 994.39 325.429 998.457 332.787 1004.06 336.862 1011.21 337.654 1018.35 338.021 1024.6 336.701 1029.98 333.694 1035.37 330.687 1039.92 327.017 1043.64 322.686 1047.36 318.354 1050.29 314.385 1052.44 310.779L1052.44 273.802C1046.79 268.262 1040.96 263.834 1034.93 260.517 1028.91 257.199 1023.22 255.499 1017.88 255.415ZM1052.44 186.76 1069.38 186.76 1069.38 325.732C1069.29 325.883 1069.34 327.175 1069.55 329.607 1069.75 332.04 1070.67 334.708 1072.31 337.611 1073.95 340.515 1076.88 342.748 1081.1 344.311L1070.39 355.203C1063.65 352.488 1059.18 349.042 1057 344.864 1054.82 340.687 1053.64 336.936 1053.45 333.612 1048.09 339.772 1041.88 344.708 1034.83 348.419 1027.78 352.13 1019.91 353.988 1011.21 353.992 1002.95 353.788 995.812 351.146 989.788 346.067 983.763 340.987 979.107 334.291 975.821 325.979 972.536 317.667 970.872 308.559 970.83 298.656 970.984 279.634 975.214 264.947 983.519 254.596 991.825 244.245 1003.28 239.005 1017.88 238.876 1023.38 238.897 1029.06 240.216 1034.93 242.834 1040.81 245.452 1046.64 249.242 1052.44 254.204Z" stroke="#333333" stroke-linejoin="round" stroke-miterlimit="10" fill="#3A3A3A" fill-rule="evenodd"/><text fill="#000000" fill-opacity="0" font-family="Arial,Arial_MSFontService,sans-serif" font-size="168.443" x="970.83" y="334.147">d</text><path d="M1215.6 344.093C1210.76 346.754 1206.81 350.021 1203.76 353.895 1200.71 357.768 1199.14 363.865 1199.04 372.185 1199.15 376.135 1200.77 379.688 1203.9 382.844 1207.04 386 1211.02 388.505 1215.86 390.359 1219.49 391.749 1223.23 392.63 1227.08 393.001L1230.96 393.203 1235.9 392.975C1247.03 392.134 1255.46 389.137 1261.19 383.983 1267.73 378.092 1270.99 370.926 1270.95 362.484 1270.79 357.634 1268.62 353.951 1264.46 351.436 1260.3 348.921 1255.11 347.169 1248.91 346.181 1242.7 345.193 1236.45 344.564 1230.16 344.295 1228.21 344.286 1225.99 344.253 1223.49 344.194 1220.98 344.135 1218.36 344.101 1215.6 344.093ZM1549.56 298.049C1546.63 298.63 1543.14 299.237 1539.08 299.868 1535.01 300.499 1529.75 301.308 1523.29 302.293 1512.6 304.141 1505.63 307.113 1502.4 311.209 1499.16 315.304 1497.7 319.741 1498.03 324.519 1498.14 329.104 1499.14 332.552 1501.02 334.862 1502.9 337.172 1504.94 338.718 1507.16 339.501 1509.37 340.285 1511.04 340.679 1512.17 340.684 1519.41 340.973 1526.4 339.23 1533.14 335.455 1539.88 331.679 1545.35 327.158 1549.56 321.892ZM1230.16 251.387C1226.64 251.36 1222.81 252.088 1218.65 253.572 1214.49 255.056 1210.9 257.46 1207.86 260.784 1204.83 264.108 1203.23 268.517 1203.09 274.011 1203.23 281.577 1204.83 287.206 1207.86 290.897 1210.9 294.588 1214.49 296.999 1218.65 298.132 1222.81 299.264 1226.64 299.775 1230.16 299.665 1233.67 299.741 1237.48 299.095 1241.61 297.728 1245.73 296.36 1249.3 293.813 1252.3 290.089 1255.3 286.364 1256.88 281.005 1257.02 274.011 1256.88 268.517 1255.3 264.108 1252.3 260.784 1249.3 257.46 1245.73 255.056 1241.61 253.572 1237.48 252.088 1233.67 251.36 1230.16 251.387ZM1327.57 241.275 1344.31 241.275 1344.31 352.375 1327.57 352.375ZM1121.57 241.275 1138.31 241.275 1138.31 352.375 1121.57 352.375ZM1539.45 238.876C1547.09 239.075 1552.85 241.053 1556.73 244.81 1560.61 248.567 1563.2 252.908 1564.5 257.833 1565.8 262.757 1566.4 267.07 1566.3 270.772L1566.3 330.581C1566.06 331.196 1566.49 332.997 1567.59 335.985 1568.69 338.973 1571.89 341.883 1577.21 344.717L1566.3 354.799C1561.53 352.841 1557.96 350.354 1555.59 347.337 1553.21 344.32 1551.61 341.025 1550.77 337.451 1545.88 342.676 1540.2 346.853 1533.75 349.984 1527.29 353.114 1520.3 354.719 1512.78 354.799 1510.99 354.944 1507.63 354.406 1502.69 353.184 1497.75 351.962 1493.06 349.181 1488.61 344.841 1484.16 340.501 1481.79 333.727 1481.49 324.519 1481.35 319.647 1482.27 314.753 1484.27 309.836 1486.26 304.919 1490.15 300.519 1495.93 296.635 1501.72 292.751 1510.23 289.922 1521.47 288.149 1528.79 287.147 1534.71 286.271 1539.23 285.522 1543.75 284.773 1547.19 284.099 1549.56 283.501L1549.56 270.772C1549.62 269.236 1549.39 267.211 1548.87 264.695 1548.35 262.179 1547.2 259.899 1545.4 257.855 1543.6 255.811 1540.81 254.728 1537.03 254.607 1531.08 254.803 1524.71 256.162 1517.92 258.685 1511.14 261.209 1505.31 263.721 1500.44 266.222 1495.56 268.722 1493.01 270.037 1492.78 270.165 1492.7 269.94 1492.11 268.752 1491.01 266.603 1489.92 264.454 1488.83 262.294 1487.76 260.122 1486.69 257.951 1486.15 256.719 1486.13 256.425 1488.66 254.937 1492.68 252.822 1498.19 250.08 1503.71 247.338 1510.07 244.821 1517.27 242.528 1524.47 240.235 1531.87 239.018 1539.45 238.876ZM1274.2 228.372C1276.13 228.38 1278.12 228.565 1280.17 228.927 1282.23 229.289 1284.27 229.777 1286.3 230.392L1283.48 244.52C1282.26 244.117 1280.86 243.814 1279.29 243.613 1277.72 243.411 1276.02 243.31 1274.2 243.31 1271.35 243.319 1268.52 243.604 1265.72 244.167 1262.91 244.73 1260.29 245.52 1257.84 246.536 1262.39 249.343 1266.16 253.011 1269.15 257.54 1272.14 262.07 1273.69 267.56 1273.8 274.011 1273.56 284.598 1271.02 292.69 1266.16 298.285 1261.31 303.881 1255.53 307.692 1248.83 309.718 1242.14 311.745 1235.91 312.699 1230.16 312.581 1228.32 312.589 1226.38 312.522 1224.32 312.379 1222.26 312.236 1220.16 311.967 1218.03 311.573 1214.7 313.927 1211.91 316.497 1209.64 319.282 1207.38 322.068 1206.2 324.892 1206.11 327.753 1206.76 328.215 1208.73 328.55 1211.99 328.757 1215.25 328.965 1218.7 329.105 1222.32 329.177 1225.94 329.249 1228.62 329.314 1230.36 329.372 1239.4 329.728 1248.28 330.809 1256.99 332.615 1265.71 334.421 1272.95 337.641 1278.73 342.275 1284.5 346.909 1287.49 353.645 1287.71 362.484 1287.73 370.744 1285.72 378.294 1281.66 385.134 1277.61 391.974 1271.39 397.455 1263 401.578 1254.61 405.701 1243.94 407.816 1230.96 407.925 1222.35 407.843 1214.39 406.191 1207.08 402.97 1199.77 399.749 1193.88 395.451 1189.4 390.074 1184.92 384.697 1182.62 378.734 1182.5 372.185 1182.69 363.541 1184.33 356.981 1187.42 352.507 1190.51 348.033 1194.52 344.155 1199.45 340.873 1196.55 339.695 1194.12 338.062 1192.18 335.975 1190.23 333.887 1189.22 331.144 1189.15 327.743L1189.15 327.753C1189.24 324.183 1190.62 320.602 1193.29 317.008 1195.95 313.415 1199.35 309.991 1203.48 306.734 1198.7 304.189 1194.68 300.303 1191.42 295.077 1188.16 289.85 1186.46 282.829 1186.33 274.012 1186.56 265.621 1189.12 258.806 1194.01 253.567 1198.89 248.328 1204.7 244.492 1211.43 242.06 1218.16 239.628 1224.4 238.426 1230.16 238.455 1232.19 238.454 1234.34 238.606 1236.62 238.911 1238.9 239.215 1241.26 239.673 1243.69 240.286 1247.92 236.522 1252.7 233.602 1258.04 231.528 1263.38 229.453 1268.76 228.401 1274.2 228.372ZM1399.61 200.9 1416.55 200.9 1416.55 240.896 1443.21 240.896 1443.21 255.011 1416.55 255.011 1416.55 320.074C1416.48 322.674 1416.61 325.511 1416.94 328.583 1417.26 331.655 1418.17 334.311 1419.66 336.553 1421.15 338.794 1423.62 339.969 1427.05 340.078 1430.35 340.052 1433.35 339.345 1436.04 337.956 1438.73 336.567 1441.33 334.647 1443.82 332.197L1454.12 342.095C1449.71 346.683 1444.94 349.959 1439.8 351.925 1434.67 353.891 1428.93 354.849 1422.61 354.799 1414.23 354.665 1408.28 351.504 1404.75 345.316 1401.22 339.128 1399.5 330.714 1399.61 320.074L1399.61 255.011 1385.47 255.011 1385.47 240.896 1399.61 240.896ZM1336.04 196.86C1339.02 196.923 1341.47 197.906 1343.38 199.81 1345.28 201.714 1346.26 204.161 1346.33 207.149 1346.26 210.234 1345.28 212.739 1343.38 214.665 1341.47 216.59 1339.02 217.582 1336.04 217.641 1332.95 217.582 1330.45 216.59 1328.52 214.665 1326.6 212.739 1325.6 210.234 1325.55 207.149 1325.6 204.161 1326.6 201.714 1328.52 199.81 1330.45 197.906 1332.95 196.923 1336.04 196.86ZM1130.04 196.86C1133.02 196.923 1135.47 197.906 1137.38 199.81 1139.28 201.714 1140.26 204.161 1140.33 207.149 1140.26 210.234 1139.28 212.739 1137.38 214.665 1135.47 216.59 1133.02 217.582 1130.04 217.641 1126.95 217.582 1124.45 216.59 1122.52 214.665 1120.6 212.739 1119.6 210.234 1119.55 207.149 1119.6 204.161 1120.6 201.714 1122.52 199.81 1124.45 197.906 1126.95 196.923 1130.04 196.86ZM1614.55 186.76 1631.29 186.76 1631.29 322.887C1631.23 325.311 1631.34 327.785 1631.61 330.31 1631.89 332.834 1632.65 334.804 1633.91 336.217 1635.42 337.72 1637.25 338.805 1639.39 339.474 1641.53 340.143 1644.02 340.471 1646.84 340.459L1646.23 354.799C1642.86 354.904 1638.75 354.542 1633.92 353.713 1629.08 352.884 1624.98 350.957 1621.6 347.932 1618.22 344.263 1616.16 340.139 1615.43 335.561 1614.69 330.983 1614.4 326.759 1614.55 322.887Z" stroke="#333333" stroke-linejoin="round" stroke-miterlimit="10" fill="#3A3A3A" fill-rule="evenodd"/><text fill="#000000" fill-opacity="0" font-family="Arial,Arial_MSFontService,sans-serif" font-size="221.165" x="1119.55" y="380.279">igital </text><path d="M1791.89 255.415C1782.79 255.511 1775.59 259.308 1770.3 266.806 1765 274.303 1762.3 284.92 1762.19 298.656 1762.26 309.146 1764.33 318.07 1768.4 325.429 1772.47 332.787 1778.08 336.862 1785.22 337.654 1792.36 338.021 1798.61 336.701 1803.99 333.694 1809.38 330.687 1813.93 327.017 1817.65 322.686 1821.37 318.354 1824.3 314.385 1826.45 310.779L1826.45 273.802C1820.8 268.262 1814.97 263.834 1808.94 260.517 1802.92 257.199 1797.23 255.499 1791.89 255.415ZM1935.49 253.395C1928.03 253.576 1921.94 256.247 1917.21 261.406 1912.48 266.566 1909.01 273.129 1906.8 281.094L1963.16 281.094C1962.6 277.187 1961.34 273.116 1959.4 268.88 1957.45 264.645 1954.55 261.038 1950.7 258.06 1946.84 255.083 1941.77 253.528 1935.49 253.395ZM1935.49 238.876C1945.75 239.071 1953.91 241.269 1959.96 245.469 1966.02 249.669 1970.51 254.701 1973.44 260.564 1976.36 266.427 1978.27 271.95 1979.15 277.134 1980.03 282.317 1980.42 285.99 1980.33 288.152L1980.33 296.017 1904.58 296.017C1904.12 309.356 1906.61 320.018 1912.03 328.001 1917.45 335.984 1925.54 340.077 1936.29 340.279 1938.28 340.411 1940.98 340.214 1944.39 339.688 1947.8 339.161 1951.74 337.512 1956.21 334.739 1960.68 331.967 1965.49 327.279 1970.63 320.675L1980.94 330.578C1974.18 338.757 1967.94 344.558 1962.23 347.981 1956.51 351.405 1951.45 353.438 1947.06 354.081 1942.67 354.724 1939.08 354.963 1936.29 354.799 1925.52 354.663 1916.55 352.018 1909.37 346.865 1902.19 341.711 1896.81 334.862 1893.22 326.318 1889.63 317.773 1887.84 308.346 1887.84 298.038 1887.89 287.136 1889.85 277.236 1893.73 268.339 1897.6 259.443 1903.1 252.341 1910.21 247.034 1917.31 241.727 1925.74 239.008 1935.49 238.876ZM1826.45 186.76 1843.39 186.76 1843.39 325.732C1843.3 325.883 1843.35 327.175 1843.56 329.607 1843.76 332.04 1844.68 334.708 1846.32 337.611 1847.97 340.515 1850.89 342.748 1855.11 344.311L1844.4 355.203C1837.66 352.488 1833.19 349.042 1831.01 344.864 1828.83 340.687 1827.65 336.936 1827.46 333.612 1822.1 339.772 1815.89 344.708 1808.84 348.419 1801.79 352.13 1793.92 353.988 1785.22 353.992 1776.96 353.788 1769.82 351.146 1763.8 346.067 1757.77 340.987 1753.12 334.291 1749.83 325.979 1746.55 317.667 1744.88 308.559 1744.84 298.656 1744.99 279.634 1749.22 264.947 1757.53 254.596 1765.84 244.245 1777.29 239.005 1791.89 238.876 1797.39 238.897 1803.07 240.216 1808.94 242.834 1814.82 245.452 1820.65 249.242 1826.45 254.204Z" stroke="#333333" stroke-linejoin="round" stroke-miterlimit="10" fill="#3A3A3A" fill-rule="evenodd"/><text fill="#000000" fill-opacity="0" font-family="Arial,Arial_MSFontService,sans-serif" font-size="168.443" x="1744.84" y="334.147">de </text><path d="M2123.18 238.876C2130.51 238.922 2137.17 240.09 2143.16 242.379 2149.15 244.669 2154.14 247.803 2158.12 251.781L2147.23 262.285C2144.55 259.423 2141.12 257.166 2136.95 255.516 2132.78 253.866 2128.19 253.024 2123.18 252.991 2121.11 252.931 2118.63 253.342 2115.75 254.225 2112.88 255.108 2110.33 256.822 2108.1 259.367 2105.88 261.911 2104.71 265.645 2104.59 270.57 2104.81 275.187 2107.19 278.681 2111.71 281.051 2116.23 283.421 2121.54 285.45 2127.63 287.138 2133.75 288.843 2139.6 290.889 2145.2 293.275 2150.8 295.661 2155.4 299.069 2159 303.498 2162.6 307.927 2164.46 314.058 2164.58 321.892 2164.46 329.357 2162.53 335.522 2158.78 340.388 2155.03 345.255 2150.2 348.875 2144.27 351.25 2138.35 353.625 2132.06 354.808 2125.4 354.799 2117.02 354.803 2108.93 352.929 2101.11 349.176 2093.3 345.423 2086.92 339.763 2081.99 332.197L2093.69 322.701C2096.87 328.299 2101.36 332.66 2107.17 335.784 2112.98 338.907 2119.19 340.541 2125.81 340.684 2131.59 340.696 2136.65 339.156 2140.99 336.062 2145.33 332.968 2147.62 328.245 2147.84 321.892 2147.54 316.273 2144.85 312.055 2139.78 309.238 2134.71 306.422 2129.04 304.174 2122.78 302.495 2117 300.896 2111.47 298.93 2106.17 296.598 2100.88 294.265 2096.53 291.057 2093.13 286.974 2089.72 282.89 2087.96 277.422 2087.84 270.57 2088.08 261.661 2090.34 254.913 2094.63 250.328 2098.91 245.742 2103.79 242.66 2109.26 241.08 2114.73 239.501 2119.37 238.766 2123.18 238.876Z" stroke="#333333" stroke-linejoin="round" stroke-miterlimit="10" fill="#3A3A3A" fill-rule="evenodd"/><text fill="#000000" fill-opacity="0" font-family="Arial,Arial_MSFontService,sans-serif" font-size="115.934" x="2081.99" y="340.307">s</text><path d="M2246.81 253.395C2239.35 253.576 2233.26 256.247 2228.53 261.406 2223.8 266.566 2220.33 273.129 2218.13 281.094L2274.48 281.094C2273.92 277.187 2272.67 273.116 2270.72 268.88 2268.77 264.645 2265.87 261.038 2262.02 258.06 2258.17 255.083 2253.1 253.528 2246.81 253.395ZM2849.43 252.789C2844.21 252.734 2839.22 254.146 2834.48 257.025 2829.74 259.903 2825.85 264.578 2822.81 271.049 2819.78 277.519 2818.21 286.116 2818.11 296.837 2818.21 307.434 2819.78 315.988 2822.81 322.498 2825.85 329.009 2829.74 333.746 2834.48 336.709 2839.22 339.673 2844.21 341.132 2849.43 341.087 2854.65 341.143 2859.63 339.729 2864.37 336.844 2869.12 333.959 2873.01 329.267 2876.04 322.768 2879.08 316.268 2880.65 307.625 2880.75 296.837 2880.65 286.434 2879.08 277.987 2876.04 271.498 2873.01 265.008 2869.12 260.259 2864.37 257.249 2859.63 254.239 2854.65 252.753 2849.43 252.789ZM2422.27 241.3 2441.87 241.3 2470.75 327.13 2471.36 330.967C2471.46 331.287 2471.56 330.85 2471.66 329.655 2471.76 328.46 2471.86 327.618 2471.96 327.13 2475.11 315.296 2478.78 303.151 2482.98 290.696 2487.17 278.241 2491.19 267.413 2495.02 258.212 2498.86 249.01 2501.81 243.373 2503.88 241.3L2522.26 241.3C2519.06 244.921 2515.56 250.943 2511.76 259.366 2507.96 267.789 2504.17 277.242 2500.38 287.727 2496.6 298.211 2493.13 308.356 2489.97 318.162 2486.82 327.968 2484.29 336.064 2482.38 342.451 2480.47 348.839 2479.49 352.146 2479.44 352.375L2464.69 352.375ZM2741.24 241.275 2757.98 241.275 2757.98 352.375 2741.24 352.375ZM2557.24 241.275 2573.98 241.275 2573.98 352.375 2557.24 352.375ZM2970.34 238.876C2977.67 238.922 2984.33 240.09 2990.32 242.379 2996.3 244.669 3001.29 247.803 3005.28 251.781L2994.39 262.285C2991.71 259.423 2988.28 257.166 2984.11 255.516 2979.93 253.866 2975.34 253.024 2970.34 252.991 2968.26 252.931 2965.79 253.342 2962.91 254.225 2960.03 255.108 2957.48 256.822 2955.26 259.367 2953.04 261.911 2951.86 265.645 2951.74 270.57 2951.97 275.187 2954.34 278.681 2958.87 281.051 2963.39 283.421 2968.69 285.45 2974.78 287.138 2980.9 288.843 2986.76 290.889 2992.36 293.275 2997.96 295.661 3002.55 299.069 3006.15 303.498 3009.75 307.927 3011.61 314.058 3011.74 321.892 3011.61 329.357 3009.68 335.522 3005.94 340.388 3002.19 345.255 2997.35 348.875 2991.43 351.25 2985.51 353.625 2979.22 354.808 2972.56 354.799 2964.18 354.803 2956.08 352.929 2948.27 349.176 2940.46 345.423 2934.08 339.763 2929.14 332.197L2940.85 322.701C2944.03 328.299 2948.52 332.66 2954.33 335.784 2960.13 338.907 2966.34 340.541 2972.96 340.684 2978.75 340.696 2983.81 339.156 2988.15 336.062 2992.49 332.968 2994.77 328.245 2994.99 321.892 2994.7 316.273 2992.01 312.055 2986.94 309.238 2981.86 306.422 2976.19 304.174 2969.93 302.495 2964.16 300.896 2958.62 298.93 2953.33 296.598 2948.04 294.265 2943.69 291.057 2940.28 286.974 2936.88 282.89 2935.12 277.422 2935 270.57 2935.24 261.661 2937.5 254.913 2941.78 250.328 2946.06 245.742 2950.94 242.66 2956.41 241.08 2961.89 239.501 2966.53 238.766 2970.34 238.876ZM2849.43 238.876C2857.66 238.809 2865.42 240.69 2872.72 244.518 2880.02 248.346 2885.97 254.521 2890.57 263.041 2895.17 271.562 2897.55 282.827 2897.69 296.837 2897.55 311.038 2895.17 322.393 2890.57 330.903 2885.97 339.412 2880.02 345.541 2872.72 349.291 2865.42 353.04 2857.66 354.876 2849.43 354.799 2841.2 354.895 2833.43 353.134 2826.14 349.515 2818.84 345.897 2812.89 339.842 2808.29 331.352 2803.68 322.861 2801.31 311.356 2801.16 296.837 2801.31 282.763 2803.68 271.468 2808.29 262.951 2812.89 254.435 2818.84 248.275 2826.14 244.473 2833.43 240.672 2841.2 238.806 2849.43 238.876ZM2664.81 238.876C2672.42 239.095 2678.75 240.629 2683.8 243.478 2688.86 246.327 2692.65 249.176 2695.17 252.025 2697.69 254.874 2698.95 256.408 2698.95 256.627L2688.24 266.73C2688.26 266.573 2687.46 265.473 2685.83 263.43 2684.21 261.387 2681.64 259.345 2678.13 257.302 2674.62 255.259 2670.04 254.159 2664.41 254.002 2659.64 253.995 2654.96 255.626 2650.36 258.896 2645.75 262.166 2641.92 267.12 2638.86 273.758 2635.81 280.395 2634.22 288.762 2634.11 298.858 2634.21 310.291 2636.87 319.905 2642.08 327.701 2647.29 335.496 2654.4 339.554 2663.4 339.874 2667.23 340.051 2671.23 339.344 2675.41 337.753 2679.6 336.163 2684.61 332.627 2690.46 327.146L2700.97 337.249C2693.06 345.129 2686.1 350.096 2680.06 352.151 2674.03 354.206 2668.47 355.089 2663.4 354.799 2654.05 354.692 2645.92 352.192 2639.02 347.3 2632.12 342.408 2626.76 335.765 2622.95 327.37 2619.15 318.976 2617.22 309.472 2617.16 298.858 2617.35 284.949 2619.87 273.569 2624.71 264.717 2629.56 255.865 2635.6 249.337 2642.85 245.132 2650.1 240.927 2657.42 238.842 2664.81 238.876ZM2380.24 238.876C2386.04 239.013 2390.94 239.971 2394.93 241.752 2398.92 243.532 2401.94 245.312 2404 247.093 2406.06 248.873 2407.1 249.832 2407.11 249.968L2395.39 261.273C2395.39 261.012 2394.19 259.968 2391.78 258.142 2389.38 256.315 2385.8 255.272 2381.05 255.011 2376.73 255.127 2372.76 256.623 2369.12 259.499 2365.48 262.376 2362.24 265.937 2359.39 270.183 2356.53 274.429 2354.13 278.663 2352.17 282.887L2352.17 352.375 2335.22 352.375 2335.22 241.296 2352.17 241.3 2352.17 256.425C2355.72 250.398 2359.87 245.96 2364.61 243.111 2369.36 240.262 2374.57 238.851 2380.24 238.876ZM2246.81 238.876C2257.07 239.071 2265.23 241.269 2271.29 245.469 2277.34 249.669 2281.83 254.701 2284.76 260.564 2287.69 266.427 2289.59 271.95 2290.47 277.134 2291.35 282.317 2291.74 285.99 2291.65 288.152L2291.65 296.017 2215.9 296.017C2215.45 309.356 2217.93 320.018 2223.35 328.001 2228.78 335.984 2236.87 340.077 2247.62 340.279 2249.6 340.411 2252.3 340.214 2255.71 339.688 2259.13 339.161 2263.07 337.512 2267.53 334.739 2272 331.967 2276.81 327.279 2281.96 320.675L2292.26 330.578C2285.5 338.757 2279.27 344.558 2273.55 347.981 2267.83 351.405 2262.78 353.438 2258.38 354.081 2253.99 354.724 2250.4 354.963 2247.62 354.799 2236.84 354.663 2227.87 352.018 2220.69 346.865 2213.51 341.711 2208.13 334.862 2204.54 326.318 2200.96 317.773 2199.16 308.346 2199.16 298.038 2199.21 287.136 2201.18 277.236 2205.05 268.339 2208.93 259.443 2214.42 252.341 2221.53 247.034 2228.64 241.727 2237.06 239.008 2246.81 238.876ZM2749.71 196.86C2752.7 196.923 2755.15 197.906 2757.05 199.81 2758.96 201.714 2759.94 204.161 2760 207.149 2759.94 210.234 2758.96 212.739 2757.05 214.665 2755.15 216.59 2752.7 217.582 2749.71 217.641 2746.63 217.582 2744.12 216.59 2742.2 214.665 2740.27 212.739 2739.28 210.234 2739.22 207.149 2739.28 204.161 2740.27 201.714 2742.2 199.81 2744.12 197.906 2746.63 196.923 2749.71 196.86ZM2565.71 196.86C2568.7 196.923 2571.15 197.906 2573.05 199.81 2574.96 201.714 2575.94 204.161 2576 207.149 2575.94 210.234 2574.96 212.739 2573.05 214.665 2571.15 216.59 2568.7 217.582 2565.71 217.641 2562.63 217.582 2560.12 216.59 2558.2 214.665 2556.27 212.739 2555.28 210.234 2555.22 207.149 2555.28 204.161 2556.27 201.714 2558.2 199.81 2560.12 197.906 2562.63 196.923 2565.71 196.86Z" stroke="#333333" stroke-linejoin="round" stroke-miterlimit="10" fill="#3A3A3A" fill-rule="evenodd"/><text fill="#000000" fill-opacity="0" font-family="Arial,Arial_MSFontService,sans-serif" font-size="157.993" x="2199.16" y="335.103">ervicios</text><g><g><g><path d="M364.515 284.499 62.2343 284.499 62.2343 88.9061 364.515 88.9061 364.515 284.499ZM373.406 62.2343 53.3437 62.2343C43.564 62.2343 35.5624 70.2358 35.5624 80.0155L35.5624 293.39C35.5624 303.17 43.564 311.171 53.3437 311.171L177.812 311.171 177.812 337.843 133.359 337.843 133.359 364.515 293.39 364.515 293.39 337.843 248.937 337.843 248.937 311.171 373.406 311.171C383.185 311.171 391.187 303.17 391.187 293.39L391.187 80.0155C391.187 70.2358 383.185 62.2343 373.406 62.2343Z" fill="#3A3A3A" transform="matrix(1.00059 0 0 1 1650 83.8244)"/></g></g></g><path d="M0 65.0002 32.5001 0 116.5 0 149 65.0002 116.5 130 32.5001 130Z" fill="#D9D9D9" fill-rule="evenodd" transform="matrix(-1 0 0 1 4027 1019)"/><path d="M0 138 69.0002 0 249 0 318 138 249 276 69.0002 276Z" fill="#D9D9D9" fill-rule="evenodd" fill-opacity="0.501961" transform="matrix(-1 0 0 1 3410 946)"/><path d="M0 307.001 153.5 0 552.5 0 706 307.001 552.5 614 153.5 614Z" fill="#D9D9D9" fill-rule="evenodd" fill-opacity="0.4" transform="matrix(-1 0 0 1 2902 777)"/><path d="M0 138.5 69.2498 0 248.75 0 318 138.5 248.75 277 69.2498 277Z" fill="#D9D9D9" fill-rule="evenodd" fill-opacity="0.501961" transform="matrix(-1 0 0 1 4462 1530)"/><path d="M0 138.5 69.2498 0 248.75 0 318 138.5 248.75 277 69.2498 277Z" fill="#D9D9D9" fill-rule="evenodd" transform="matrix(-1 0 0 1 3059 1920)"/><path d="M0 195 97.4998 0 350.5 0 448 195 350.5 390 97.4998 390Z" fill="#D9D9D9" fill-rule="evenodd" fill-opacity="0.501961" transform="matrix(-1 0 0 1 2072 889)"/><path d="M0 307 153.5 0 553.5 0 707 307 553.5 614 153.5 614Z" fill="#D9D9D9" fill-rule="evenodd" fill-opacity="0.4" transform="matrix(-1 0 0 1 2552 1751)"/><path d="M0 65.0002 32.5001 0 116.5 0 149 65.0002 116.5 130 32.5001 130Z" fill="#D9D9D9" fill-rule="evenodd" fill-opacity="0.501961" transform="matrix(-1 0 0 1 3676 824)"/><path d="M0 138.5 69.2498 0 248.75 0 318 138.5 248.75 277 69.2498 277Z" fill="#D9D9D9" fill-rule="evenodd" fill-opacity="0.8" transform="matrix(-1 0 0 1 3761 1530)"/><path d="M0 138.5 69.2498 0 248.75 0 318 138.5 248.75 277 69.2498 277Z" fill="#D9D9D9" fill-rule="evenodd" fill-opacity="0.501961" transform="matrix(-1 0 0 1 3059 1140)"/><path d="M0 65 32.5 0 116.5 0 149 65 116.5 130 32.5 130Z" fill="#D9D9D9" fill-rule="evenodd" transform="matrix(-1 0 0 1 1922 1409)"/><path d="M0 138 69.0001 0 250 0 319 138 250 276 69.0001 276Z" fill="#D9D9D9" fill-rule="evenodd" fill-opacity="0.501961" transform="matrix(-1 0 0 1 2358 751)"/><path d="M0 138.5 69.2499 0 249.75 0 319 138.5 249.75 277 69.2499 277Z" fill="#D9D9D9" fill-rule="evenodd" transform="matrix(-1 0 0 1 4112 1725)"/><path d="M0 229.49 114.745 0 413.255 0 528 229.49 413.255 458.98 114.745 458.98Z" fill="#D9D9D9" fill-rule="evenodd" fill-opacity="0.8" transform="matrix(-1 0 0 1 3866 1049)"/><g><g><g><path d="M219.985 194.513 187.823 162.351C183.449 157.977 177.531 156.433 171.871 157.463L160.55 146.142C170.585 133.277 176.502 116.811 176.502 99.3146 176.502 56.8615 141.768 22.1271 99.3146 22.1271 56.8615 22.1271 22.1271 56.8615 22.1271 99.3146 22.1271 141.768 56.8615 176.502 99.3146 176.502 116.811 176.502 133.02 170.585 146.142 160.55L157.463 171.871C156.433 177.531 157.977 183.449 162.351 187.823L194.513 219.985C198.115 223.587 202.746 225.388 207.377 225.388 212.008 225.388 216.64 223.587 220.242 219.985 226.931 212.78 226.931 201.46 219.985 194.513ZM99.0574 160.807C65.0948 160.807 37.3073 133.02 37.3073 99.0574 37.3073 65.0948 65.0948 37.3073 99.0574 37.3073 133.02 37.3073 160.807 65.0948 160.807 99.0574 160.807 133.02 133.02 160.807 99.0574 160.807Z" fill="#3A3A3A" transform="matrix(-1 0 0 1.00405 3723 1155)"/></g></g></g><path d="M0 229.5 114.75 0 412.25 0 527 229.5 412.25 459 114.75 459Z" fill="#D9D9D9" fill-rule="evenodd" fill-opacity="0.8" transform="matrix(-1 0 0 1 2462 1439)"/><g><g><g><path d="M2084.83 1782.18 2312.2 1782.18 2312.2 1762.12 2104.89 1762.12 2104.89 1554.81 2084.83 1554.81 2084.83 1782.18Z" fill="#3A3A3A"/><path d="M2124.95 1715.31 2158.39 1715.31 2158.39 1742.05 2124.95 1742.05Z" fill="#3A3A3A"/><path d="M2171.77 1695.25 2205.2 1695.25 2205.2 1742.05 2171.77 1742.05Z" fill="#3A3A3A"/><path d="M2218.58 1658.46 2252.02 1658.46 2252.02 1742.05 2218.58 1742.05Z" fill="#3A3A3A"/><path d="M2265.39 1584.9 2298.83 1584.9 2298.83 1742.05 2265.39 1742.05Z" fill="#3A3A3A"/><path d="M2212.87 1606.97C2215.91 1606.99 2218.39 1604.54 2218.41 1601.49 2218.43 1598.45 2215.98 1595.97 2212.94 1595.96 2211.58 1595.95 2210.27 1596.44 2209.25 1597.35L2196.98 1601.44C2195.94 1599.26 2194.65 1597.22 2193.14 1595.35L2202.75 1584.06C2202.86 1584.07 2202.97 1584.09 2203.09 1584.09 2207.59 1584.2 2211.32 1580.64 2211.43 1576.14 2211.53 1571.64 2207.97 1567.91 2203.48 1567.8 2198.98 1567.69 2195.24 1571.26 2195.13 1575.75 2195.12 1576.3 2195.16 1576.85 2195.26 1577.39L2185.59 1588.74C2182.14 1586.59 2178.29 1585.15 2174.28 1584.51L2174.05 1577.46C2175.81 1574.58 2174.91 1570.81 2172.03 1569.05 2169.15 1567.28 2165.38 1568.19 2163.62 1571.07 2162.28 1573.26 2162.44 1576.05 2164.04 1578.06L2164.25 1584.57C2160.08 1585.28 2156.1 1586.85 2152.57 1589.18L2146.09 1582.11C2146.15 1581.76 2146.19 1581.4 2146.2 1581.04 2146.2 1576.65 2142.64 1573.08 2138.25 1573.08 2133.86 1573.08 2130.3 1576.64 2130.3 1581.04 2130.3 1585.43 2133.86 1588.99 2138.25 1588.99 2138.25 1588.99 2138.25 1588.99 2138.25 1588.99 2138.42 1588.99 2138.57 1588.95 2138.74 1588.94L2145.24 1596.03C2141.98 1600.26 2139.88 1605.27 2139.17 1610.56L2133.06 1610.4C2130.36 1607.83 2126.09 1607.94 2123.53 1610.64 2120.96 1613.33 2121.07 1617.6 2123.77 1620.16 2126.26 1622.53 2130.14 1622.65 2132.77 1620.42L2139.45 1620.6C2140.12 1624 2141.37 1627.26 2143.15 1630.23L2131.04 1639.22C2127.01 1638.81 2123.42 1641.73 2123 1645.75 2122.59 1649.78 2125.52 1653.37 2129.54 1653.79 2133.56 1654.2 2137.16 1651.27 2137.57 1647.25 2137.59 1647.11 2137.6 1646.97 2137.6 1646.84L2149.61 1637.93C2152.53 1640.42 2155.9 1642.34 2159.54 1643.59L2157.2 1652.02C2152.78 1653.79 2150.64 1658.81 2152.41 1663.22 2154.17 1667.63 2159.19 1669.78 2163.6 1668.01 2168.01 1666.24 2170.16 1661.23 2168.39 1656.82 2168.04 1655.94 2167.55 1655.13 2166.94 1654.42L2169.49 1645.26C2173.52 1645.26 2177.51 1644.46 2181.24 1642.9L2188.63 1654.52C2187.99 1658.17 2190.43 1661.66 2194.08 1662.31 2197.74 1662.95 2201.23 1660.51 2201.87 1656.85 2202.46 1653.49 2200.44 1650.21 2197.16 1649.24L2189.71 1637.54C2192.58 1634.99 2194.95 1631.93 2196.69 1628.51L2205.81 1631.34C2207.64 1634.57 2211.74 1635.7 2214.96 1633.87 2218.18 1632.04 2219.31 1627.95 2217.48 1624.73 2215.81 1621.77 2212.19 1620.54 2209.06 1621.85L2199.7 1618.94C2200.1 1616.34 2200.14 1613.69 2199.8 1611.07L2212.29 1606.91C2212.48 1606.94 2212.68 1606.96 2212.87 1606.97ZM2167 1629.36C2164.97 1629.36 2163.33 1627.71 2163.33 1625.69 2163.33 1623.66 2164.97 1622.02 2167 1622.02 2169.02 1622.02 2170.67 1623.66 2170.67 1625.69 2170.67 1627.71 2169.03 1629.36 2167 1629.36ZM2174.95 1613.45C2172.58 1613.45 2170.67 1611.54 2170.67 1609.17 2170.67 1606.81 2172.58 1604.89 2174.95 1604.89 2177.31 1604.89 2179.23 1606.81 2179.23 1609.17 2179.23 1609.17 2179.23 1609.17 2179.23 1609.17 2179.23 1611.54 2177.31 1613.45 2174.95 1613.45ZM2182.29 1629.36C2179.93 1629.36 2178.01 1627.44 2178.01 1625.08 2178.01 1622.71 2179.93 1620.79 2182.29 1620.79 2184.65 1620.79 2186.57 1622.71 2186.57 1625.08 2186.57 1625.08 2186.57 1625.08 2186.57 1625.08 2186.57 1627.44 2184.65 1629.36 2182.29 1629.36Z" fill="#3A3A3A"/></g></g></g><path d="M0 229.5 114.75 0 412.25 0 527 229.5 412.25 459 114.75 459Z" fill="#D9D9D9" fill-rule="evenodd" fill-opacity="0.8" transform="matrix(-1 0 0 1 4216 1244)"/><g><g><g><path d="M79.7604 64.3229 149.229 64.3229 149.229 74.6145 79.7604 74.6145Z" fill="#3A3A3A" transform="matrix(1 0 0 1 3831 1350)"/><path d="M105.49 102.917 149.229 102.917 149.229 113.208 105.49 113.208Z" fill="#3A3A3A" transform="matrix(1 0 0 1 3831 1350)"/><path d="M79.7604 102.917 92.6249 102.917 92.6249 113.208 79.7604 113.208Z" fill="#3A3A3A" transform="matrix(1 0 0 1 3831 1350)"/><path d="M105.49 128.646 149.229 128.646 149.229 138.937 105.49 138.937Z" fill="#3A3A3A" transform="matrix(1 0 0 1 3831 1350)"/><path d="M79.7604 128.646 92.6249 128.646 92.6249 138.937 79.7604 138.937Z" fill="#3A3A3A" transform="matrix(1 0 0 1 3831 1350)"/><path d="M105.49 154.375 149.229 154.375 149.229 164.667 105.49 164.667Z" fill="#3A3A3A" transform="matrix(1 0 0 1 3831 1350)"/><path d="M79.7604 154.375 92.6249 154.375 92.6249 164.667 79.7604 164.667Z" fill="#3A3A3A" transform="matrix(1 0 0 1 3831 1350)"/><path d="M20.5833 187.823 20.5833 223.844 208.406 223.844 208.406 187.823 182.677 187.823 182.677 95.1978 223.844 95.1978 223.844 51.4583C223.844 35.7635 211.236 23.1562 195.542 23.1562L74.6145 23.1562C58.9197 23.1562 46.3125 35.7635 46.3125 51.4583L46.3125 187.823 20.5833 187.823ZM170.327 38.5937C168.269 42.4531 167.239 47.0843 167.239 51.4583L167.239 200.687 61.75 200.687 61.75 51.4583C61.75 44.2541 67.4104 38.5937 74.6145 38.5937L170.327 38.5937ZM182.677 79.7604 182.677 51.4583C182.677 44.2541 188.337 38.5937 195.542 38.5937 202.746 38.5937 208.406 44.2541 208.406 51.4583L208.406 79.7604 182.677 79.7604Z" fill="#3A3A3A" transform="matrix(1 0 0 1 3831 1350)"/></g></g></g><path d="M0 229.49 114.745 0 413.255 0 528 229.49 413.255 458.98 114.745 458.98Z" fill="#D9D9D9" fill-rule="evenodd" fill-opacity="0.8" transform="matrix(-1 0 0 1 2813 1244)"/><g><g><g><path d="M2590.67 1524.96 2590.67 1504.38 2503.19 1504.38C2500.36 1504.38 2498.04 1502.06 2498.04 1499.23L2498.04 1447.77C2498.04 1444.94 2500.36 1442.62 2503.19 1442.62L2590.67 1442.62 2590.67 1422.04C2590.67 1416.38 2586.04 1411.75 2580.37 1411.75L2571.37 1411.75C2570.6 1411.75 2570.08 1411.24 2570.08 1410.46L2570.08 1402.74C2570.08 1401.97 2570.6 1401.46 2571.37 1401.46L2577.8 1401.46C2579.35 1401.46 2580.37 1400.43 2580.37 1398.89L2580.37 1380.87C2580.37 1375.21 2575.74 1370.58 2570.08 1370.58L2498.04 1370.58C2492.38 1370.58 2487.75 1375.21 2487.75 1380.87L2487.75 1398.89C2487.75 1400.43 2488.78 1401.46 2490.32 1401.46L2496.76 1401.46C2497.53 1401.46 2498.04 1401.97 2498.04 1402.74L2498.04 1410.46C2498.04 1411.24 2497.53 1411.75 2496.76 1411.75L2487.75 1411.75C2482.09 1411.75 2477.46 1416.38 2477.46 1422.04L2477.46 1545.54C2477.46 1551.2 2482.09 1555.83 2487.75 1555.83L2523.77 1555.83C2523.77 1538.85 2537.66 1524.96 2554.65 1524.96L2590.67 1524.96Z" fill="#3A3A3A"/><path d="M2508.33 1455.49 2508.33 1491.51C2508.33 1493.05 2509.36 1494.08 2510.91 1494.08L2590.67 1494.08 2590.67 1452.92 2510.91 1452.92C2509.36 1452.92 2508.33 1453.95 2508.33 1455.49Z" fill="#3A3A3A"/><path d="M2577.8 1566.12 2554.65 1566.12C2548.99 1566.12 2544.35 1561.49 2544.35 1555.83 2544.35 1550.17 2548.99 1545.54 2554.65 1545.54L2577.8 1545.54 2577.8 1566.12ZM2600.96 1535.25 2554.65 1535.25C2543.32 1535.25 2534.06 1544.51 2534.06 1555.83 2534.06 1567.15 2543.32 1576.42 2554.65 1576.42L2600.96 1576.42C2612.28 1576.42 2621.54 1567.15 2621.54 1555.83 2621.54 1544.51 2612.28 1535.25 2600.96 1535.25Z" fill="#3A3A3A"/></g></g></g><path d="M0 229.49 114.745 0 413.255 0 528 229.49 413.255 458.98 114.745 458.98Z" fill="#D9D9D9" fill-rule="evenodd" fill-opacity="0.8" transform="matrix(-1 0 0 1 3515 1244)"/><g><g><g><path d="M208.365 131.991 190.612 101.373 190.612 100.344C191.691 72.1418 177.153 45.6369 152.79 31.3896 128.432 16.9811 98.1599 16.9811 73.8016 31.3896 49.3923 45.5913 34.8376 72.1269 35.9797 100.344 35.8894 124.542 47.1227 147.389 66.3401 162.094L66.3401 226.417 147.644 226.417 147.644 195.799 160.252 195.799C168.379 195.854 176.18 192.603 181.864 186.794 187.493 181.01 190.633 173.252 190.612 165.181L190.612 149.744 201.933 149.744C208.648 149.229 214.566 141.511 208.365 131.991ZM106.326 122.095C111.361 121.323 113.985 127.624 110.867 131.836L110.409 132.423C107.093 136.473 100.22 135.624 99.7392 130.563 99.4536 127.599 95.5633 124.55 93.7726 126.853L82.3643 141.511 71.9053 133.372C69.6026 131.571 72.6541 127.689 75.6155 127.403 80.6841 126.919 81.5332 120.05 77.4757 116.733L76.8891 116.275C72.6772 113.157 66.3813 115.781 67.1532 120.814 67.606 123.755 64.5803 127.668 62.2801 125.875L52.4078 118.192 63.8676 103.467C65.6686 101.165 61.7475 98.1414 58.8066 98.5942 53.774 99.3661 51.1496 93.0625 54.268 88.8532L54.7234 88.2665C58.0425 84.2168 64.9122 85.0633 65.3959 90.1268 65.6815 93.0882 69.5717 96.1371 71.3625 93.8369L82.7708 79.1713 92.5813 86.8077C94.8841 88.6087 91.8352 92.4887 88.8737 92.7717 83.8025 93.258 82.956 100.128 87.011 103.444L87.5976 103.902C91.8094 107.021 98.1157 104.388 97.3412 99.361 96.8884 96.4201 99.9013 92.5041 102.214 94.3026L112.732 102.487 101.268 117.222C99.4742 119.522 103.385 122.548 106.326 122.095ZM145.347 79.4723C143.384 80.9955 140.811 77.6584 141.199 75.1524 141.866 70.8633 136.367 68.7201 132.773 71.3702L132.274 71.7613C128.811 74.5915 129.66 80.3445 133.974 80.7665 136.498 81.0238 139.095 84.3326 137.131 85.8557L128.708 92.3961 118.954 79.8325C117.428 77.8694 114.106 80.4655 113.862 82.9895 113.445 87.3094 107.687 88.1533 104.857 84.6902L104.46 84.1859C101.813 80.5838 103.946 75.0958 108.24 75.7596 110.749 76.1481 114.083 73.5752 112.56 71.612L102.85 59.1051 111.22 52.6059C113.185 51.0802 115.758 54.4069 115.37 56.9232 114.703 61.2149 120.202 63.3555 123.793 60.7054L124.308 60.3169C127.769 57.4867 126.922 51.7311 122.605 51.3117 120.081 51.0673 117.477 47.7534 119.45 46.2225L128.425 39.255 138.181 51.8186C139.704 53.7817 143.026 51.1856 143.27 48.6616 143.687 44.3391 149.445 43.4978 152.276 46.9609L152.664 47.4601C155.314 51.0621 153.179 56.5502 148.885 55.8864 146.378 55.4978 143.041 58.0708 144.565 60.0339L154.27 72.5563Z" fill="#3A3A3A" transform="matrix(-1.00405 0 0 1 3375 1350)"/></g></g></g><path d="M0 229.49 114.745 0 413.255 0 528 229.49 413.255 458.98 114.745 458.98Z" fill="#D9D9D9" fill-rule="evenodd" fill-opacity="0.8" transform="matrix(-1 0 0 1 3164 1439)"/><g><g><g><path d="M236.708 131.219C236.736 125.563 232.174 120.956 226.519 120.928 224.604 120.918 222.726 121.446 221.096 122.45L177.099 147.606C177.693 150.468 177.674 153.424 177.045 156.279 174.737 165.834 166.123 172.52 156.294 172.385L110.635 172.385 110.635 162.094 156.948 162.094C162.632 162.094 167.239 157.486 167.239 151.802 167.239 146.118 162.632 141.51 156.948 141.51L95.1978 141.51C90.9047 141.511 86.6974 142.713 83.0511 144.979L10.2917 180.104 46.3125 216.125C62.9566 199.481 84.5846 192.969 108.062 192.969L156.15 192.969C158.34 192.968 160.472 192.27 162.238 190.975L232.908 139.143C235.304 137.209 236.7 134.298 236.708 131.219Z" fill="#3A3A3A" transform="matrix(1.00405 0 0 1 2776 1545)"/><path d="M133.792 53.2979C117.582 21.1365 90.052 40.4334 90.052 58.4438 90.052 85.4594 133.792 118.907 133.792 118.907 133.792 118.907 177.531 85.4594 177.531 58.4438 177.531 40.4334 150.001 21.1365 133.792 53.2979Z" fill="#3A3A3A" transform="matrix(1.00405 0 0 1 2776 1545)"/></g></g></g><path d="M4077.89 890.407 3980.45 695.525 3984.55 693.475 4081.99 888.357ZM4088.14 885.282C4090.4 889.81 4088.57 895.317 4084.04 897.581 4079.51 899.845 4074.01 898.009 4071.74 893.481 4069.48 888.953 4071.31 883.447 4075.84 881.183 4080.37 878.919 4085.88 880.754 4088.14 885.282ZM3974.3 698.599C3972.04 694.071 3973.87 688.565 3978.4 686.301 3982.93 684.037 3988.43 685.872 3990.7 690.4 3992.96 694.929 3991.13 700.435 3986.6 702.699 3982.07 704.963 3976.56 703.128 3974.3 698.599Z" fill="#7F7F7F"/><path d="M2.04973-1.02486 99.4907 193.857 95.3912 195.907-2.04973 1.02486ZM-8.19892 4.09946C-10.463-0.428678-8.62759-5.93485-4.09946-8.19892 0.428678-10.463 5.93485-8.62759 8.19892-4.09946 10.463 0.428678 8.62759 5.93485 4.09946 8.19892-0.428678 10.463-5.93485 8.62759-8.19892 4.09946ZM105.64 190.782C107.904 195.311 106.069 200.817 101.54 203.081 97.0123 205.345 91.5061 203.509 89.242 198.981 86.978 194.453 88.8133 188.947 93.3415 186.683 97.8696 184.419 103.376 186.254 105.64 190.782Z" fill="#7F7F7F" transform="matrix(1 0 0 -1 3982.5 694.382)"/><path d="M3.26448e-06-2.29167 253.346-2.29131 253.346 2.29203-3.26448e-06 2.29167ZM-1.30579e-05 9.16667C-5.06262 9.16666-9.16667 5.0626-9.16667-1.30579e-05-9.16666-5.06262-5.0626-9.16667 1.30579e-05-9.16667 5.06262-9.16666 9.16667-5.0626 9.16667 1.30579e-05 9.16666 5.06262 5.0626 9.16667-1.30579e-05 9.16667ZM253.346-9.16631C258.409-9.1663 262.513-5.06224 262.513 0.00037395 262.513 5.06298 258.409 9.16703 253.346 9.16703 248.284 9.16702 244.18 5.06296 244.18 0.000347834 244.18-5.06226 248.284-9.16631 253.346-9.16631Z" fill="#7F7F7F" transform="matrix(-1 0 0 1 3631.85 110.5)"/><path d="M2.04973-1.02486 99.4907 193.857 95.3912 195.907-2.04973 1.02486ZM-8.19892 4.09946C-10.463-0.428678-8.62759-5.93485-4.09946-8.19892 0.428678-10.463 5.93485-8.62759 8.19892-4.09946 10.463 0.428678 8.62759 5.93485 4.09946 8.19892-0.428678 10.463-5.93485 8.62759-8.19892 4.09946ZM105.64 190.782C107.904 195.311 106.069 200.817 101.54 203.081 97.0123 205.345 91.5061 203.509 89.242 198.981 86.978 194.453 88.8133 188.947 93.3415 186.683 97.8696 184.419 103.376 186.254 105.64 190.782Z" fill="#7F7F7F" transform="matrix(-1 0 0 1 3377.94 110.5)"/><path d="M3282.55 303.475 3379.99 498.357 3375.89 500.407 3278.45 305.525ZM3272.3 308.6C3270.04 304.071 3271.87 298.565 3276.4 296.301 3280.93 294.037 3286.43 295.872 3288.7 300.401 3290.96 304.929 3289.13 310.435 3284.6 312.699 3280.07 314.963 3274.57 313.128 3272.3 308.6ZM3386.14 495.282C3388.4 499.811 3386.57 505.317 3382.04 507.581 3377.51 509.845 3372.01 508.01 3369.74 503.481 3367.48 498.953 3369.31 493.447 3373.84 491.183 3378.37 488.919 3383.88 490.754 3386.14 495.282Z" fill="#7F7F7F"/><path d="M2.04973-1.02486 99.4907 193.857 95.3912 195.907-2.04973 1.02486ZM-8.19892 4.09946C-10.463-0.428678-8.62759-5.93485-4.09946-8.19892 0.428678-10.463 5.93485-8.62759 8.19892-4.09946 10.463 0.428678 8.62759 5.93485 4.09946 8.19892-0.428678 10.463-5.93485 8.62759-8.19892 4.09946ZM105.64 190.782C107.904 195.311 106.069 200.817 101.54 203.081 97.0123 205.345 91.5061 203.509 89.242 198.981 86.978 194.453 88.8133 188.947 93.3415 186.683 97.8696 184.419 103.376 186.254 105.64 190.782Z" fill="#7F7F7F" transform="matrix(-1 0 0 1 4079.94 889.5)"/><path d="M3.26448e-06-2.29167 253.346-2.29131 253.346 2.29203-3.26448e-06 2.29167ZM-1.30579e-05 9.16667C-5.06262 9.16666-9.16667 5.0626-9.16667-1.30579e-05-9.16666-5.06262-5.0626-9.16667 1.30579e-05-9.16667 5.06262-9.16666 9.16667-5.0626 9.16667 1.30579e-05 9.16666 5.06262 5.0626 9.16667-1.30579e-05 9.16667ZM253.346-9.16631C258.409-9.1663 262.513-5.06224 262.513 0.00037395 262.513 5.06298 258.409 9.16703 253.346 9.16703 248.284 9.16702 244.18 5.06296 244.18 0.000347834 244.18-5.06226 248.284-9.16631 253.346-9.16631Z" fill="#7F7F7F" transform="matrix(-1 0 0 1 3981.85 1084.5)"/><path d="M3633.55 888.475 3730.99 1083.36 3726.89 1085.41 3629.45 890.525ZM3623.3 893.6C3621.04 889.071 3622.87 883.565 3627.4 881.301 3631.93 879.037 3637.43 880.872 3639.7 885.401 3641.96 889.929 3640.13 895.435 3635.6 897.699 3631.07 899.963 3625.56 898.128 3623.3 893.6ZM3737.14 1080.28C3739.4 1084.81 3737.57 1090.32 3733.04 1092.58 3728.51 1094.84 3723.01 1093.01 3720.74 1088.48 3718.48 1083.95 3720.31 1078.45 3724.84 1076.18 3729.37 1073.92 3734.88 1075.75 3737.14 1080.28Z" fill="#7F7F7F"/><path d="M3.26448e-06-2.29167 253.346-2.29131 253.346 2.29203-3.26448e-06 2.29167ZM-1.30579e-05 9.16667C-5.06262 9.16666-9.16667 5.0626-9.16667-1.30579e-05-9.16666-5.06262-5.0626-9.16667 1.30579e-05-9.16667 5.06262-9.16666 9.16667-5.0626 9.16667 1.30579e-05 9.16666 5.06262 5.0626 9.16667-1.30579e-05 9.16667ZM253.346-9.16631C258.409-9.1663 262.513-5.06224 262.513 0.00037395 262.513 5.06298 258.409 9.16703 253.346 9.16703 248.284 9.16702 244.18 5.06296 244.18 0.000347834 244.18-5.06226 248.284-9.16631 253.346-9.16631Z" fill="#7F7F7F" transform="matrix(-1 0 0 1 3631.85 889.5)"/><path d="M2.04973-1.02486 99.4907 193.857 95.3912 195.907-2.04973 1.02486ZM-8.19892 4.09946C-10.463-0.428678-8.62759-5.93485-4.09946-8.19892 0.428678-10.463 5.93485-8.62759 8.19892-4.09946 10.463 0.428678 8.62759 5.93485 4.09946 8.19892-0.428678 10.463-5.93485 8.62759-8.19892 4.09946ZM105.64 190.782C107.904 195.311 106.069 200.817 101.54 203.081 97.0123 205.345 91.5061 203.509 89.242 198.981 86.978 194.453 88.8133 188.947 93.3415 186.683 97.8696 184.419 103.376 186.254 105.64 190.782Z" fill="#7F7F7F" transform="matrix(-1 0 0 1 3377.94 499.5)"/><path d="M3282.55 693.475 3379.99 888.357 3375.89 890.407 3278.45 695.525ZM3272.3 698.599C3270.04 694.071 3271.87 688.565 3276.4 686.301 3280.93 684.037 3286.43 685.872 3288.7 690.4 3290.96 694.929 3289.13 700.435 3284.6 702.699 3280.07 704.963 3274.57 703.128 3272.3 698.599ZM3386.14 885.282C3388.4 889.81 3386.57 895.317 3382.04 897.581 3377.51 899.845 3372.01 898.009 3369.74 893.481 3367.48 888.953 3369.31 883.447 3373.84 881.183 3378.37 878.919 3383.88 880.754 3386.14 885.282Z" fill="#7F7F7F"/><path d="M3375.89 1280.41 3278.45 1085.52 3282.55 1083.48 3379.99 1278.36ZM3386.14 1275.28C3388.4 1279.81 3386.57 1285.32 3382.04 1287.58 3377.51 1289.84 3372.01 1288.01 3369.74 1283.48 3367.48 1278.95 3369.31 1273.45 3373.84 1271.18 3378.37 1268.92 3383.88 1270.75 3386.14 1275.28ZM3272.3 1088.6C3270.04 1084.07 3271.87 1078.57 3276.4 1076.3 3280.93 1074.04 3286.43 1075.87 3288.7 1080.4 3290.96 1084.93 3289.13 1090.43 3284.6 1092.7 3280.07 1094.96 3274.57 1093.13 3272.3 1088.6Z" fill="#7F7F7F"/><path d="M3.26448e-06-2.29167 253.346-2.29131 253.346 2.29203-3.26448e-06 2.29167ZM-1.30579e-05 9.16667C-5.06262 9.16666-9.16667 5.0626-9.16667-1.30579e-05-9.16666-5.06262-5.0626-9.16667 1.30579e-05-9.16667 5.06262-9.16666 9.16667-5.0626 9.16667 1.30579e-05 9.16666 5.06262 5.0626 9.16667-1.30579e-05 9.16667ZM253.346-9.16631C258.409-9.1663 262.513-5.06224 262.513 0.00037395 262.513 5.06298 258.409 9.16703 253.346 9.16703 248.284 9.16702 244.18 5.06296 244.18 0.000347834 244.18-5.06226 248.284-9.16631 253.346-9.16631Z" fill="#7F7F7F" transform="matrix(-1 0 0 1 3280.85 1084.5)"/><path d="M2.04973-1.02486 99.4907 193.857 95.3912 195.907-2.04973 1.02486ZM-8.19892 4.09946C-10.463-0.428678-8.62759-5.93485-4.09946-8.19892 0.428678-10.463 5.93485-8.62759 8.19892-4.09946 10.463 0.428678 8.62759 5.93485 4.09946 8.19892-0.428678 10.463-5.93485 8.62759-8.19892 4.09946ZM105.64 190.782C107.904 195.311 106.069 200.817 101.54 203.081 97.0123 205.345 91.5061 203.509 89.242 198.981 86.978 194.453 88.8133 188.947 93.3415 186.683 97.8696 184.419 103.376 186.254 105.64 190.782Z" fill="#7F7F7F" transform="matrix(-1 0 0 1 3026.94 694.5)"/><path d="M3.26448e-06-2.29167 253.346-2.29131 253.346 2.29203-3.26448e-06 2.29167ZM-1.30579e-05 9.16667C-5.06262 9.16666-9.16667 5.0626-9.16667-1.30579e-05-9.16666-5.06262-5.0626-9.16667 1.30579e-05-9.16667 5.06262-9.16666 9.16667-5.0626 9.16667 1.30579e-05 9.16666 5.06262 5.0626 9.16667-1.30579e-05 9.16667ZM253.346-9.16631C258.409-9.1663 262.513-5.06224 262.513 0.00037395 262.513 5.06298 258.409 9.16703 253.346 9.16703 248.284 9.16702 244.18 5.06296 244.18 0.000347834 244.18-5.06226 248.284-9.16631 253.346-9.16631Z" fill="#7F7F7F" transform="matrix(-1 0 0 1 3280.85 694.5)"/><path d="M3.26448e-06-2.29167 253.346-2.29131 253.346 2.29203-3.26448e-06 2.29167ZM-1.30579e-05 9.16667C-5.06262 9.16666-9.16667 5.0626-9.16667-1.30579e-05-9.16666-5.06262-5.0626-9.16667 1.30579e-05-9.16667 5.06262-9.16666 9.16667-5.0626 9.16667 1.30579e-05 9.16666 5.06262 5.0626 9.16667-1.30579e-05 9.16667ZM253.346-9.16631C258.409-9.1663 262.513-5.06224 262.513 0.00037395 262.513 5.06298 258.409 9.16703 253.346 9.16703 248.284 9.16702 244.18 5.06296 244.18 0.000347834 244.18-5.06226 248.284-9.16631 253.346-9.16631Z" fill="#7F7F7F" transform="matrix(-1 0 0 1 2929.85 889.5)"/><path d="M2.04973-1.02486 99.4907 193.857 95.3912 195.907-2.04973 1.02486ZM-8.19892 4.09946C-10.463-0.428678-8.62759-5.93485-4.09946-8.19892 0.428678-10.463 5.93485-8.62759 8.19892-4.09946 10.463 0.428678 8.62759 5.93485 4.09946 8.19892-0.428678 10.463-5.93485 8.62759-8.19892 4.09946ZM105.64 190.782C107.904 195.311 106.069 200.817 101.54 203.081 97.0123 205.345 91.5061 203.509 89.242 198.981 86.978 194.453 88.8133 188.947 93.3415 186.683 97.8696 184.419 103.376 186.254 105.64 190.782Z" fill="#7F7F7F" transform="matrix(-1 0 0 1 3026.94 1084.5)"/><path d="M2581.55 693.475 2678.99 888.357 2674.89 890.407 2577.45 695.525ZM2571.3 698.599C2569.04 694.071 2570.87 688.565 2575.4 686.301 2579.93 684.037 2585.43 685.872 2587.7 690.4 2589.96 694.929 2588.13 700.435 2583.6 702.699 2579.07 704.963 2573.57 703.128 2571.3 698.599ZM2685.14 885.282C2687.4 889.81 2685.57 895.317 2681.04 897.581 2676.51 899.845 2671.01 898.009 2668.74 893.481 2666.48 888.953 2668.31 883.447 2672.84 881.183 2677.37 878.919 2682.88 880.754 2685.14 885.282Z" fill="#7F7F7F"/><path d="M2.04973-1.02486 99.4907 193.857 95.3912 195.907-2.04973 1.02486ZM-8.19892 4.09946C-10.463-0.428678-8.62759-5.93485-4.09946-8.19892 0.428678-10.463 5.93485-8.62759 8.19892-4.09946 10.463 0.428678 8.62759 5.93485 4.09946 8.19892-0.428678 10.463-5.93485 8.62759-8.19892 4.09946ZM105.64 190.782C107.904 195.311 106.069 200.817 101.54 203.081 97.0123 205.345 91.5061 203.509 89.242 198.981 86.978 194.453 88.8133 188.947 93.3415 186.683 97.8696 184.419 103.376 186.254 105.64 190.782Z" fill="#7F7F7F" transform="matrix(-1 0 0 1 2676.94 889.5)"/><path d="M2581.55 1083.48 2678.99 1278.36 2674.89 1280.41 2577.45 1085.52ZM2571.3 1088.6C2569.04 1084.07 2570.87 1078.57 2575.4 1076.3 2579.93 1074.04 2585.43 1075.87 2587.7 1080.4 2589.96 1084.93 2588.13 1090.43 2583.6 1092.7 2579.07 1094.96 2573.57 1093.13 2571.3 1088.6ZM2685.14 1275.28C2687.4 1279.81 2685.57 1285.32 2681.04 1287.58 2676.51 1289.84 2671.01 1288.01 2668.74 1283.48 2666.48 1278.95 2668.31 1273.45 2672.84 1271.18 2677.37 1268.92 2682.88 1270.75 2685.14 1275.28Z" fill="#7F7F7F"/><path d="M3.26448e-06-2.29167 253.346-2.29131 253.346 2.29203-3.26448e-06 2.29167ZM-1.30579e-05 9.16667C-5.06262 9.16666-9.16667 5.0626-9.16667-1.30579e-05-9.16666-5.06262-5.0626-9.16667 1.30579e-05-9.16667 5.06262-9.16666 9.16667-5.0626 9.16667 1.30579e-05 9.16666 5.06262 5.0626 9.16667-1.30579e-05 9.16667ZM253.346-9.16631C258.409-9.1663 262.513-5.06224 262.513 0.00037395 262.513 5.06298 258.409 9.16703 253.346 9.16703 248.284 9.16702 244.18 5.06296 244.18 0.000347834 244.18-5.06226 248.284-9.16631 253.346-9.16631Z" fill="#7F7F7F" transform="matrix(-1 0 0 1 2929.85 1279.5)"/><path d="M3.26448e-06-2.29167 253.346-2.29131 253.346 2.29203-3.26448e-06 2.29167ZM-1.30579e-05 9.16667C-5.06262 9.16666-9.16667 5.0626-9.16667-1.30579e-05-9.16666-5.06262-5.0626-9.16667 1.30579e-05-9.16667 5.06262-9.16666 9.16667-5.0626 9.16667 1.30579e-05 9.16666 5.06262 5.0626 9.16667-1.30579e-05 9.16667ZM253.346-9.16631C258.409-9.1663 262.513-5.06224 262.513 0.00037395 262.513 5.06298 258.409 9.16703 253.346 9.16703 248.284 9.16702 244.18 5.06296 244.18 0.000347834 244.18-5.06226 248.284-9.16631 253.346-9.16631Z" fill="#7F7F7F" transform="matrix(-1 0 0 1 2578.85 694.5)"/><path d="M2.04973-1.02486 99.4907 193.857 95.3912 195.907-2.04973 1.02486ZM-8.19892 4.09946C-10.463-0.428678-8.62759-5.93485-4.09946-8.19892 0.428678-10.463 5.93485-8.62759 8.19892-4.09946 10.463 0.428678 8.62759 5.93485 4.09946 8.19892-0.428678 10.463-5.93485 8.62759-8.19892 4.09946ZM105.64 190.782C107.904 195.311 106.069 200.817 101.54 203.081 97.0123 205.345 91.5061 203.509 89.242 198.981 86.978 194.453 88.8133 188.947 93.3415 186.683 97.8696 184.419 103.376 186.254 105.64 190.782Z" fill="#7F7F7F" transform="matrix(-1 0 0 1 2325.94 694.5)"/><path d="M3.26448e-06-2.29167 253.346-2.29131 253.346 2.29203-3.26448e-06 2.29167ZM-1.30579e-05 9.16667C-5.06262 9.16666-9.16667 5.0626-9.16667-1.30579e-05-9.16666-5.06262-5.0626-9.16667 1.30579e-05-9.16667 5.06262-9.16666 9.16667-5.0626 9.16667 1.30579e-05 9.16666 5.06262 5.0626 9.16667-1.30579e-05 9.16667ZM253.346-9.16631C258.409-9.1663 262.513-5.06224 262.513 0.00037395 262.513 5.06298 258.409 9.16703 253.346 9.16703 248.284 9.16702 244.18 5.06296 244.18 0.000347834 244.18-5.06226 248.284-9.16631 253.346-9.16631Z" fill="#7F7F7F" transform="matrix(-1 0 0 1 2578.85 1084.5)"/><path d="M3.26448e-06-2.29167 253.346-2.29131 253.346 2.29203-3.26448e-06 2.29167ZM-1.30579e-05 9.16667C-5.06262 9.16666-9.16667 5.0626-9.16667-1.30579e-05-9.16666-5.06262-5.0626-9.16667 1.30579e-05-9.16667 5.06262-9.16666 9.16667-5.0626 9.16667 1.30579e-05 9.16666 5.06262 5.0626 9.16667-1.30579e-05 9.16667ZM253.346-9.16631C258.409-9.1663 262.513-5.06224 262.513 0.00037395 262.513 5.06298 258.409 9.16703 253.346 9.16703 248.284 9.16702 244.18 5.06296 244.18 0.000347834 244.18-5.06226 248.284-9.16631 253.346-9.16631Z" fill="#7F7F7F" transform="matrix(-1 0 0 1 2227.85 889.5)"/><path d="M2.04973-1.02486 99.4907 193.857 95.3912 195.907-2.04973 1.02486ZM-8.19892 4.09946C-10.463-0.428678-8.62759-5.93485-4.09946-8.19892 0.428678-10.463 5.93485-8.62759 8.19892-4.09946 10.463 0.428678 8.62759 5.93485 4.09946 8.19892-0.428678 10.463-5.93485 8.62759-8.19892 4.09946ZM105.64 190.782C107.904 195.311 106.069 200.817 101.54 203.081 97.0123 205.345 91.5061 203.509 89.242 198.981 86.978 194.453 88.8133 188.947 93.3415 186.683 97.8696 184.419 103.376 186.254 105.64 190.782Z" fill="#7F7F7F" transform="matrix(-1 0 0 1 2325.94 1084.5)"/><path d="M1879.55 1083.48 1976.99 1278.36 1972.89 1280.41 1875.45 1085.52ZM1869.3 1088.6C1867.04 1084.07 1868.87 1078.57 1873.4 1076.3 1877.93 1074.04 1883.43 1075.87 1885.7 1080.4 1887.96 1084.93 1886.13 1090.43 1881.6 1092.7 1877.07 1094.96 1871.57 1093.13 1869.3 1088.6ZM1983.14 1275.28C1985.4 1279.81 1983.57 1285.32 1979.04 1287.58 1974.51 1289.84 1969.01 1288.01 1966.74 1283.48 1964.48 1278.95 1966.31 1273.45 1970.84 1271.18 1975.37 1268.92 1980.88 1270.75 1983.14 1275.28Z" fill="#7F7F7F"/><path d="M2.04973-1.02486 99.4907 193.857 95.3912 195.907-2.04973 1.02486ZM-8.19892 4.09946C-10.463-0.428678-8.62759-5.93485-4.09946-8.19892 0.428678-10.463 5.93485-8.62759 8.19892-4.09946 10.463 0.428678 8.62759 5.93485 4.09946 8.19892-0.428678 10.463-5.93485 8.62759-8.19892 4.09946ZM105.64 190.782C107.904 195.311 106.069 200.817 101.54 203.081 97.0123 205.345 91.5061 203.509 89.242 198.981 86.978 194.453 88.8133 188.947 93.3415 186.683 97.8696 184.419 103.376 186.254 105.64 190.782Z" fill="#7F7F7F" transform="matrix(-1 0 0 1 1974.94 889.5)"/><path d="M2.04973-1.02486 99.4907 193.857 95.3912 195.907-2.04973 1.02486ZM-8.19892 4.09946C-10.463-0.428678-8.62759-5.93485-4.09946-8.19892 0.428678-10.463 5.93485-8.62759 8.19892-4.09946 10.463 0.428678 8.62759 5.93485 4.09946 8.19892-0.428678 10.463-5.93485 8.62759-8.19892 4.09946ZM105.64 190.782C107.904 195.311 106.069 200.817 101.54 203.081 97.0123 205.345 91.5061 203.509 89.242 198.981 86.978 194.453 88.8133 188.947 93.3415 186.683 97.8696 184.419 103.376 186.254 105.64 190.782Z" fill="#7F7F7F" transform="matrix(-1 0 0 1 1623.94 694.5)"/><path d="M1528.55 888.475 1625.99 1083.36 1621.89 1085.41 1524.45 890.525ZM1518.3 893.6C1516.04 889.071 1517.87 883.565 1522.4 881.301 1526.93 879.037 1532.43 880.872 1534.7 885.401 1536.96 889.929 1535.13 895.435 1530.6 897.699 1526.07 899.963 1520.57 898.128 1518.3 893.6ZM1632.14 1080.28C1634.4 1084.81 1632.57 1090.32 1628.04 1092.58 1623.51 1094.84 1618.01 1093.01 1615.74 1088.48 1613.48 1083.95 1615.31 1078.45 1619.84 1076.18 1624.37 1073.92 1629.88 1075.75 1632.14 1080.28Z" fill="#7F7F7F"/><path d="M1624.5 1082.21 1877.85 1082.21 1877.85 1086.79 1624.5 1086.79ZM1624.5 1093.67C1619.44 1093.67 1615.33 1089.56 1615.33 1084.5 1615.33 1079.44 1619.44 1075.33 1624.5 1075.33 1629.56 1075.33 1633.67 1079.44 1633.67 1084.5 1633.67 1089.56 1629.56 1093.67 1624.5 1093.67ZM1877.85 1075.33C1882.91 1075.33 1887.01 1079.44 1887.01 1084.5 1887.01 1089.56 1882.91 1093.67 1877.85 1093.67 1872.78 1093.67 1868.68 1089.56 1868.68 1084.5 1868.68 1079.44 1872.78 1075.33 1877.85 1075.33Z" fill="#7F7F7F"/><path d="M2230.55 1278.47 2327.99 1473.36 2323.89 1475.41 2226.45 1280.52ZM2220.3 1283.6C2218.04 1279.07 2219.87 1273.57 2224.4 1271.3 2228.93 1269.04 2234.43 1270.87 2236.7 1275.4 2238.96 1279.93 2237.13 1285.43 2232.6 1287.7 2228.07 1289.96 2222.57 1288.13 2220.3 1283.6ZM2334.14 1470.28C2336.4 1474.81 2334.57 1480.32 2330.04 1482.58 2325.51 1484.84 2320.01 1483.01 2317.74 1478.48 2315.48 1473.95 2317.31 1468.45 2321.84 1466.18 2326.37 1463.92 2331.88 1465.75 2334.14 1470.28Z" fill="#7F7F7F"/><path d="M3.26448e-06-2.29167 253.346-2.29131 253.346 2.29203-3.26448e-06 2.29167ZM-1.30579e-05 9.16667C-5.06262 9.16666-9.16667 5.0626-9.16667-1.30579e-05-9.16666-5.06262-5.0626-9.16667 1.30579e-05-9.16667 5.06262-9.16666 9.16667-5.0626 9.16667 1.30579e-05 9.16666 5.06262 5.0626 9.16667-1.30579e-05 9.16667ZM253.346-9.16631C258.409-9.1663 262.513-5.06224 262.513 0.00037395 262.513 5.06298 258.409 9.16703 253.346 9.16703 248.284 9.16702 244.18 5.06296 244.18 0.000347834 244.18-5.06226 248.284-9.16631 253.346-9.16631Z" fill="#595959" transform="matrix(-1 0 0 1 4430.85 1474.5)"/><path d="M4174.89 1475.41 4077.45 1280.52 4081.55 1278.48 4178.99 1473.36ZM4185.14 1470.28C4187.4 1474.81 4185.57 1480.32 4181.04 1482.58 4176.51 1484.84 4171.01 1483.01 4168.74 1478.48 4166.48 1473.95 4168.31 1468.45 4172.84 1466.18 4177.37 1463.92 4182.88 1465.75 4185.14 1470.28ZM4071.3 1283.6C4069.04 1279.07 4070.87 1273.57 4075.4 1271.3 4079.93 1269.04 4085.43 1270.87 4087.7 1275.4 4089.96 1279.93 4088.13 1285.43 4083.6 1287.7 4079.07 1289.96 4073.57 1288.13 4071.3 1283.6Z" fill="#595959"/><path d="M2.04973-1.02486 99.4907 193.857 95.3912 195.907-2.04973 1.02486ZM-8.19892 4.09946C-10.463-0.428678-8.62759-5.93485-4.09946-8.19892 0.428678-10.463 5.93485-8.62759 8.19892-4.09946 10.463 0.428678 8.62759 5.93485 4.09946 8.19892-0.428678 10.463-5.93485 8.62759-8.19892 4.09946ZM105.64 190.782C107.904 195.311 106.069 200.817 101.54 203.081 97.0123 205.345 91.5061 203.509 89.242 198.981 86.978 194.453 88.8133 188.947 93.3415 186.683 97.8696 184.419 103.376 186.254 105.64 190.782Z" fill="#595959" transform="matrix(1 0 0 -1 4079.5 1279.38)"/><path d="M3.26448e-06-2.29167 253.346-2.29131 253.346 2.29203-3.26448e-06 2.29167ZM-1.30579e-05 9.16667C-5.06262 9.16666-9.16667 5.0626-9.16667-1.30579e-05-9.16666-5.06262-5.0626-9.16667 1.30579e-05-9.16667 5.06262-9.16666 9.16667-5.0626 9.16667 1.30579e-05 9.16666 5.06262 5.0626 9.16667-1.30579e-05 9.16667ZM253.346-9.16631C258.409-9.1663 262.513-5.06224 262.513 0.00037395 262.513 5.06298 258.409 9.16703 253.346 9.16703 248.284 9.16702 244.18 5.06296 244.18 0.000347834 244.18-5.06226 248.284-9.16631 253.346-9.16631Z" fill="#595959" transform="matrix(-1 0 0 1 4079.85 1279.5)"/><path d="M3730.55 1083.48 3827.99 1278.36 3823.89 1280.41 3726.45 1085.52ZM3720.3 1088.6C3718.04 1084.07 3719.87 1078.57 3724.4 1076.3 3728.93 1074.04 3734.44 1075.87 3736.7 1080.4 3738.96 1084.93 3737.13 1090.43 3732.6 1092.7 3728.07 1094.96 3722.57 1093.13 3720.3 1088.6ZM3834.14 1275.28C3836.4 1279.81 3834.57 1285.32 3830.04 1287.58 3825.51 1289.84 3820.01 1288.01 3817.74 1283.48 3815.48 1278.95 3817.31 1273.45 3821.84 1271.18 3826.37 1268.92 3831.88 1270.75 3834.14 1275.28Z" fill="#595959"/><path d="M3823.89 890.407 3726.45 695.525 3730.55 693.475 3827.99 888.357ZM3834.14 885.282C3836.4 889.81 3834.57 895.317 3830.04 897.581 3825.51 899.845 3820.01 898.009 3817.74 893.481 3815.48 888.953 3817.31 883.447 3821.84 881.183 3826.37 878.919 3831.88 880.754 3834.14 885.282ZM3720.3 698.599C3718.04 694.071 3719.87 688.565 3724.4 686.301 3728.93 684.037 3734.44 685.872 3736.7 690.4 3738.96 694.929 3737.13 700.435 3732.6 702.699 3728.07 704.963 3722.57 703.128 3720.3 698.599Z" fill="#595959"/><path d="M3.26448e-06-2.29167 253.346-2.29131 253.346 2.29203-3.26448e-06 2.29167ZM-1.30579e-05 9.16667C-5.06262 9.16666-9.16667 5.0626-9.16667-1.30579e-05-9.16666-5.06262-5.0626-9.16667 1.30579e-05-9.16667 5.06262-9.16666 9.16667-5.0626 9.16667 1.30579e-05 9.16666 5.06262 5.0626 9.16667-1.30579e-05 9.16667ZM253.346-9.16631C258.409-9.1663 262.513-5.06224 262.513 0.00037395 262.513 5.06298 258.409 9.16703 253.346 9.16703 248.284 9.16702 244.18 5.06296 244.18 0.000347834 244.18-5.06226 248.284-9.16631 253.346-9.16631Z" fill="#595959" transform="matrix(-1 0 0 1 3728.85 694.5)"/><path d="M2.04973-1.02486 99.4907 193.857 95.3912 195.907-2.04973 1.02486ZM-8.19892 4.09946C-10.463-0.428678-8.62759-5.93485-4.09946-8.19892 0.428678-10.463 5.93485-8.62759 8.19892-4.09946 10.463 0.428678 8.62759 5.93485 4.09946 8.19892-0.428678 10.463-5.93485 8.62759-8.19892 4.09946ZM105.64 190.782C107.904 195.311 106.069 200.817 101.54 203.081 97.0123 205.345 91.5061 203.509 89.242 198.981 86.978 194.453 88.8133 188.947 93.3415 186.683 97.8696 184.419 103.376 186.254 105.64 190.782Z" fill="#595959" transform="matrix(-1 0 0 1 3475.94 694.5)"/><path d="M3380.55 888.475 3477.99 1083.36 3473.89 1085.41 3376.45 890.525ZM3370.3 893.6C3368.04 889.071 3369.87 883.565 3374.4 881.301 3378.93 879.037 3384.43 880.872 3386.7 885.401 3388.96 889.929 3387.13 895.435 3382.6 897.699 3378.07 899.963 3372.56 898.128 3370.3 893.6ZM3484.14 1080.28C3486.4 1084.81 3484.57 1090.32 3480.04 1092.58 3475.51 1094.84 3470.01 1093.01 3467.74 1088.48 3465.48 1083.95 3467.31 1078.45 3471.84 1076.18 3476.37 1073.92 3481.88 1075.75 3484.14 1080.28Z" fill="#595959"/><path d="M3.26448e-06-2.29167 253.346-2.29131 253.346 2.29203-3.26448e-06 2.29167ZM-1.30579e-05 9.16667C-5.06262 9.16666-9.16667 5.0626-9.16667-1.30579e-05-9.16666-5.06262-5.0626-9.16667 1.30579e-05-9.16667 5.06262-9.16666 9.16667-5.0626 9.16667 1.30579e-05 9.16666 5.06262 5.0626 9.16667-1.30579e-05 9.16667ZM253.346-9.16631C258.409-9.1663 262.513-5.06224 262.513 0.00037395 262.513 5.06298 258.409 9.16703 253.346 9.16703 248.284 9.16702 244.18 5.06296 244.18 0.000347834 244.18-5.06226 248.284-9.16631 253.346-9.16631Z" fill="#595959" transform="matrix(-1 0 0 1 3728.85 1084.5)"/><path d="M2.04973-1.02486 99.4907 193.857 95.3912 195.907-2.04973 1.02486ZM-8.19892 4.09946C-10.463-0.428678-8.62759-5.93485-4.09946-8.19892 0.428678-10.463 5.93485-8.62759 8.19892-4.09946 10.463 0.428678 8.62759 5.93485 4.09946 8.19892-0.428678 10.463-5.93485 8.62759-8.19892 4.09946ZM105.64 190.782C107.904 195.311 106.069 200.817 101.54 203.081 97.0123 205.345 91.5061 203.509 89.242 198.981 86.978 194.453 88.8133 188.947 93.3415 186.683 97.8696 184.419 103.376 186.254 105.64 190.782Z" fill="#595959" transform="matrix(-1 0 0 1 3825.94 1279.5)"/><path d="M2.04973-1.02486 99.4907 193.857 95.3912 195.907-2.04973 1.02486ZM-8.19892 4.09946C-10.463-0.428678-8.62759-5.93485-4.09946-8.19892 0.428678-10.463 5.93485-8.62759 8.19892-4.09946 10.463 0.428678 8.62759 5.93485 4.09946 8.19892-0.428678 10.463-5.93485 8.62759-8.19892 4.09946ZM105.64 190.782C107.904 195.311 106.069 200.817 101.54 203.081 97.0123 205.345 91.5061 203.509 89.242 198.981 86.978 194.453 88.8133 188.947 93.3415 186.683 97.8696 184.419 103.376 186.254 105.64 190.782Z" fill="#595959" transform="matrix(-1 0 0 1 4176.94 1474.5)"/><path d="M3.26448e-06-2.29167 253.346-2.29131 253.346 2.29203-3.26448e-06 2.29167ZM-1.30579e-05 9.16667C-5.06262 9.16666-9.16667 5.0626-9.16667-1.30579e-05-9.16666-5.06262-5.0626-9.16667 1.30579e-05-9.16667 5.06262-9.16666 9.16667-5.0626 9.16667 1.30579e-05 9.16666 5.06262 5.0626 9.16667-1.30579e-05 9.16667ZM253.346-9.16631C258.409-9.1663 262.513-5.06224 262.513 0.00037395 262.513 5.06298 258.409 9.16703 253.346 9.16703 248.284 9.16702 244.18 5.06296 244.18 0.000347834 244.18-5.06226 248.284-9.16631 253.346-9.16631Z" fill="#595959" transform="matrix(-1 0 0 1 4079.85 1669.5)"/><path d="M3730.55 1473.47 3827.99 1668.36 3823.89 1670.41 3726.45 1475.52ZM3720.3 1478.6C3718.04 1474.07 3719.87 1468.57 3724.4 1466.3 3728.93 1464.04 3734.44 1465.87 3736.7 1470.4 3738.96 1474.93 3737.13 1480.43 3732.6 1482.7 3728.07 1484.96 3722.57 1483.13 3720.3 1478.6ZM3834.14 1665.28C3836.4 1669.81 3834.57 1675.32 3830.04 1677.58 3825.51 1679.84 3820.01 1678.01 3817.74 1673.48 3815.48 1668.95 3817.31 1663.45 3821.84 1661.18 3826.37 1658.92 3831.88 1660.75 3834.14 1665.28Z" fill="#595959"/><path d="M3.26448e-06-2.29167 253.346-2.29131 253.346 2.29203-3.26448e-06 2.29167ZM-1.30579e-05 9.16667C-5.06262 9.16666-9.16667 5.0626-9.16667-1.30579e-05-9.16666-5.06262-5.0626-9.16667 1.30579e-05-9.16667 5.06262-9.16666 9.16667-5.0626 9.16667 1.30579e-05 9.16666 5.06262 5.0626 9.16667-1.30579e-05 9.16667ZM253.346-9.16631C258.409-9.1663 262.513-5.06224 262.513 0.00037395 262.513 5.06298 258.409 9.16703 253.346 9.16703 248.284 9.16702 244.18 5.06296 244.18 0.000347834 244.18-5.06226 248.284-9.16631 253.346-9.16631Z" fill="#595959" transform="matrix(-1 0 0 1 3728.85 1474.5)"/><path d="M2.04973-1.02486 99.4907 193.857 95.3912 195.907-2.04973 1.02486ZM-8.19892 4.09946C-10.463-0.428678-8.62759-5.93485-4.09946-8.19892 0.428678-10.463 5.93485-8.62759 8.19892-4.09946 10.463 0.428678 8.62759 5.93485 4.09946 8.19892-0.428678 10.463-5.93485 8.62759-8.19892 4.09946ZM105.64 190.782C107.904 195.311 106.069 200.817 101.54 203.081 97.0123 205.345 91.5061 203.509 89.242 198.981 86.978 194.453 88.8133 188.947 93.3415 186.683 97.8696 184.419 103.376 186.254 105.64 190.782Z" fill="#595959" transform="matrix(-1 0 0 1 3475.94 1084.5)"/><path d="M3380.55 1278.47 3477.99 1473.36 3473.89 1475.41 3376.45 1280.52ZM3370.3 1283.6C3368.04 1279.07 3369.87 1273.57 3374.4 1271.3 3378.93 1269.04 3384.43 1270.87 3386.7 1275.4 3388.96 1279.93 3387.13 1285.43 3382.6 1287.7 3378.07 1289.96 3372.56 1288.13 3370.3 1283.6ZM3484.14 1470.28C3486.4 1474.81 3484.57 1480.32 3480.04 1482.58 3475.51 1484.84 3470.01 1483.01 3467.74 1478.48 3465.48 1473.95 3467.31 1468.45 3471.84 1466.18 3476.37 1463.92 3481.88 1465.75 3484.14 1470.28Z" fill="#595959"/><path d="M3.26448e-06-2.29167 253.346-2.29131 253.346 2.29203-3.26448e-06 2.29167ZM-1.30579e-05 9.16667C-5.06262 9.16666-9.16667 5.0626-9.16667-1.30579e-05-9.16666-5.06262-5.0626-9.16667 1.30579e-05-9.16667 5.06262-9.16666 9.16667-5.0626 9.16667 1.30579e-05 9.16666 5.06262 5.0626 9.16667-1.30579e-05 9.16667ZM253.346-9.16631C258.409-9.1663 262.513-5.06224 262.513 0.00037395 262.513 5.06298 258.409 9.16703 253.346 9.16703 248.284 9.16702 244.18 5.06296 244.18 0.000347834 244.18-5.06226 248.284-9.16631 253.346-9.16631Z" fill="#595959" transform="matrix(-1 0 0 1 3728.85 1863.5)"/><path d="M3473.89 1865.41 3376.45 1670.52 3380.55 1668.48 3477.99 1863.36ZM3484.14 1860.28C3486.4 1864.81 3484.57 1870.32 3480.04 1872.58 3475.51 1874.84 3470.01 1873.01 3467.74 1868.48 3465.48 1863.95 3467.31 1858.45 3471.84 1856.18 3476.37 1853.92 3481.88 1855.75 3484.14 1860.28ZM3370.3 1673.6C3368.04 1669.07 3369.87 1663.57 3374.4 1661.3 3378.93 1659.04 3384.43 1660.87 3386.7 1665.4 3388.96 1669.93 3387.13 1675.43 3382.6 1677.7 3378.07 1679.96 3372.57 1678.13 3370.3 1673.6Z" fill="#595959"/><path d="M2.04973-1.02486 99.4907 193.857 95.3912 195.907-2.04973 1.02486ZM-8.19892 4.09946C-10.463-0.428678-8.62759-5.93485-4.09946-8.19892 0.428678-10.463 5.93485-8.62759 8.19892-4.09946 10.463 0.428678 8.62759 5.93485 4.09946 8.19892-0.428678 10.463-5.93485 8.62759-8.19892 4.09946ZM105.64 190.782C107.904 195.311 106.069 200.817 101.54 203.081 97.0123 205.345 91.5061 203.509 89.242 198.981 86.978 194.453 88.8133 188.947 93.3415 186.683 97.8696 184.419 103.376 186.254 105.64 190.782Z" fill="#595959" transform="matrix(-1 0 0 1 3475.94 1474.5)"/><path d="M3.26448e-06-2.29167 253.346-2.29131 253.346 2.29203-3.26448e-06 2.29167ZM-1.30579e-05 9.16667C-5.06262 9.16666-9.16667 5.0626-9.16667-1.30579e-05-9.16666-5.06262-5.0626-9.16667 1.30579e-05-9.16667 5.06262-9.16666 9.16667-5.0626 9.16667 1.30579e-05 9.16666 5.06262 5.0626 9.16667-1.30579e-05 9.16667ZM253.346-9.16631C258.409-9.1663 262.513-5.06224 262.513 0.00037395 262.513 5.06298 258.409 9.16703 253.346 9.16703 248.284 9.16702 244.18 5.06296 244.18 0.000347834 244.18-5.06226 248.284-9.16631 253.346-9.16631Z" fill="#595959" transform="matrix(-1 0 0 1 3377.85 1669.5)"/><path d="M3122.89 1670.41 3025.45 1475.52 3029.55 1473.47 3126.99 1668.36ZM3133.14 1665.28C3135.4 1669.81 3133.57 1675.32 3129.04 1677.58 3124.51 1679.84 3119.01 1678.01 3116.74 1673.48 3114.48 1668.95 3116.31 1663.45 3120.84 1661.18 3125.37 1658.92 3130.88 1660.75 3133.14 1665.28ZM3019.3 1478.6C3017.04 1474.07 3018.87 1468.56 3023.4 1466.3 3027.93 1464.04 3033.43 1465.87 3035.7 1470.4 3037.96 1474.93 3036.13 1480.43 3031.6 1482.7 3027.07 1484.96 3021.57 1483.13 3019.3 1478.6Z" fill="#595959"/><path d="M2.04973-1.02486 99.4907 193.857 95.3912 195.907-2.04973 1.02486ZM-8.19892 4.09946C-10.463-0.428678-8.62759-5.93485-4.09946-8.19892 0.428678-10.463 5.93485-8.62759 8.19892-4.09946 10.463 0.428678 8.62759 5.93485 4.09946 8.19892-0.428678 10.463-5.93485 8.62759-8.19892 4.09946ZM105.64 190.782C107.904 195.311 106.069 200.817 101.54 203.081 97.0123 205.345 91.5061 203.509 89.242 198.981 86.978 194.453 88.8133 188.947 93.3415 186.683 97.8696 184.419 103.376 186.254 105.64 190.782Z" fill="#595959" transform="matrix(-1 0 0 1 3124.94 1279.5)"/><path d="M3.26448e-06-2.29167 253.346-2.29131 253.346 2.29203-3.26448e-06 2.29167ZM-1.30579e-05 9.16667C-5.06262 9.16666-9.16667 5.0626-9.16667-1.30579e-05-9.16666-5.06262-5.0626-9.16667 1.30579e-05-9.16667 5.06262-9.16666 9.16667-5.0626 9.16667 1.30579e-05 9.16666 5.06262 5.0626 9.16667-1.30579e-05 9.16667ZM253.346-9.16631C258.409-9.1663 262.513-5.06224 262.513 0.00037395 262.513 5.06298 258.409 9.16703 253.346 9.16703 248.284 9.16702 244.18 5.06296 244.18 0.000347834 244.18-5.06226 248.284-9.16631 253.346-9.16631Z" fill="#595959" transform="matrix(-1 0 0 1 3377.85 1279.5)"/><path d="M3.26448e-06-2.29167 253.346-2.29131 253.346 2.29203-3.26448e-06 2.29167ZM-1.30579e-05 9.16667C-5.06262 9.16666-9.16667 5.0626-9.16667-1.30579e-05-9.16666-5.06262-5.0626-9.16667 1.30579e-05-9.16667 5.06262-9.16666 9.16667-5.0626 9.16667 1.30579e-05 9.16666 5.06262 5.0626 9.16667-1.30579e-05 9.16667ZM253.346-9.16631C258.409-9.1663 262.513-5.06224 262.513 0.00037395 262.513 5.06298 258.409 9.16703 253.346 9.16703 248.284 9.16702 244.18 5.06296 244.18 0.000347834 244.18-5.06226 248.284-9.16631 253.346-9.16631Z" fill="#595959" transform="matrix(-1 0 0 1 3377.85 889.5)"/><path d="M2.04973-1.02486 99.4907 193.857 95.3912 195.907-2.04973 1.02486ZM-8.19892 4.09946C-10.463-0.428678-8.62759-5.93485-4.09946-8.19892 0.428678-10.463 5.93485-8.62759 8.19892-4.09946 10.463 0.428678 8.62759 5.93485 4.09946 8.19892-0.428678 10.463-5.93485 8.62759-8.19892 4.09946ZM105.64 190.782C107.904 195.311 106.069 200.817 101.54 203.081 97.0123 205.345 91.5061 203.509 89.242 198.981 86.978 194.453 88.8133 188.947 93.3415 186.683 97.8696 184.419 103.376 186.254 105.64 190.782Z" fill="#595959" transform="matrix(-1 0 0 1 3124.94 889.5)"/><path d="M3.26448e-06-2.29167 253.346-2.29131 253.346 2.29203-3.26448e-06 2.29167ZM-1.30579e-05 9.16667C-5.06262 9.16666-9.16667 5.0626-9.16667-1.30579e-05-9.16666-5.06262-5.0626-9.16667 1.30579e-05-9.16667 5.06262-9.16666 9.16667-5.0626 9.16667 1.30579e-05 9.16666 5.06262 5.0626 9.16667-1.30579e-05 9.16667ZM253.346-9.16631C258.409-9.1663 262.513-5.06224 262.513 0.00037395 262.513 5.06298 258.409 9.16703 253.346 9.16703 248.284 9.16702 244.18 5.06296 244.18 0.000347834 244.18-5.06226 248.284-9.16631 253.346-9.16631Z" fill="#595959" transform="matrix(-1 0 0 1 3026.85 1084.5)"/><path d="M3.26448e-06-2.29167 253.346-2.29131 253.346 2.29203-3.26448e-06 2.29167ZM-1.30579e-05 9.16667C-5.06262 9.16666-9.16667 5.0626-9.16667-1.30579e-05-9.16666-5.06262-5.0626-9.16667 1.30579e-05-9.16667 5.06262-9.16666 9.16667-5.0626 9.16667 1.30579e-05 9.16666 5.06262 5.0626 9.16667-1.30579e-05 9.16667ZM253.346-9.16631C258.409-9.1663 262.513-5.06224 262.513 0.00037395 262.513 5.06298 258.409 9.16703 253.346 9.16703 248.284 9.16702 244.18 5.06296 244.18 0.000347834 244.18-5.06226 248.284-9.16631 253.346-9.16631Z" fill="#595959" transform="matrix(-1 0 0 1 3026.85 1474.5)"/><path d="M2.04973-1.02486 99.4907 193.857 95.3912 195.907-2.04973 1.02486ZM-8.19892 4.09946C-10.463-0.428678-8.62759-5.93485-4.09946-8.19892 0.428678-10.463 5.93485-8.62759 8.19892-4.09946 10.463 0.428678 8.62759 5.93485 4.09946 8.19892-0.428678 10.463-5.93485 8.62759-8.19892 4.09946ZM105.64 190.782C107.904 195.311 106.069 200.817 101.54 203.081 97.0123 205.345 91.5061 203.509 89.242 198.981 86.978 194.453 88.8133 188.947 93.3415 186.683 97.8696 184.419 103.376 186.254 105.64 190.782Z" fill="#595959" transform="matrix(-1 0 0 1 3124.94 1669.5)"/><path d="M2678.55 888.475 2775.99 1083.36 2771.89 1085.41 2674.45 890.525ZM2668.3 893.6C2666.04 889.071 2667.87 883.565 2672.4 881.301 2676.93 879.037 2682.43 880.872 2684.7 885.401 2686.96 889.929 2685.13 895.435 2680.6 897.699 2676.07 899.963 2670.57 898.128 2668.3 893.6ZM2782.14 1080.28C2784.4 1084.81 2782.57 1090.32 2778.04 1092.58 2773.51 1094.84 2768.01 1093.01 2765.74 1088.48 2763.48 1083.95 2765.31 1078.45 2769.84 1076.18 2774.37 1073.92 2779.88 1075.75 2782.14 1080.28Z" fill="#595959"/><path d="M2678.55 1278.47 2775.99 1473.36 2771.89 1475.41 2674.45 1280.52ZM2668.3 1283.6C2666.04 1279.07 2667.87 1273.57 2672.4 1271.3 2676.93 1269.04 2682.43 1270.87 2684.7 1275.4 2686.96 1279.93 2685.13 1285.43 2680.6 1287.7 2676.07 1289.96 2670.57 1288.13 2668.3 1283.6ZM2782.14 1470.28C2784.4 1474.81 2782.57 1480.32 2778.04 1482.58 2773.51 1484.84 2768.01 1483.01 2765.74 1478.48 2763.48 1473.95 2765.31 1468.45 2769.84 1466.18 2774.37 1463.92 2779.88 1465.75 2782.14 1470.28Z" fill="#595959"/><path d="M2.04973-1.02486 99.4907 193.857 95.3912 195.907-2.04973 1.02486ZM-8.19892 4.09946C-10.463-0.428678-8.62759-5.93485-4.09946-8.19892 0.428678-10.463 5.93485-8.62759 8.19892-4.09946 10.463 0.428678 8.62759 5.93485 4.09946 8.19892-0.428678 10.463-5.93485 8.62759-8.19892 4.09946ZM105.64 190.782C107.904 195.311 106.069 200.817 101.54 203.081 97.0123 205.345 91.5061 203.509 89.242 198.981 86.978 194.453 88.8133 188.947 93.3415 186.683 97.8696 184.419 103.376 186.254 105.64 190.782Z" fill="#595959" transform="matrix(-1 0 0 1 2773.94 1474.5)"/><path d="M2678.55 1668.48 2775.99 1863.36 2771.89 1865.41 2674.45 1670.53ZM2668.3 1673.6C2666.04 1669.07 2667.87 1663.57 2672.4 1661.3 2676.93 1659.04 2682.43 1660.87 2684.7 1665.4 2686.96 1669.93 2685.13 1675.43 2680.6 1677.7 2676.07 1679.96 2670.57 1678.13 2668.3 1673.6ZM2782.14 1860.28C2784.4 1864.81 2782.57 1870.32 2778.04 1872.58 2773.51 1874.84 2768.01 1873.01 2765.74 1868.48 2763.48 1863.95 2765.31 1858.45 2769.84 1856.18 2774.37 1853.92 2779.88 1855.75 2782.14 1860.28Z" fill="#595959"/><path d="M3.26448e-06-2.29167 253.346-2.29131 253.346 2.29203-3.26448e-06 2.29167ZM-1.30579e-05 9.16667C-5.06262 9.16666-9.16667 5.0626-9.16667-1.30579e-05-9.16666-5.06262-5.0626-9.16667 1.30579e-05-9.16667 5.06262-9.16666 9.16667-5.0626 9.16667 1.30579e-05 9.16666 5.06262 5.0626 9.16667-1.30579e-05 9.16667ZM253.346-9.16631C258.409-9.1663 262.513-5.06224 262.513 0.00037395 262.513 5.06298 258.409 9.16703 253.346 9.16703 248.284 9.16702 244.18 5.06296 244.18 0.000347834 244.18-5.06226 248.284-9.16631 253.346-9.16631Z" fill="#595959" transform="matrix(-1 0 0 1 3026.85 1863.5)"/><path d="M3.26448e-06-2.29167 253.346-2.29131 253.346 2.29203-3.26448e-06 2.29167ZM-1.30579e-05 9.16667C-5.06262 9.16666-9.16667 5.0626-9.16667-1.30579e-05-9.16666-5.06262-5.0626-9.16667 1.30579e-05-9.16667 5.06262-9.16666 9.16667-5.0626 9.16667 1.30579e-05 9.16666 5.06262 5.0626 9.16667-1.30579e-05 9.16667ZM253.346-9.16631C258.409-9.1663 262.513-5.06224 262.513 0.00037395 262.513 5.06298 258.409 9.16703 253.346 9.16703 248.284 9.16702 244.18 5.06296 244.18 0.000347834 244.18-5.06226 248.284-9.16631 253.346-9.16631Z" fill="#595959" transform="matrix(-1 0 0 1 2676.85 889.5)"/><path d="M2.04973-1.02486 99.4907 193.857 95.3912 195.907-2.04973 1.02486ZM-8.19892 4.09946C-10.463-0.428678-8.62759-5.93485-4.09946-8.19892 0.428678-10.463 5.93485-8.62759 8.19892-4.09946 10.463 0.428678 8.62759 5.93485 4.09946 8.19892-0.428678 10.463-5.93485 8.62759-8.19892 4.09946ZM105.64 190.782C107.904 195.311 106.069 200.817 101.54 203.081 97.0123 205.345 91.5061 203.509 89.242 198.981 86.978 194.453 88.8133 188.947 93.3415 186.683 97.8696 184.419 103.376 186.254 105.64 190.782Z" fill="#595959" transform="matrix(-1 0 0 1 2422.94 889.5)"/><path d="M2327.55 1083.48 2424.99 1278.36 2420.89 1280.41 2323.45 1085.52ZM2317.3 1088.6C2315.04 1084.07 2316.87 1078.57 2321.4 1076.3 2325.93 1074.04 2331.43 1075.87 2333.7 1080.4 2335.96 1084.93 2334.13 1090.43 2329.6 1092.7 2325.07 1094.96 2319.57 1093.13 2317.3 1088.6ZM2431.14 1275.28C2433.4 1279.81 2431.57 1285.32 2427.04 1287.58 2422.51 1289.84 2417.01 1288.01 2414.74 1283.48 2412.48 1278.95 2414.31 1273.45 2418.84 1271.18 2423.37 1268.92 2428.88 1270.75 2431.14 1275.28Z" fill="#595959"/><path d="M3.26448e-06-2.29167 253.346-2.29131 253.346 2.29203-3.26448e-06 2.29167ZM-1.30579e-05 9.16667C-5.06262 9.16666-9.16667 5.0626-9.16667-1.30579e-05-9.16666-5.06262-5.0626-9.16667 1.30579e-05-9.16667 5.06262-9.16666 9.16667-5.0626 9.16667 1.30579e-05 9.16666 5.06262 5.0626 9.16667-1.30579e-05 9.16667ZM253.346-9.16631C258.409-9.1663 262.513-5.06224 262.513 0.00037395 262.513 5.06298 258.409 9.16703 253.346 9.16703 248.284 9.16702 244.18 5.06296 244.18 0.000347834 244.18-5.06226 248.284-9.16631 253.346-9.16631Z" fill="#595959" transform="matrix(-1 0 0 1 2676.85 1279.5)"/><path d="M2.04973-1.02486 99.4907 193.857 95.3912 195.907-2.04973 1.02486ZM-8.19892 4.09946C-10.463-0.428678-8.62759-5.93485-4.09946-8.19892 0.428678-10.463 5.93485-8.62759 8.19892-4.09946 10.463 0.428678 8.62759 5.93485 4.09946 8.19892-0.428678 10.463-5.93485 8.62759-8.19892 4.09946ZM105.64 190.782C107.904 195.311 106.069 200.817 101.54 203.081 97.0123 205.345 91.5061 203.509 89.242 198.981 86.978 194.453 88.8133 188.947 93.3415 186.683 97.8696 184.419 103.376 186.254 105.64 190.782Z" fill="#595959" transform="matrix(-1 0 0 1 2422.94 1279.5)"/><path d="M3.26448e-06-2.29167 253.346-2.29131 253.346 2.29203-3.26448e-06 2.29167ZM-1.30579e-05 9.16667C-5.06262 9.16666-9.16667 5.0626-9.16667-1.30579e-05-9.16666-5.06262-5.0626-9.16667 1.30579e-05-9.16667 5.06262-9.16666 9.16667-5.0626 9.16667 1.30579e-05 9.16666 5.06262 5.0626 9.16667-1.30579e-05 9.16667ZM253.346-9.16631C258.409-9.1663 262.513-5.06224 262.513 0.00037395 262.513 5.06298 258.409 9.16703 253.346 9.16703 248.284 9.16702 244.18 5.06296 244.18 0.000347834 244.18-5.06226 248.284-9.16631 253.346-9.16631Z" fill="#595959" transform="matrix(-1 0 0 1 2676.85 1669.5)"/><path d="M2327.55 1473.47 2424.99 1668.36 2420.89 1670.41 2323.45 1475.52ZM2317.3 1478.6C2315.04 1474.07 2316.87 1468.57 2321.4 1466.3 2325.93 1464.04 2331.43 1465.87 2333.7 1470.4 2335.96 1474.93 2334.13 1480.43 2329.6 1482.7 2325.07 1484.96 2319.57 1483.13 2317.3 1478.6ZM2431.14 1665.28C2433.4 1669.81 2431.57 1675.32 2427.04 1677.58 2422.51 1679.84 2417.01 1678.01 2414.74 1673.48 2412.48 1668.95 2414.31 1663.45 2418.84 1661.18 2423.37 1658.92 2428.88 1660.75 2431.14 1665.28Z" fill="#595959"/><path d="M3.26448e-06-2.29167 253.346-2.29131 253.346 2.29203-3.26448e-06 2.29167ZM-1.30579e-05 9.16667C-5.06262 9.16666-9.16667 5.0626-9.16667-1.30579e-05-9.16666-5.06262-5.0626-9.16667 1.30579e-05-9.16667 5.06262-9.16666 9.16667-5.0626 9.16667 1.30579e-05 9.16666 5.06262 5.0626 9.16667-1.30579e-05 9.16667ZM253.346-9.16631C258.409-9.1663 262.513-5.06224 262.513 0.00037395 262.513 5.06298 258.409 9.16703 253.346 9.16703 248.284 9.16702 244.18 5.06296 244.18 0.000347834 244.18-5.06226 248.284-9.16631 253.346-9.16631Z" fill="#595959" transform="matrix(-1 0 0 1 2325.85 1474.5)"/><path d="M2.04973-1.02486 99.4907 193.857 95.3912 195.907-2.04973 1.02486ZM-8.19892 4.09946C-10.463-0.428678-8.62759-5.93485-4.09946-8.19892 0.428678-10.463 5.93485-8.62759 8.19892-4.09946 10.463 0.428678 8.62759 5.93485 4.09946 8.19892-0.428678 10.463-5.93485 8.62759-8.19892 4.09946ZM105.64 190.782C107.904 195.311 106.069 200.817 101.54 203.081 97.0123 205.345 91.5061 203.509 89.242 198.981 86.978 194.453 88.8133 188.947 93.3415 186.683 97.8696 184.419 103.376 186.254 105.64 190.782Z" fill="#595959" transform="matrix(-1 0 0 1 2422.94 1669.5)"/><path d="M3.26448e-06-2.29167 253.346-2.29131 253.346 2.29203-3.26448e-06 2.29167ZM-1.30579e-05 9.16667C-5.06262 9.16666-9.16667 5.0626-9.16667-1.30579e-05-9.16666-5.06262-5.0626-9.16667 1.30579e-05-9.16667 5.06262-9.16666 9.16667-5.0626 9.16667 1.30579e-05 9.16666 5.06262 5.0626 9.16667-1.30579e-05 9.16667ZM253.346-9.16631C258.409-9.1663 262.513-5.06224 262.513 0.00037395 262.513 5.06298 258.409 9.16703 253.346 9.16703 248.284 9.16702 244.18 5.06296 244.18 0.000347834 244.18-5.06226 248.284-9.16631 253.346-9.16631Z" fill="#595959" transform="matrix(-1 0 0 1 2325.85 1863.5)"/><path d="M1976.55 1668.48 2073.99 1863.36 2069.89 1865.41 1972.45 1670.53ZM1966.3 1673.6C1964.04 1669.07 1965.87 1663.57 1970.4 1661.3 1974.93 1659.04 1980.43 1660.87 1982.7 1665.4 1984.96 1669.93 1983.13 1675.43 1978.6 1677.7 1974.07 1679.96 1968.57 1678.13 1966.3 1673.6ZM2080.14 1860.28C2082.4 1864.81 2080.57 1870.32 2076.04 1872.58 2071.51 1874.84 2066.01 1873.01 2063.74 1868.48 2061.48 1863.95 2063.31 1858.45 2067.84 1856.18 2072.37 1853.92 2077.88 1855.75 2080.14 1860.28Z" fill="#595959"/><path d="M2.04973-1.02486 99.4907 193.857 95.3912 195.907-2.04973 1.02486ZM-8.19892 4.09946C-10.463-0.428678-8.62759-5.93485-4.09946-8.19892 0.428678-10.463 5.93485-8.62759 8.19892-4.09946 10.463 0.428678 8.62759 5.93485 4.09946 8.19892-0.428678 10.463-5.93485 8.62759-8.19892 4.09946ZM105.64 190.782C107.904 195.311 106.069 200.817 101.54 203.081 97.0123 205.345 91.5061 203.509 89.242 198.981 86.978 194.453 88.8133 188.947 93.3415 186.683 97.8696 184.419 103.376 186.254 105.64 190.782Z" fill="#595959" transform="matrix(-1 0 0 1 2071.94 1474.5)"/><path d="M2.04973-1.02486 99.4907 193.857 95.3912 195.907-2.04973 1.02486ZM-8.19892 4.09946C-10.463-0.428678-8.62759-5.93485-4.09946-8.19892 0.428678-10.463 5.93485-8.62759 8.19892-4.09946 10.463 0.428678 8.62759 5.93485 4.09946 8.19892-0.428678 10.463-5.93485 8.62759-8.19892 4.09946ZM105.64 190.782C107.904 195.311 106.069 200.817 101.54 203.081 97.0123 205.345 91.5061 203.509 89.242 198.981 86.978 194.453 88.8133 188.947 93.3415 186.683 97.8696 184.419 103.376 186.254 105.64 190.782Z" fill="#595959" transform="matrix(-1 0 0 1 1721.94 1279.5)"/><path d="M1626.55 1473.47 1723.99 1668.36 1719.89 1670.41 1622.45 1475.52ZM1616.3 1478.6C1614.04 1474.07 1615.87 1468.57 1620.4 1466.3 1624.93 1464.04 1630.43 1465.87 1632.7 1470.4 1634.96 1474.93 1633.13 1480.43 1628.6 1482.7 1624.07 1484.96 1618.57 1483.13 1616.3 1478.6ZM1730.14 1665.28C1732.4 1669.81 1730.57 1675.32 1726.04 1677.58 1721.51 1679.84 1716.01 1678.01 1713.74 1673.48 1711.48 1668.95 1713.31 1663.45 1717.84 1661.18 1722.37 1658.92 1727.88 1660.75 1730.14 1665.28Z" fill="#595959"/><path d="M1721.5 1667.21 1974.85 1667.21 1974.85 1671.79 1721.5 1671.79ZM1721.5 1678.67C1716.44 1678.67 1712.33 1674.56 1712.33 1669.5 1712.33 1664.44 1716.44 1660.33 1721.5 1660.33 1726.56 1660.33 1730.67 1664.44 1730.67 1669.5 1730.67 1674.56 1726.56 1678.67 1721.5 1678.67ZM1974.85 1660.33C1979.91 1660.33 1984.01 1664.44 1984.01 1669.5 1984.01 1674.56 1979.91 1678.67 1974.85 1678.67 1969.78 1678.67 1965.68 1674.56 1965.68 1669.5 1965.68 1664.44 1969.78 1660.33 1974.85 1660.33Z" fill="#595959"/><path d="M3.26448e-06-2.29167 253.346-2.29131 253.346 2.29203-3.26448e-06 2.29167ZM-1.30579e-05 9.16667C-5.06262 9.16666-9.16667 5.0626-9.16667-1.30579e-05-9.16666-5.06262-5.0626-9.16667 1.30579e-05-9.16667 5.06262-9.16666 9.16667-5.0626 9.16667 1.30579e-05 9.16666 5.06262 5.0626 9.16667-1.30579e-05 9.16667ZM253.346-9.16631C258.409-9.1663 262.513-5.06224 262.513 0.00037395 262.513 5.06298 258.409 9.16703 253.346 9.16703 248.284 9.16702 244.18 5.06296 244.18 0.000347834 244.18-5.06226 248.284-9.16631 253.346-9.16631Z" fill="#595959" transform="matrix(-1 0 0 1 4430.85 1863.5)"/><path d="M4081.55 1668.48 4178.99 1863.36 4174.89 1865.41 4077.45 1670.53ZM4071.3 1673.6C4069.04 1669.07 4070.87 1663.57 4075.4 1661.3 4079.93 1659.04 4085.44 1660.87 4087.7 1665.4 4089.96 1669.93 4088.13 1675.43 4083.6 1677.7 4079.07 1679.96 4073.57 1678.13 4071.3 1673.6ZM4185.14 1860.28C4187.4 1864.81 4185.57 1870.32 4181.04 1872.58 4176.51 1874.84 4171.01 1873.01 4168.74 1868.48 4166.48 1863.95 4168.31 1858.45 4172.84 1856.18 4177.37 1853.92 4182.88 1855.75 4185.14 1860.28Z" fill="#595959"/><path d="M2.04973-1.02486 99.4907 193.857 95.3912 195.907-2.04973 1.02486ZM-8.19892 4.09946C-10.463-0.428678-8.62759-5.93485-4.09946-8.19892 0.428678-10.463 5.93485-8.62759 8.19892-4.09946 10.463 0.428678 8.62759 5.93485 4.09946 8.19892-0.428678 10.463-5.93485 8.62759-8.19892 4.09946ZM105.64 190.782C107.904 195.311 106.069 200.817 101.54 203.081 97.0123 205.345 91.5061 203.509 89.242 198.981 86.978 194.453 88.8133 188.947 93.3415 186.683 97.8696 184.419 103.376 186.254 105.64 190.782Z" fill="#595959" transform="matrix(-1 0 0 1 4176.94 1863.5)"/><path d="M3730.55 1862.48 3827.99 2057.36 3823.89 2059.41 3726.45 1864.52ZM3720.3 1867.6C3718.04 1863.07 3719.87 1857.57 3724.4 1855.3 3728.93 1853.04 3734.44 1854.87 3736.7 1859.4 3738.96 1863.93 3737.13 1869.43 3732.6 1871.7 3728.07 1873.96 3722.57 1872.13 3720.3 1867.6ZM3834.14 2054.28C3836.4 2058.81 3834.57 2064.32 3830.04 2066.58 3825.51 2068.84 3820.01 2067.01 3817.74 2062.48 3815.48 2057.95 3817.31 2052.45 3821.84 2050.18 3826.37 2047.92 3831.88 2049.75 3834.14 2054.28Z" fill="#595959"/><path d="M3029.55 1862.48 3126.99 2057.36 3122.89 2059.41 3025.45 1864.52ZM3019.3 1867.6C3017.04 1863.07 3018.87 1857.57 3023.4 1855.3 3027.93 1853.04 3033.43 1854.87 3035.7 1859.4 3037.96 1863.93 3036.13 1869.43 3031.6 1871.7 3027.07 1873.96 3021.57 1872.13 3019.3 1867.6ZM3133.14 2054.28C3135.4 2058.81 3133.57 2064.32 3129.04 2066.58 3124.51 2068.84 3119.01 2067.01 3116.74 2062.48 3114.48 2057.95 3116.31 2052.45 3120.84 2050.18 3125.37 2047.92 3130.88 2049.75 3133.14 2054.28Z" fill="#595959"/><path d="M2.04973-1.02486 99.4907 193.857 95.3912 195.907-2.04973 1.02486ZM-8.19892 4.09946C-10.463-0.428678-8.62759-5.93485-4.09946-8.19892 0.428678-10.463 5.93485-8.62759 8.19892-4.09946 10.463 0.428678 8.62759 5.93485 4.09946 8.19892-0.428678 10.463-5.93485 8.62759-8.19892 4.09946ZM105.64 190.782C107.904 195.311 106.069 200.817 101.54 203.081 97.0123 205.345 91.5061 203.509 89.242 198.981 86.978 194.453 88.8133 188.947 93.3415 186.683 97.8696 184.419 103.376 186.254 105.64 190.782Z" fill="#595959" transform="matrix(-1 0 0 1 2773.94 1863.5)"/><path d="M2327.55 1862.48 2424.99 2057.36 2420.89 2059.41 2323.45 1864.52ZM2317.3 1867.6C2315.04 1863.07 2316.87 1857.57 2321.4 1855.3 2325.93 1853.04 2331.43 1854.87 2333.7 1859.4 2335.96 1863.93 2334.13 1869.43 2329.6 1871.7 2325.07 1873.96 2319.57 1872.13 2317.3 1867.6ZM2431.14 2054.28C2433.4 2058.81 2431.57 2064.32 2427.04 2066.58 2422.51 2068.84 2417.01 2067.01 2414.74 2062.48 2412.48 2057.95 2414.31 2052.45 2418.84 2050.18 2423.37 2047.92 2428.88 2049.75 2431.14 2054.28Z" fill="#595959"/><path d="M2.04973-1.02486 99.4907 193.857 95.3912 195.907-2.04973 1.02486ZM-8.19892 4.09946C-10.463-0.428678-8.62759-5.93485-4.09946-8.19892 0.428678-10.463 5.93485-8.62759 8.19892-4.09946 10.463 0.428678 8.62759 5.93485 4.09946 8.19892-0.428678 10.463-5.93485 8.62759-8.19892 4.09946ZM105.64 190.782C107.904 195.311 106.069 200.817 101.54 203.081 97.0123 205.345 91.5061 203.509 89.242 198.981 86.978 194.453 88.8133 188.947 93.3415 186.683 97.8696 184.419 103.376 186.254 105.64 190.782Z" fill="#595959" transform="matrix(-1 0 0 1 2071.94 1863.5)"/><path d="M1719.89 1280.41 1622.45 1085.52 1626.55 1083.48 1723.99 1278.36ZM1730.14 1275.28C1732.4 1279.81 1730.57 1285.32 1726.04 1287.58 1721.51 1289.84 1716.01 1288.01 1713.74 1283.48 1711.48 1278.95 1713.31 1273.45 1717.84 1271.18 1722.37 1268.92 1727.88 1270.75 1730.14 1275.28ZM1616.3 1088.6C1614.04 1084.07 1615.87 1078.57 1620.4 1076.3 1624.93 1074.04 1630.43 1075.87 1632.7 1080.4 1634.96 1084.93 1633.13 1090.43 1628.6 1092.7 1624.07 1094.96 1618.57 1093.13 1616.3 1088.6Z" fill="#595959"/><path d="M2420.89 890.407 2323.45 695.525 2327.55 693.475 2424.99 888.357ZM2431.14 885.282C2433.4 889.81 2431.57 895.317 2427.04 897.581 2422.51 899.845 2417.01 898.009 2414.74 893.481 2412.48 888.953 2414.31 883.447 2418.84 881.183 2423.37 878.919 2428.88 880.754 2431.14 885.282ZM2317.3 698.599C2315.04 694.071 2316.87 688.565 2321.4 686.301 2325.93 684.037 2331.43 685.872 2333.7 690.4 2335.96 694.929 2334.13 700.435 2329.6 702.699 2325.07 704.963 2319.57 703.128 2317.3 698.599Z" fill="#595959"/><path d="M0 307.001 153.5 0 552.5 0 706 307.001 552.5 614.001 153.5 614.001Z" fill="#D9D9D9" fill-rule="evenodd" fill-opacity="0.301961" transform="matrix(-1 0 0 1 1725 1485)"/><path d="M0 578.501 289.25 0 1040.75 0 1330 578.501 1040.75 1157 289.25 1157Z" fill="#D9D9D9" fill-rule="evenodd" fill-opacity="0.4" transform="matrix(-1 0 0 1 1268 635)"/><text fill="#3A3A3A" font-family="Junction Bold,Junction Bold_MSFontService,sans-serif" font-weight="700" font-size="367" transform="matrix(1 0 0 1 249.114 1326)">mre</text><g><g><g><path d="M355.052 156.223C347.951 139.097 328.319 131.16 311.193 138.261 296.99 144.109 288.636 159.147 290.725 173.767L236.84 196.323C230.993 186.298 220.55 178.779 208.854 176.691L208.854 118.629C223.056 114.87 233.917 101.921 233.917 86.4656 233.917 68.0864 218.879 53.0489 200.5 53.0489L200.5 53.0489C182.121 53.0489 167.083 68.0864 167.083 86.4656 167.083 101.921 177.944 114.87 192.146 118.629L192.146 176.273C180.032 178.361 170.007 185.88 164.159 195.905L110.275 173.349C112.363 158.729 104.427 143.692 89.8072 137.844 72.6812 130.743 53.0489 138.679 45.9479 155.805 38.8469 172.931 46.7833 192.563 63.9093 199.664 78.1114 205.512 94.402 200.918 103.174 188.804L158.311 211.36C157.894 213.031 157.894 215.12 157.894 216.791 157.894 225.98 160.818 234.752 166.248 241.853L122.806 285.712C109.857 278.194 93.1489 279.864 82.2885 290.725 69.3395 303.674 69.3395 324.977 82.2885 337.926 95.2374 350.875 116.541 350.875 129.49 337.926 140.35 327.065 142.021 310.357 134.502 297.408L178.779 253.131C185.045 256.891 192.146 258.979 199.664 258.979 200.082 258.979 200.082 258.979 200.5 258.979 200.918 258.979 200.918 258.979 201.335 258.979 208.854 258.979 215.955 256.891 222.221 253.131L266.498 297.408C258.979 310.357 260.65 327.065 271.51 338.344 284.459 351.293 305.762 351.293 318.711 338.344 331.66 325.395 331.66 304.092 318.711 291.143 307.851 280.282 291.143 278.611 278.194 286.13L234.752 242.271C240.182 235.17 243.106 226.816 243.106 217.208 243.106 215.537 243.106 213.449 242.688 211.778L297.826 189.222C306.598 200.918 322.888 205.93 337.09 200.082 353.799 192.563 362.153 173.349 355.052 156.223Z" fill="#3A3A3A" transform="matrix(-1 0 0 1 1572 1592)"/></g></g></g></g></svg>