<svg width="4525" height="2292" xmlns="http://www.w3.org/2000/svg" xmlns:xlink="http://www.w3.org/1999/xlink" xml:space="preserve" overflow="hidden"><defs><clipPath id="clip0"><rect x="65" y="295" width="4525" height="2292"/></clipPath></defs><g clip-path="url(#clip0)" transform="translate(-65 -295)"><path d="M500 1306 532.5 1241 617.5 1241 650 1306 617.5 1371 532.5 1371Z" fill="#D9D9D9" fill-rule="evenodd"/><path d="M1117 1305.49 1186.25 1167 1366.75 1167 1436 1305.49 1366.75 1443.99 1186.25 1443.99Z" fill="#D9D9D9" fill-rule="evenodd" fill-opacity="0.501961"/><path d="M1625 1306 1778.5 999 2177.5 999 2331 1306 2177.5 1613 1778.5 1613Z" fill="#D9D9D9" fill-rule="evenodd" fill-opacity="0.4"/><path d="M65 1890.5 134.25 1752 313.75 1752 383 1890.5 313.75 2029 134.25 2029Z" fill="#D9D9D9" fill-rule="evenodd" fill-opacity="0.501961"/><path d="M1468 2280.5 1537.25 2142 1716.75 2142 1786 2280.5 1716.75 2419 1537.25 2419Z" fill="#D9D9D9" fill-rule="evenodd"/><path d="M2456 1306 2553.5 1111 2806.5 1111 2904 1306 2806.5 1501 2553.5 1501Z" fill="#D9D9D9" fill-rule="evenodd" fill-opacity="0.501961"/><path d="M1976 2280 2129.5 1973 2528.5 1973 2682 2280 2528.5 2587 2129.5 2587Z" fill="#D9D9D9" fill-rule="evenodd" fill-opacity="0.4"/><path d="M851 1111 883.5 1046 967.5 1046 1000 1111 967.5 1176 883.5 1176Z" fill="#D9D9D9" fill-rule="evenodd" fill-opacity="0.501961"/><path d="M767 1890.5 836.25 1752 1015.75 1752 1085 1890.5 1015.75 2029 836.25 2029Z" fill="#D9D9D9" fill-rule="evenodd" fill-opacity="0.8"/><path d="M1468 1500.5 1537.25 1362 1716.75 1362 1786 1500.5 1716.75 1639 1537.25 1639Z" fill="#D9D9D9" fill-rule="evenodd" fill-opacity="0.501961"/><path d="M2605 1695.5 2637.25 1631 2721.75 1631 2754 1695.5 2721.75 1760 2637.25 1760Z" fill="#D9D9D9" fill-rule="evenodd"/><path d="M2170 1110.5 2239.25 972 2418.75 972 2488 1110.5 2418.75 1249 2239.25 1249Z" fill="#D9D9D9" fill-rule="evenodd" fill-opacity="0.501961"/><path d="M416 2085.5 485.25 1947 664.75 1947 734 2085.5 664.75 2224 485.25 2224Z" fill="#D9D9D9" fill-rule="evenodd"/><path d="M662 1500.49 776.745 1271 1075.26 1271 1190 1500.49 1075.26 1729.98 776.745 1729.98Z" fill="#D9D9D9" fill-rule="evenodd" fill-opacity="0.8"/><g><g><g><path d="M219.984 194.512 187.823 162.351C183.449 157.977 177.531 156.433 171.871 157.462L160.55 146.142C170.584 133.277 176.502 116.81 176.502 99.3145 176.502 56.8614 141.768 22.1271 99.3145 22.1271 56.8614 22.1271 22.1271 56.8614 22.1271 99.3145 22.1271 141.768 56.8614 176.502 99.3145 176.502 116.81 176.502 133.02 170.584 146.142 160.55L157.462 171.871C156.433 177.531 157.977 183.449 162.351 187.823L194.512 219.984C198.114 223.586 202.746 225.387 207.377 225.387 212.008 225.387 216.639 223.586 220.241 219.984 226.931 212.78 226.931 201.459 219.984 194.512ZM99.0572 160.807C65.0947 160.807 37.3073 133.02 37.3073 99.0572 37.3073 65.0947 65.0947 37.3073 99.0572 37.3073 133.02 37.3073 160.807 65.0947 160.807 99.0572 160.807 133.02 133.02 160.807 99.0572 160.807Z" fill="#3A3A3A" transform="matrix(1.00405 0 0 1 804 1377)"/></g></g></g><path d="M2065 1890.49 2179.75 1661 2478.26 1661 2593 1890.49 2478.26 2119.98 2179.75 2119.98Z" fill="#D9D9D9" fill-rule="evenodd" fill-opacity="0.8"/><g><g><g><path d="M79.7605 64.323 149.229 64.323 149.229 74.6146 79.7605 74.6146Z" fill="#3A3A3A" transform="matrix(1.00405 0 0 1 2205 1767)"/><path d="M105.49 102.917 149.229 102.917 149.229 113.208 105.49 113.208Z" fill="#3A3A3A" transform="matrix(1.00405 0 0 1 2205 1767)"/><path d="M79.7605 102.917 92.6251 102.917 92.6251 113.208 79.7605 113.208Z" fill="#3A3A3A" transform="matrix(1.00405 0 0 1 2205 1767)"/><path d="M105.49 128.646 149.229 128.646 149.229 138.938 105.49 138.938Z" fill="#3A3A3A" transform="matrix(1.00405 0 0 1 2205 1767)"/><path d="M79.7605 128.646 92.6251 128.646 92.6251 138.938 79.7605 138.938Z" fill="#3A3A3A" transform="matrix(1.00405 0 0 1 2205 1767)"/><path d="M105.49 154.375 149.229 154.375 149.229 164.667 105.49 164.667Z" fill="#3A3A3A" transform="matrix(1.00405 0 0 1 2205 1767)"/><path d="M79.7605 154.375 92.6251 154.375 92.6251 164.667 79.7605 164.667Z" fill="#3A3A3A" transform="matrix(1.00405 0 0 1 2205 1767)"/><path d="M20.5833 187.823 20.5833 223.844 208.406 223.844 208.406 187.823 182.677 187.823 182.677 95.198 223.844 95.198 223.844 51.4584C223.844 35.7636 211.237 23.1563 195.542 23.1563L74.6146 23.1563C58.9198 23.1563 46.3125 35.7636 46.3125 51.4584L46.3125 187.823 20.5833 187.823ZM170.327 38.5938C168.269 42.4532 167.24 47.0844 167.24 51.4584L167.24 200.688 61.75 200.688 61.75 51.4584C61.75 44.2542 67.4105 38.5938 74.6146 38.5938L170.327 38.5938ZM182.677 79.7605 182.677 51.4584C182.677 44.2542 188.338 38.5938 195.542 38.5938 202.746 38.5938 208.406 44.2542 208.406 51.4584L208.406 79.7605 182.677 79.7605Z" fill="#3A3A3A" transform="matrix(1.00405 0 0 1 2205 1767)"/></g></g></g><path d="M311 1695.49 425.745 1466 724.255 1466 839 1695.49 724.255 1924.98 425.745 1924.98Z" fill="#D9D9D9" fill-rule="evenodd" fill-opacity="0.8"/><g><g><g><path d="M51.4584 33.4479 36.0209 33.4479 36.0209 213.552 213.552 213.552 213.552 198.115 51.4584 198.115 51.4584 33.4479Z" fill="#3A3A3A" transform="matrix(1.00405 0 0 1 449 1572)"/><path d="M174.958 33.4479 213.552 33.4479 213.552 182.677 174.958 182.677Z" fill="#3A3A3A" transform="matrix(-1.00405 -1.22465e-16 1.22961e-16 -1 839.084 1788.13)"/><path d="M120.927 84.9063 159.521 84.9063 159.521 182.677 120.927 182.677Z" fill="#3A3A3A" transform="matrix(-1.00405 -1.22465e-16 1.22961e-16 -1 730.583 1839.58)"/><path d="M66.8959 131.219 105.49 131.219 105.49 182.677 66.8959 182.677Z" fill="#3A3A3A" transform="matrix(-1.00405 -1.22465e-16 1.22961e-16 -1 622.083 1885.9)"/><path d="M149.229 68.7998 149.229 33.4479 113.877 33.4479 127.926 47.4961 65.841 109.581 73.0966 116.836 135.181 54.7774 149.229 68.7998Z" fill="#3A3A3A" transform="matrix(1.00405 0 0 1 449 1572)"/></g></g></g><path d="M1714 1695.49 1828.75 1466 2127.26 1466 2242 1695.49 2127.26 1924.98 1828.75 1924.98Z" fill="#D9D9D9" fill-rule="evenodd" fill-opacity="0.8"/><g><g><g><path d="M164.667 174.958 164.667 154.375 77.1876 154.375C74.3573 154.375 72.0417 152.059 72.0417 149.229L72.0417 97.7709C72.0417 94.9407 74.3573 92.6251 77.1876 92.6251L164.667 92.6251 164.667 72.0417C164.667 66.3813 160.036 61.75 154.375 61.75L145.37 61.75C144.598 61.75 144.083 61.2355 144.083 60.4636L144.083 52.7448C144.083 51.973 144.598 51.4584 145.37 51.4584L151.802 51.4584C153.346 51.4584 154.375 50.4292 154.375 48.8854L154.375 30.875C154.375 25.2146 149.744 20.5833 144.083 20.5833L72.0417 20.5833C66.3813 20.5833 61.75 25.2146 61.75 30.875L61.75 48.8854C61.75 50.4292 62.7792 51.4584 64.323 51.4584L70.7553 51.4584C71.5271 51.4584 72.0417 51.973 72.0417 52.7448L72.0417 60.4636C72.0417 61.2355 71.5271 61.75 70.7553 61.75L61.75 61.75C56.0896 61.75 51.4584 66.3813 51.4584 72.0417L51.4584 195.542C51.4584 201.202 56.0896 205.833 61.75 205.833L97.7709 205.833C97.7709 188.852 111.665 174.958 128.646 174.958L164.667 174.958Z" fill="#3A3A3A" transform="matrix(1.00405 0 0 1 1854 1572)"/><path d="M82.3334 105.49 82.3334 141.511C82.3334 143.054 83.3626 144.083 84.9063 144.083L164.667 144.083 164.667 102.917 84.9063 102.917C83.3626 102.917 82.3334 103.946 82.3334 105.49Z" fill="#3A3A3A" transform="matrix(1.00405 0 0 1 1854 1572)"/><path d="M151.802 216.125 128.646 216.125C122.985 216.125 118.354 211.494 118.354 205.833 118.354 200.173 122.985 195.542 128.646 195.542L151.802 195.542 151.802 216.125ZM174.958 185.25 128.646 185.25C117.325 185.25 108.063 194.513 108.063 205.833 108.063 217.154 117.325 226.417 128.646 226.417L174.958 226.417C186.279 226.417 195.542 217.154 195.542 205.833 195.542 194.513 186.279 185.25 174.958 185.25Z" fill="#3A3A3A" transform="matrix(1.00405 0 0 1 1854 1572)"/></g></g></g><path d="M1013 1695.5 1127.75 1466 1425.25 1466 1540 1695.5 1425.25 1925 1127.75 1925Z" fill="#D9D9D9" fill-rule="evenodd" fill-opacity="0.8"/><g><g><g><path d="M1361.37 1703.99 1343.61 1673.37 1343.61 1672.34C1344.69 1644.14 1330.15 1617.64 1305.79 1603.39 1281.43 1588.98 1251.16 1588.98 1226.8 1603.39 1202.39 1617.59 1187.84 1644.13 1188.98 1672.34 1188.89 1696.54 1200.12 1719.39 1219.34 1734.09L1219.34 1798.42 1300.64 1798.42 1300.64 1767.8 1313.25 1767.8C1321.38 1767.85 1329.18 1764.6 1334.86 1758.79 1340.49 1753.01 1343.63 1745.25 1343.61 1737.18L1343.61 1721.74 1354.93 1721.74C1361.65 1721.23 1367.57 1713.51 1361.37 1703.99ZM1259.33 1694.1C1264.36 1693.32 1266.99 1699.62 1263.87 1703.84L1263.41 1704.42C1260.09 1708.47 1253.22 1707.62 1252.74 1702.56 1252.45 1699.6 1248.56 1696.55 1246.77 1698.85L1235.36 1713.51 1224.91 1705.37C1222.6 1703.57 1225.65 1699.69 1228.62 1699.4 1233.68 1698.92 1234.53 1692.05 1230.48 1688.73L1229.89 1688.28C1225.68 1685.16 1219.38 1687.78 1220.15 1692.81 1220.61 1695.75 1217.58 1699.67 1215.28 1697.87L1205.41 1690.19 1216.87 1675.47C1218.67 1673.16 1214.75 1670.14 1211.81 1670.59 1206.77 1671.37 1204.15 1665.06 1207.27 1660.85L1207.72 1660.27C1211.04 1656.22 1217.91 1657.06 1218.4 1662.13 1218.68 1665.09 1222.57 1668.14 1224.36 1665.84L1235.77 1651.17 1245.58 1658.81C1247.88 1660.61 1244.84 1664.49 1241.87 1664.77 1236.8 1665.26 1235.96 1672.13 1240.01 1675.44L1240.6 1675.9C1244.81 1679.02 1251.12 1676.39 1250.34 1671.36 1249.89 1668.42 1252.9 1664.5 1255.21 1666.3L1265.73 1674.49 1254.27 1689.22C1252.47 1691.52 1256.38 1694.55 1259.33 1694.1ZM1298.35 1651.47C1296.38 1653 1293.81 1649.66 1294.2 1647.15 1294.87 1642.86 1289.37 1640.72 1285.77 1643.37L1285.27 1643.76C1281.81 1646.59 1282.66 1652.34 1286.97 1652.77 1289.5 1653.02 1292.09 1656.33 1290.13 1657.86L1281.71 1664.4 1271.95 1651.83C1270.43 1649.87 1267.11 1652.47 1266.86 1654.99 1266.44 1659.31 1260.69 1660.15 1257.86 1656.69L1257.46 1656.19C1254.81 1652.58 1256.95 1647.1 1261.24 1647.76 1263.75 1648.15 1267.08 1645.58 1265.56 1643.61L1255.85 1631.11 1264.22 1624.61C1266.19 1623.08 1268.76 1626.41 1268.37 1628.92 1267.7 1633.21 1273.2 1635.36 1276.79 1632.71L1277.31 1632.32C1280.77 1629.49 1279.92 1623.73 1275.6 1623.31 1273.08 1623.07 1270.48 1619.75 1272.45 1618.22L1281.42 1611.26 1291.18 1623.82C1292.7 1625.78 1296.03 1623.19 1296.27 1620.66 1296.69 1616.34 1302.45 1615.5 1305.28 1618.96L1305.66 1619.46C1308.31 1623.06 1306.18 1628.55 1301.88 1627.89 1299.38 1627.5 1296.04 1630.07 1297.56 1632.03L1307.27 1644.56Z" fill="#3A3A3A"/></g></g></g><path d="M1363 1890.49 1477.75 1661 1776.26 1661 1891 1890.49 1776.26 2119.98 1477.75 2119.98Z" fill="#D9D9D9" fill-rule="evenodd" fill-opacity="0.8"/><g><g><g><path d="M1740.71 1898.22C1740.74 1892.56 1736.17 1887.96 1730.52 1887.93 1728.6 1887.92 1726.73 1888.45 1725.1 1889.45L1681.1 1914.61C1681.69 1917.47 1681.67 1920.42 1681.04 1923.28 1678.74 1932.83 1670.12 1939.52 1660.29 1939.39L1614.64 1939.39 1614.64 1929.09 1660.95 1929.09C1666.63 1929.09 1671.24 1924.49 1671.24 1918.8 1671.24 1913.12 1666.63 1908.51 1660.95 1908.51L1599.2 1908.51C1594.9 1908.51 1590.7 1909.71 1587.05 1911.98L1514.29 1947.1 1550.31 1983.12C1566.96 1966.48 1588.58 1959.97 1612.06 1959.97L1660.15 1959.97C1662.34 1959.97 1664.47 1959.27 1666.24 1957.97L1736.91 1906.14C1739.3 1904.21 1740.7 1901.3 1740.71 1898.22Z" fill="#3A3A3A"/><path d="M1637.79 1820.3C1621.58 1788.14 1594.05 1807.43 1594.05 1825.44 1594.05 1852.46 1637.79 1885.91 1637.79 1885.91 1637.79 1885.91 1681.53 1852.46 1681.53 1825.44 1681.53 1807.43 1654 1788.14 1637.79 1820.3Z" fill="#3A3A3A"/></g></g></g><path d="M2.04973-1.02486 99.4907 193.857 95.3912 195.907-2.04973 1.02486ZM-8.19892 4.09946C-10.463-0.428678-8.62759-5.93485-4.09946-8.19892 0.428678-10.463 5.93485-8.62759 8.19892-4.09946 10.463 0.428678 8.62759 5.93485 4.09946 8.19892-0.428678 10.463-5.93485 8.62759-8.19892 4.09946ZM105.64 190.782C107.904 195.311 106.069 200.817 101.54 203.081 97.0123 205.345 91.5061 203.509 89.242 198.981 86.978 194.453 88.8133 188.947 93.3415 186.683 97.8696 184.419 103.376 186.254 105.64 190.782Z" fill="#7F7F7F" transform="matrix(1 0 0 -1 448.5 1111.38)"/><path d="M543.891 917.407 446.45 722.525 450.55 720.475 547.991 915.357ZM554.14 912.282C556.404 916.811 554.569 922.317 550.041 924.581 545.512 926.845 540.006 925.01 537.742 920.481 535.478 915.953 537.313 910.447 541.842 908.183 546.37 905.919 551.876 907.754 554.14 912.282ZM440.301 725.599C438.037 721.071 439.872 715.565 444.401 713.301 448.929 711.037 454.435 712.872 456.699 717.401 458.963 721.929 457.128 727.435 452.6 729.699 448.071 731.963 442.565 730.128 440.301 725.599Z" fill="#7F7F7F"/><path d="M896.5 329.208 1149.85 329.209 1149.85 333.792 896.5 333.792ZM896.5 340.667C891.437 340.667 887.333 336.562 887.333 331.5 887.333 326.437 891.437 322.333 896.5 322.333 901.563 322.333 905.667 326.437 905.667 331.5 905.667 336.562 901.563 340.667 896.5 340.667ZM1149.85 322.334C1154.91 322.334 1159.01 326.438 1159.01 331.5 1159.01 336.563 1154.91 340.667 1149.85 340.667 1144.78 340.667 1140.68 336.563 1140.68 331.5 1140.68 326.438 1144.78 322.334 1149.85 322.334Z" fill="#7F7F7F"/><path d="M1152.55 330.475 1249.99 525.357 1245.89 527.407 1148.45 332.525ZM1142.3 335.599C1140.04 331.071 1141.87 325.565 1146.4 323.301 1150.93 321.037 1156.43 322.872 1158.7 327.4 1160.96 331.929 1159.13 337.435 1154.6 339.699 1150.07 341.963 1144.57 340.127 1142.3 335.599ZM1256.14 522.282C1258.4 526.81 1256.57 532.317 1252.04 534.581 1247.51 536.845 1242.01 535.009 1239.74 530.481 1237.48 525.953 1239.31 520.447 1243.84 518.183 1248.37 515.919 1253.88 517.754 1256.14 522.282Z" fill="#7F7F7F"/><path d="M2.04973-1.02486 99.4907 193.857 95.3912 195.907-2.04973 1.02486ZM-8.19892 4.09946C-10.463-0.428678-8.62759-5.93485-4.09946-8.19892 0.428678-10.463 5.93485-8.62759 8.19892-4.09946 10.463 0.428678 8.62759 5.93485 4.09946 8.19892-0.428678 10.463-5.93485 8.62759-8.19892 4.09946ZM105.64 190.782C107.904 195.311 106.069 200.817 101.54 203.081 97.0123 205.345 91.5061 203.509 89.242 198.981 86.978 194.453 88.8133 188.947 93.3415 186.683 97.8696 184.419 103.376 186.254 105.64 190.782Z" fill="#7F7F7F" transform="matrix(-1 0 0 1 1247.94 526.5)"/><path d="M450.55 1110.47 547.991 1305.36 543.891 1307.41 446.45 1112.52ZM440.301 1115.6C438.037 1111.07 439.872 1105.57 444.401 1103.3 448.929 1101.04 454.435 1102.87 456.699 1107.4 458.963 1111.93 457.128 1117.43 452.6 1119.7 448.071 1121.96 442.565 1120.13 440.301 1115.6ZM554.14 1302.28C556.404 1306.81 554.569 1312.32 550.04 1314.58 545.512 1316.84 540.006 1315.01 537.742 1310.48 535.478 1305.95 537.313 1300.45 541.842 1298.18 546.37 1295.92 551.876 1297.75 554.14 1302.28Z" fill="#7F7F7F"/><path d="M546.5 1304.21 799.846 1304.21 799.846 1308.79 546.5 1308.79ZM546.5 1315.67C541.437 1315.67 537.333 1311.56 537.333 1306.5 537.333 1301.44 541.437 1297.33 546.5 1297.33 551.563 1297.33 555.667 1301.44 555.667 1306.5 555.667 1311.56 551.563 1315.67 546.5 1315.67ZM799.847 1297.33C804.909 1297.33 809.013 1301.44 809.013 1306.5 809.013 1311.56 804.909 1315.67 799.846 1315.67 794.784 1315.67 790.68 1311.56 790.68 1306.5 790.68 1301.44 794.784 1297.33 799.847 1297.33Z" fill="#7F7F7F"/><path d="M2.04973-1.02486 99.4907 193.857 95.3912 195.907-2.04973 1.02486ZM-8.19892 4.09946C-10.463-0.428678-8.62759-5.93485-4.09946-8.19892 0.428678-10.463 5.93485-8.62759 8.19892-4.09946 10.463 0.428678 8.62759 5.93485 4.09946 8.19892-0.428678 10.463-5.93485 8.62759-8.19892 4.09946ZM105.64 190.782C107.904 195.311 106.069 200.817 101.54 203.081 97.0123 205.345 91.5061 203.509 89.242 198.981 86.978 194.453 88.8133 188.947 93.3415 186.683 97.8696 184.419 103.376 186.254 105.64 190.782Z" fill="#7F7F7F" transform="matrix(-1 0 0 1 896.941 1111.5)"/><path d="M896.5 1109.21 1149.85 1109.21 1149.85 1113.79 896.5 1113.79ZM896.5 1120.67C891.437 1120.67 887.333 1116.56 887.333 1111.5 887.333 1106.44 891.437 1102.33 896.5 1102.33 901.563 1102.33 905.667 1106.44 905.667 1111.5 905.667 1116.56 901.563 1120.67 896.5 1120.67ZM1149.85 1102.33C1154.91 1102.33 1159.01 1106.44 1159.01 1111.5 1159.01 1116.56 1154.91 1120.67 1149.85 1120.67 1144.78 1120.67 1140.68 1116.56 1140.68 1111.5 1140.68 1106.44 1144.78 1102.33 1149.85 1102.33Z" fill="#7F7F7F"/><path d="M1152.55 720.475 1249.99 915.357 1245.89 917.407 1148.45 722.525ZM1142.3 725.6C1140.04 721.071 1141.87 715.565 1146.4 713.301 1150.93 711.037 1156.43 712.872 1158.7 717.401 1160.96 721.929 1159.13 727.435 1154.6 729.699 1150.07 731.963 1144.57 730.128 1142.3 725.6ZM1256.14 912.282C1258.4 916.811 1256.57 922.317 1252.04 924.581 1247.51 926.845 1242.01 925.01 1239.74 920.481 1237.48 915.953 1239.31 910.447 1243.84 908.183 1248.37 905.919 1253.88 907.754 1256.14 912.282Z" fill="#7F7F7F"/><path d="M2.04973-1.02486 99.4907 193.857 95.3912 195.907-2.04973 1.02486ZM-8.19892 4.09946C-10.463-0.428678-8.62759-5.93485-4.09946-8.19892 0.428678-10.463 5.93485-8.62759 8.19892-4.09946 10.463 0.428678 8.62759 5.93485 4.09946 8.19892-0.428678 10.463-5.93485 8.62759-8.19892 4.09946ZM105.64 190.782C107.904 195.311 106.069 200.817 101.54 203.081 97.0123 205.345 91.5061 203.509 89.242 198.981 86.978 194.453 88.8133 188.947 93.3415 186.683 97.8696 184.419 103.376 186.254 105.64 190.782Z" fill="#7F7F7F" transform="matrix(-1 0 0 1 1247.94 916.5)"/><path d="M2.04973-1.02486 99.4907 193.857 95.3912 195.907-2.04973 1.02486ZM-8.19892 4.09946C-10.463-0.428678-8.62759-5.93485-4.09946-8.19892 0.428678-10.463 5.93485-8.62759 8.19892-4.09946 10.463 0.428678 8.62759 5.93485 4.09946 8.19892-0.428678 10.463-5.93485 8.62759-8.19892 4.09946ZM105.64 190.782C107.904 195.311 106.069 200.817 101.54 203.081 97.0123 205.345 91.5061 203.509 89.242 198.981 86.978 194.453 88.8133 188.947 93.3415 186.683 97.8696 184.419 103.376 186.254 105.64 190.782Z" fill="#7F7F7F" transform="matrix(1 0 0 -1 1150.5 1501.38)"/><path d="M1247.5 1304.21 1500.85 1304.21 1500.85 1308.79 1247.5 1308.79ZM1247.5 1315.67C1242.44 1315.67 1238.33 1311.56 1238.33 1306.5 1238.33 1301.44 1242.44 1297.33 1247.5 1297.33 1252.56 1297.33 1256.67 1301.44 1256.67 1306.5 1256.67 1311.56 1252.56 1315.67 1247.5 1315.67ZM1500.85 1297.33C1505.91 1297.33 1510.01 1301.44 1510.01 1306.5 1510.01 1311.56 1505.91 1315.67 1500.85 1315.67 1495.78 1315.67 1491.68 1311.56 1491.68 1306.5 1491.68 1301.44 1495.78 1297.33 1500.85 1297.33Z" fill="#7F7F7F"/><path d="M1503.55 915.475 1600.99 1110.36 1596.89 1112.41 1499.45 917.525ZM1493.3 920.599C1491.04 916.071 1492.87 910.565 1497.4 908.301 1501.93 906.037 1507.43 907.872 1509.7 912.4 1511.96 916.929 1510.13 922.435 1505.6 924.699 1501.07 926.963 1495.57 925.128 1493.3 920.599ZM1607.14 1107.28C1609.4 1111.81 1607.57 1117.32 1603.04 1119.58 1598.51 1121.84 1593.01 1120.01 1590.74 1115.48 1588.48 1110.95 1590.31 1105.45 1594.84 1103.18 1599.37 1100.92 1604.88 1102.75 1607.14 1107.28Z" fill="#7F7F7F"/><path d="M1247.5 914.208 1500.85 914.209 1500.85 918.792 1247.5 918.792ZM1247.5 925.667C1242.44 925.667 1238.33 921.563 1238.33 916.5 1238.33 911.437 1242.44 907.333 1247.5 907.333 1252.56 907.333 1256.67 911.437 1256.67 916.5 1256.67 921.563 1252.56 925.667 1247.5 925.667ZM1500.85 907.334C1505.91 907.334 1510.01 911.438 1510.01 916.5 1510.01 921.563 1505.91 925.667 1500.85 925.667 1495.78 925.667 1491.68 921.563 1491.68 916.5 1491.68 911.438 1495.78 907.334 1500.85 907.334Z" fill="#7F7F7F"/><path d="M1598.5 1109.21 1851.85 1109.21 1851.85 1113.79 1598.5 1113.79ZM1598.5 1120.67C1593.44 1120.67 1589.33 1116.56 1589.33 1111.5 1589.33 1106.44 1593.44 1102.33 1598.5 1102.33 1603.56 1102.33 1607.67 1106.44 1607.67 1111.5 1607.67 1116.56 1603.56 1120.67 1598.5 1120.67ZM1851.85 1102.33C1856.91 1102.33 1861.01 1106.44 1861.01 1111.5 1861.01 1116.56 1856.91 1120.67 1851.85 1120.67 1846.78 1120.67 1842.68 1116.56 1842.68 1111.5 1842.68 1106.44 1846.78 1102.33 1851.85 1102.33Z" fill="#7F7F7F"/><path d="M1503.55 1305.48 1600.99 1500.36 1596.89 1502.41 1499.45 1307.53ZM1493.3 1310.6C1491.04 1306.07 1492.87 1300.57 1497.4 1298.3 1501.93 1296.04 1507.43 1297.87 1509.7 1302.4 1511.96 1306.93 1510.13 1312.43 1505.6 1314.7 1501.07 1316.96 1495.57 1315.13 1493.3 1310.6ZM1607.14 1497.28C1609.4 1501.81 1607.57 1507.32 1603.04 1509.58 1598.51 1511.84 1593.01 1510.01 1590.74 1505.48 1588.48 1500.95 1590.31 1495.45 1594.84 1493.18 1599.37 1490.92 1604.88 1492.75 1607.14 1497.28Z" fill="#7F7F7F"/><path d="M2.04973-1.02486 99.4907 193.857 95.3912 195.907-2.04973 1.02486ZM-8.19892 4.09946C-10.463-0.428678-8.62759-5.93485-4.09946-8.19892 0.428678-10.463 5.93485-8.62759 8.19892-4.09946 10.463 0.428678 8.62759 5.93485 4.09946 8.19892-0.428678 10.463-5.93485 8.62759-8.19892 4.09946ZM105.64 190.782C107.904 195.311 106.069 200.817 101.54 203.081 97.0123 205.345 91.5061 203.509 89.242 198.981 86.978 194.453 88.8133 188.947 93.3415 186.683 97.8696 184.419 103.376 186.254 105.64 190.782Z" fill="#7F7F7F" transform="matrix(-1 0 0 1 1948.94 916.5)"/><path d="M1853.55 1110.47 1950.99 1305.36 1946.89 1307.41 1849.45 1112.52ZM1843.3 1115.6C1841.04 1111.07 1842.87 1105.57 1847.4 1103.3 1851.93 1101.04 1857.43 1102.87 1859.7 1107.4 1861.96 1111.93 1860.13 1117.43 1855.6 1119.7 1851.07 1121.96 1845.57 1120.13 1843.3 1115.6ZM1957.14 1302.28C1959.4 1306.81 1957.57 1312.32 1953.04 1314.58 1948.51 1316.84 1943.01 1315.01 1940.74 1310.48 1938.48 1305.95 1940.31 1300.45 1944.84 1298.18 1949.37 1295.92 1954.88 1297.75 1957.14 1302.28Z" fill="#7F7F7F"/><path d="M2.04973-1.02486 99.4907 193.857 95.3912 195.907-2.04973 1.02486ZM-8.19892 4.09946C-10.463-0.428678-8.62759-5.93485-4.09946-8.19892 0.428678-10.463 5.93485-8.62759 8.19892-4.09946 10.463 0.428678 8.62759 5.93485 4.09946 8.19892-0.428678 10.463-5.93485 8.62759-8.19892 4.09946ZM105.64 190.782C107.904 195.311 106.069 200.817 101.54 203.081 97.0123 205.345 91.5061 203.509 89.242 198.981 86.978 194.453 88.8133 188.947 93.3415 186.683 97.8696 184.419 103.376 186.254 105.64 190.782Z" fill="#7F7F7F" transform="matrix(-1 0 0 1 1948.94 1306.5)"/><path d="M1598.5 1499.21 1851.85 1499.21 1851.85 1503.79 1598.5 1503.79ZM1598.5 1510.67C1593.44 1510.67 1589.33 1506.56 1589.33 1501.5 1589.33 1496.44 1593.44 1492.33 1598.5 1492.33 1603.56 1492.33 1607.67 1496.44 1607.67 1501.5 1607.67 1506.56 1603.56 1510.67 1598.5 1510.67ZM1851.85 1492.33C1856.91 1492.33 1861.01 1496.44 1861.01 1501.5 1861.01 1506.56 1856.91 1510.67 1851.85 1510.67 1846.78 1510.67 1842.68 1506.56 1842.68 1501.5 1842.68 1496.44 1846.78 1492.33 1851.85 1492.33Z" fill="#7F7F7F"/><path d="M2.04973-1.02486 99.4907 193.857 95.3912 195.907-2.04973 1.02486ZM-8.19892 4.09946C-10.463-0.428678-8.62759-5.93485-4.09946-8.19892 0.428678-10.463 5.93485-8.62759 8.19892-4.09946 10.463 0.428678 8.62759 5.93485 4.09946 8.19892-0.428678 10.463-5.93485 8.62759-8.19892 4.09946ZM105.64 190.782C107.904 195.311 106.069 200.817 101.54 203.081 97.0123 205.345 91.5061 203.509 89.242 198.981 86.978 194.453 88.8133 188.947 93.3415 186.683 97.8696 184.419 103.376 186.254 105.64 190.782Z" fill="#7F7F7F" transform="matrix(-1 0 0 1 2299.94 721.5)"/><path d="M1949.5 914.208 2202.85 914.209 2202.85 918.792 1949.5 918.792ZM1949.5 925.667C1944.44 925.667 1940.33 921.563 1940.33 916.5 1940.33 911.437 1944.44 907.333 1949.5 907.333 1954.56 907.333 1958.67 911.437 1958.67 916.5 1958.67 921.563 1954.56 925.667 1949.5 925.667ZM2202.85 907.334C2207.91 907.334 2212.01 911.438 2212.01 916.5 2212.01 921.563 2207.91 925.667 2202.85 925.667 2197.78 925.667 2193.68 921.563 2193.68 916.5 2193.68 911.438 2197.78 907.334 2202.85 907.334Z" fill="#7F7F7F"/><path d="M2204.55 915.475 2301.99 1110.36 2297.89 1112.41 2200.45 917.525ZM2194.3 920.599C2192.04 916.071 2193.87 910.565 2198.4 908.301 2202.93 906.037 2208.43 907.872 2210.7 912.4 2212.96 916.929 2211.13 922.435 2206.6 924.699 2202.07 926.963 2196.57 925.128 2194.3 920.599ZM2308.14 1107.28C2310.4 1111.81 2308.57 1117.32 2304.04 1119.58 2299.51 1121.84 2294.01 1120.01 2291.74 1115.48 2289.48 1110.95 2291.31 1105.45 2295.84 1103.18 2300.37 1100.92 2305.88 1102.75 2308.14 1107.28Z" fill="#7F7F7F"/><path d="M1949.5 1304.21 2202.85 1304.21 2202.85 1308.79 1949.5 1308.79ZM1949.5 1315.67C1944.44 1315.67 1940.33 1311.56 1940.33 1306.5 1940.33 1301.44 1944.44 1297.33 1949.5 1297.33 1954.56 1297.33 1958.67 1301.44 1958.67 1306.5 1958.67 1311.56 1954.56 1315.67 1949.5 1315.67ZM2202.85 1297.33C2207.91 1297.33 2212.01 1301.44 2212.01 1306.5 2212.01 1311.56 2207.91 1315.67 2202.85 1315.67 2197.78 1315.67 2193.68 1311.56 2193.68 1306.5 2193.68 1301.44 2197.78 1297.33 2202.85 1297.33Z" fill="#7F7F7F"/><path d="M2300.5 1109.21 2553.85 1109.21 2553.85 1113.79 2300.5 1113.79ZM2300.5 1120.67C2295.44 1120.67 2291.33 1116.56 2291.33 1111.5 2291.33 1106.44 2295.44 1102.33 2300.5 1102.33 2305.56 1102.33 2309.67 1106.44 2309.67 1111.5 2309.67 1116.56 2305.56 1120.67 2300.5 1120.67ZM2553.85 1102.33C2558.91 1102.33 2563.01 1106.44 2563.01 1111.5 2563.01 1116.56 2558.91 1120.67 2553.85 1120.67 2548.78 1120.67 2544.68 1116.56 2544.68 1111.5 2544.68 1106.44 2548.78 1102.33 2553.85 1102.33Z" fill="#7F7F7F"/><path d="M2204.55 1305.48 2301.99 1500.36 2297.89 1502.41 2200.45 1307.53ZM2194.3 1310.6C2192.04 1306.07 2193.87 1300.57 2198.4 1298.3 2202.93 1296.04 2208.43 1297.87 2210.7 1302.4 2212.96 1306.93 2211.13 1312.43 2206.6 1314.7 2202.07 1316.96 2196.57 1315.13 2194.3 1310.6ZM2308.14 1497.28C2310.4 1501.81 2308.57 1507.32 2304.04 1509.58 2299.51 1511.84 2294.01 1510.01 2291.74 1505.48 2289.48 1500.95 2291.31 1495.45 2295.84 1493.18 2300.37 1490.92 2305.88 1492.75 2308.14 1497.28Z" fill="#7F7F7F"/><path d="M2.04973-1.02486 99.4907 193.857 95.3912 195.907-2.04973 1.02486ZM-8.19892 4.09946C-10.463-0.428678-8.62759-5.93485-4.09946-8.19892 0.428678-10.463 5.93485-8.62759 8.19892-4.09946 10.463 0.428678 8.62759 5.93485 4.09946 8.19892-0.428678 10.463-5.93485 8.62759-8.19892 4.09946ZM105.64 190.782C107.904 195.311 106.069 200.817 101.54 203.081 97.0123 205.345 91.5061 203.509 89.242 198.981 86.978 194.453 88.8133 188.947 93.3415 186.683 97.8696 184.419 103.376 186.254 105.64 190.782Z" fill="#7F7F7F" transform="matrix(-1 0 0 1 2650.94 1306.5)"/><path d="M2555.55 1110.47 2652.99 1305.36 2648.89 1307.41 2551.45 1112.52ZM2545.3 1115.6C2543.04 1111.07 2544.87 1105.57 2549.4 1103.3 2553.93 1101.04 2559.43 1102.87 2561.7 1107.4 2563.96 1111.93 2562.13 1117.43 2557.6 1119.7 2553.07 1121.96 2547.56 1120.13 2545.3 1115.6ZM2659.14 1302.28C2661.4 1306.81 2659.57 1312.32 2655.04 1314.58 2650.51 1316.84 2645.01 1315.01 2642.74 1310.48 2640.48 1305.95 2642.31 1300.45 2646.84 1298.18 2651.37 1295.92 2656.88 1297.75 2659.14 1302.28Z" fill="#7F7F7F"/><path d="M2906.55 915.475 3003.99 1110.36 2999.89 1112.41 2902.45 917.525ZM2896.3 920.599C2894.04 916.071 2895.87 910.565 2900.4 908.301 2904.93 906.037 2910.43 907.872 2912.7 912.4 2914.96 916.929 2913.13 922.435 2908.6 924.699 2904.07 926.963 2898.56 925.128 2896.3 920.599ZM3010.14 1107.28C3012.4 1111.81 3010.57 1117.32 3006.04 1119.58 3001.51 1121.84 2996.01 1120.01 2993.74 1115.48 2991.48 1110.95 2993.31 1105.45 2997.84 1103.18 3002.37 1100.92 3007.88 1102.75 3010.14 1107.28Z" fill="#7F7F7F"/><path d="M2.04973-1.02486 99.4907 193.857 95.3912 195.907-2.04973 1.02486ZM-8.19892 4.09946C-10.463-0.428678-8.62759-5.93485-4.09946-8.19892 0.428678-10.463 5.93485-8.62759 8.19892-4.09946 10.463 0.428678 8.62759 5.93485 4.09946 8.19892-0.428678 10.463-5.93485 8.62759-8.19892 4.09946ZM105.64 190.782C107.904 195.311 106.069 200.817 101.54 203.081 97.0123 205.345 91.5061 203.509 89.242 198.981 86.978 194.453 88.8133 188.947 93.3415 186.683 97.8696 184.419 103.376 186.254 105.64 190.782Z" fill="#7F7F7F" transform="matrix(-1 0 0 1 3001.94 1111.5)"/><path d="M3.26448e-06-2.29167 253.346-2.29131 253.346 2.29203-3.26448e-06 2.29167ZM-1.30579e-05 9.16667C-5.06262 9.16666-9.16667 5.0626-9.16667-1.30579e-05-9.16666-5.06262-5.0626-9.16667 1.30579e-05-9.16667 5.06262-9.16666 9.16667-5.0626 9.16667 1.30579e-05 9.16666 5.06262 5.0626 9.16667-1.30579e-05 9.16667ZM253.346-9.16631C258.409-9.1663 262.513-5.06224 262.513 0.00037395 262.513 5.06298 258.409 9.16703 253.346 9.16703 248.284 9.16702 244.18 5.06296 244.18 0.000347834 244.18-5.06226 248.284-9.16631 253.346-9.16631Z" fill="#7F7F7F" transform="matrix(-1 0 0 1 2903.85 1306.5)"/><path d="M2.04973-1.02486 99.4907 193.857 95.3912 195.907-2.04973 1.02486ZM-8.19892 4.09946C-10.463-0.428678-8.62759-5.93485-4.09946-8.19892 0.428678-10.463 5.93485-8.62759 8.19892-4.09946 10.463 0.428678 8.62759 5.93485 4.09946 8.19892-0.428678 10.463-5.93485 8.62759-8.19892 4.09946ZM105.64 190.782C107.904 195.311 106.069 200.817 101.54 203.081 97.0123 205.345 91.5061 203.509 89.242 198.981 86.978 194.453 88.8133 188.947 93.3415 186.683 97.8696 184.419 103.376 186.254 105.64 190.782Z" fill="#7F7F7F" transform="matrix(-1 0 0 1 2299.94 1501.5)"/><path d="M2.04973-1.02486 99.4907 193.857 95.3912 195.907-2.04973 1.02486ZM-8.19892 4.09946C-10.463-0.428678-8.62759-5.93485-4.09946-8.19892 0.428678-10.463 5.93485-8.62759 8.19892-4.09946 10.463 0.428678 8.62759 5.93485 4.09946 8.19892-0.428678 10.463-5.93485 8.62759-8.19892 4.09946ZM105.64 190.782C107.904 195.311 106.069 200.817 101.54 203.081 97.0123 205.345 91.5061 203.509 89.242 198.981 86.978 194.453 88.8133 188.947 93.3415 186.683 97.8696 184.419 103.376 186.254 105.64 190.782Z" fill="#7F7F7F" transform="matrix(1 0 0 -1 2904.5 916.382)"/><path d="M97.5001 1693.21 350.847 1693.21 350.847 1697.79 97.5001 1697.79ZM97.5001 1704.67C92.4375 1704.67 88.3335 1700.56 88.3335 1695.5 88.3335 1690.44 92.4375 1686.33 97.5001 1686.33 102.563 1686.33 106.667 1690.44 106.667 1695.5 106.667 1700.56 102.563 1704.67 97.5001 1704.67ZM350.847 1686.33C355.909 1686.33 360.013 1690.44 360.013 1695.5 360.013 1700.56 355.909 1704.67 350.847 1704.67 345.784 1704.67 341.68 1700.56 341.68 1695.5 341.68 1690.44 345.784 1686.33 350.847 1686.33Z" fill="#595959"/><path d="M2.04973-1.02486 99.4907 193.857 95.3912 195.907-2.04973 1.02486ZM-8.19892 4.09946C-10.463-0.428678-8.62759-5.93485-4.09946-8.19892 0.428678-10.463 5.93485-8.62759 8.19892-4.09946 10.463 0.428678 8.62759 5.93485 4.09946 8.19892-0.428678 10.463-5.93485 8.62759-8.19892 4.09946ZM105.64 190.782C107.904 195.311 106.069 200.817 101.54 203.081 97.0123 205.345 91.5061 203.509 89.242 198.981 86.978 194.453 88.8133 188.947 93.3415 186.683 97.8696 184.419 103.376 186.254 105.64 190.782Z" fill="#595959" transform="matrix(1 0 0 -1 351.5 1696.38)"/><path d="M446.891 1502.41 349.45 1307.52 353.55 1305.48 450.991 1500.36ZM457.14 1497.28C459.404 1501.81 457.569 1507.32 453.041 1509.58 448.512 1511.84 443.006 1510.01 440.742 1505.48 438.478 1500.95 440.314 1495.45 444.842 1493.18 449.37 1490.92 454.876 1492.75 457.14 1497.28ZM343.301 1310.6C341.037 1306.07 342.873 1300.57 347.401 1298.3 351.929 1296.04 357.435 1297.87 359.699 1302.4 361.963 1306.93 360.128 1312.43 355.6 1314.7 351.071 1316.96 345.565 1315.13 343.301 1310.6Z" fill="#595959"/><path d="M448.5 1499.21 701.847 1499.21 701.847 1503.79 448.5 1503.79ZM448.5 1510.67C443.437 1510.67 439.333 1506.56 439.333 1501.5 439.333 1496.44 443.438 1492.33 448.5 1492.33 453.563 1492.33 457.667 1496.44 457.667 1501.5 457.667 1506.56 453.563 1510.67 448.5 1510.67ZM701.847 1492.33C706.909 1492.33 711.013 1496.44 711.013 1501.5 711.013 1506.56 706.909 1510.67 701.847 1510.67 696.784 1510.67 692.68 1506.56 692.68 1501.5 692.68 1496.44 696.784 1492.33 701.847 1492.33Z" fill="#595959"/><path d="M2.04973-1.02486 99.4907 193.857 95.3912 195.907-2.04973 1.02486ZM-8.19892 4.09946C-10.463-0.428678-8.62759-5.93485-4.09946-8.19892 0.428678-10.463 5.93485-8.62759 8.19892-4.09946 10.463 0.428678 8.62759 5.93485 4.09946 8.19892-0.428678 10.463-5.93485 8.62759-8.19892 4.09946ZM105.64 190.782C107.904 195.311 106.069 200.817 101.54 203.081 97.0123 205.345 91.5061 203.509 89.242 198.981 86.978 194.453 88.8133 188.947 93.3415 186.683 97.8696 184.419 103.376 186.254 105.64 190.782Z" fill="#595959" transform="matrix(-1 0 0 1 799.941 1306.5)"/><path d="M2.04973-1.02486 99.4907 193.857 95.3912 195.907-2.04973 1.02486ZM-8.19892 4.09946C-10.463-0.428678-8.62759-5.93485-4.09946-8.19892 0.428678-10.463 5.93485-8.62759 8.19892-4.09946 10.463 0.428678 8.62759 5.93485 4.09946 8.19892-0.428678 10.463-5.93485 8.62759-8.19892 4.09946ZM105.64 190.782C107.904 195.311 106.069 200.817 101.54 203.081 97.0123 205.345 91.5061 203.509 89.242 198.981 86.978 194.453 88.8133 188.947 93.3415 186.683 97.8696 184.419 103.376 186.254 105.64 190.782Z" fill="#595959" transform="matrix(1 0 0 -1 702.5 1111.38)"/><path d="M799.5 914.208 1052.85 914.209 1052.85 918.792 799.5 918.792ZM799.5 925.667C794.437 925.667 790.333 921.563 790.333 916.5 790.333 911.437 794.437 907.333 799.5 907.333 804.563 907.333 808.667 911.437 808.667 916.5 808.667 921.563 804.563 925.667 799.5 925.667ZM1052.85 907.334C1057.91 907.334 1062.01 911.438 1062.01 916.5 1062.01 921.563 1057.91 925.667 1052.85 925.667 1047.78 925.667 1043.68 921.563 1043.68 916.5 1043.68 911.438 1047.78 907.334 1052.85 907.334Z" fill="#595959"/><path d="M1054.55 915.475 1151.99 1110.36 1147.89 1112.41 1050.45 917.525ZM1044.3 920.599C1042.04 916.071 1043.87 910.565 1048.4 908.301 1052.93 906.037 1058.43 907.872 1060.7 912.4 1062.96 916.929 1061.13 922.435 1056.6 924.699 1052.07 926.963 1046.57 925.128 1044.3 920.599ZM1158.14 1107.28C1160.4 1111.81 1158.57 1117.32 1154.04 1119.58 1149.51 1121.84 1144.01 1120.01 1141.74 1115.48 1139.48 1110.95 1141.31 1105.45 1145.84 1103.18 1150.37 1100.92 1155.88 1102.75 1158.14 1107.28Z" fill="#595959"/><path d="M2.04973-1.02486 99.4907 193.857 95.3912 195.907-2.04973 1.02486ZM-8.19892 4.09946C-10.463-0.428678-8.62759-5.93485-4.09946-8.19892 0.428678-10.463 5.93485-8.62759 8.19892-4.09946 10.463 0.428678 8.62759 5.93485 4.09946 8.19892-0.428678 10.463-5.93485 8.62759-8.19892 4.09946ZM105.64 190.782C107.904 195.311 106.069 200.817 101.54 203.081 97.0123 205.345 91.5061 203.509 89.242 198.981 86.978 194.453 88.8133 188.947 93.3415 186.683 97.8696 184.419 103.376 186.254 105.64 190.782Z" fill="#595959" transform="matrix(-1 0 0 1 1149.94 1111.5)"/><path d="M799.5 1304.21 1052.85 1304.21 1052.85 1308.79 799.5 1308.79ZM799.5 1315.67C794.437 1315.67 790.333 1311.56 790.333 1306.5 790.333 1301.44 794.437 1297.33 799.5 1297.33 804.563 1297.33 808.667 1301.44 808.667 1306.5 808.667 1311.56 804.563 1315.67 799.5 1315.67ZM1052.85 1297.33C1057.91 1297.33 1062.01 1301.44 1062.01 1306.5 1062.01 1311.56 1057.91 1315.67 1052.85 1315.67 1047.78 1315.67 1043.68 1311.56 1043.68 1306.5 1043.68 1301.44 1047.78 1297.33 1052.85 1297.33Z" fill="#595959"/><path d="M704.55 1500.48 801.991 1695.36 797.891 1697.41 700.45 1502.52ZM694.301 1505.6C692.037 1501.07 693.872 1495.57 698.401 1493.3 702.929 1491.04 708.435 1492.87 710.699 1497.4 712.963 1501.93 711.128 1507.43 706.6 1509.7 702.071 1511.96 696.565 1510.13 694.301 1505.6ZM808.14 1692.28C810.404 1696.81 808.569 1702.32 804.041 1704.58 799.512 1706.84 794.006 1705.01 791.742 1700.48 789.478 1695.95 791.313 1690.45 795.842 1688.18 800.37 1685.92 805.876 1687.75 808.14 1692.28Z" fill="#595959"/><path d="M353.55 1694.47 450.991 1889.36 446.891 1891.41 349.45 1696.52ZM343.301 1699.6C341.037 1695.07 342.873 1689.57 347.401 1687.3 351.929 1685.04 357.435 1686.87 359.699 1691.4 361.963 1695.93 360.128 1701.43 355.6 1703.7 351.071 1705.96 345.565 1704.13 343.301 1699.6ZM457.14 1886.28C459.404 1890.81 457.569 1896.32 453.041 1898.58 448.512 1900.84 443.006 1899.01 440.742 1894.48 438.478 1889.95 440.314 1884.45 444.842 1882.18 449.37 1879.92 454.876 1881.75 457.14 1886.28Z" fill="#595959"/><path d="M448.5 1888.21 701.847 1888.21 701.847 1892.79 448.5 1892.79ZM448.5 1899.67C443.437 1899.67 439.333 1895.56 439.333 1890.5 439.333 1885.44 443.438 1881.33 448.5 1881.33 453.563 1881.33 457.667 1885.44 457.667 1890.5 457.667 1895.56 453.563 1899.67 448.5 1899.67ZM701.847 1881.33C706.909 1881.33 711.013 1885.44 711.013 1890.5 711.013 1895.56 706.909 1899.67 701.847 1899.67 696.784 1899.67 692.68 1895.56 692.68 1890.5 692.68 1885.44 696.784 1881.33 701.847 1881.33Z" fill="#595959"/><path d="M2.04973-1.02486 99.4907 193.857 95.3912 195.907-2.04973 1.02486ZM-8.19892 4.09946C-10.463-0.428678-8.62759-5.93485-4.09946-8.19892 0.428678-10.463 5.93485-8.62759 8.19892-4.09946 10.463 0.428678 8.62759 5.93485 4.09946 8.19892-0.428678 10.463-5.93485 8.62759-8.19892 4.09946ZM105.64 190.782C107.904 195.311 106.069 200.817 101.54 203.081 97.0123 205.345 91.5061 203.509 89.242 198.981 86.978 194.453 88.8133 188.947 93.3415 186.683 97.8696 184.419 103.376 186.254 105.64 190.782Z" fill="#595959" transform="matrix(-1 0 0 1 799.941 1695.5)"/><path d="M799.5 1693.21 1052.85 1693.21 1052.85 1697.79 799.5 1697.79ZM799.5 1704.67C794.437 1704.67 790.333 1700.56 790.333 1695.5 790.333 1690.44 794.437 1686.33 799.5 1686.33 804.563 1686.33 808.667 1690.44 808.667 1695.5 808.667 1700.56 804.563 1704.67 799.5 1704.67ZM1052.85 1686.33C1057.91 1686.33 1062.01 1690.44 1062.01 1695.5 1062.01 1700.56 1057.91 1704.67 1052.85 1704.67 1047.78 1704.67 1043.68 1700.56 1043.68 1695.5 1043.68 1690.44 1047.78 1686.33 1052.85 1686.33Z" fill="#595959"/><path d="M1054.55 1305.48 1151.99 1500.36 1147.89 1502.41 1050.45 1307.53ZM1044.3 1310.6C1042.04 1306.07 1043.87 1300.57 1048.4 1298.3 1052.93 1296.04 1058.43 1297.87 1060.7 1302.4 1062.96 1306.93 1061.13 1312.43 1056.6 1314.7 1052.07 1316.96 1046.57 1315.13 1044.3 1310.6ZM1158.14 1497.28C1160.4 1501.81 1158.57 1507.32 1154.04 1509.58 1149.51 1511.84 1144.01 1510.01 1141.74 1505.48 1139.48 1500.95 1141.31 1495.45 1145.84 1493.18 1150.37 1490.92 1155.88 1492.75 1158.14 1497.28Z" fill="#595959"/><path d="M2.04973-1.02486 99.4907 193.857 95.3912 195.907-2.04973 1.02486ZM-8.19892 4.09946C-10.463-0.428678-8.62759-5.93485-4.09946-8.19892 0.428678-10.463 5.93485-8.62759 8.19892-4.09946 10.463 0.428678 8.62759 5.93485 4.09946 8.19892-0.428678 10.463-5.93485 8.62759-8.19892 4.09946ZM105.64 190.782C107.904 195.311 106.069 200.817 101.54 203.081 97.0123 205.345 91.5061 203.509 89.242 198.981 86.978 194.453 88.8133 188.947 93.3415 186.683 97.8696 184.419 103.376 186.254 105.64 190.782Z" fill="#595959" transform="matrix(-1 0 0 1 1149.94 1501.5)"/><path d="M799.5 2083.21 1052.85 2083.21 1052.85 2087.79 799.5 2087.79ZM799.5 2094.67C794.437 2094.67 790.333 2090.56 790.333 2085.5 790.333 2080.44 794.437 2076.33 799.5 2076.33 804.563 2076.33 808.667 2080.44 808.667 2085.5 808.667 2090.56 804.563 2094.67 799.5 2094.67ZM1052.85 2076.33C1057.91 2076.33 1062.01 2080.44 1062.01 2085.5 1062.01 2090.56 1057.91 2094.67 1052.85 2094.67 1047.78 2094.67 1043.68 2090.56 1043.68 2085.5 1043.68 2080.44 1047.78 2076.33 1052.85 2076.33Z" fill="#595959"/><path d="M2.04973-1.02486 99.4907 193.857 95.3912 195.907-2.04973 1.02486ZM-8.19892 4.09946C-10.463-0.428678-8.62759-5.93485-4.09946-8.19892 0.428678-10.463 5.93485-8.62759 8.19892-4.09946 10.463 0.428678 8.62759 5.93485 4.09946 8.19892-0.428678 10.463-5.93485 8.62759-8.19892 4.09946ZM105.64 190.782C107.904 195.311 106.069 200.817 101.54 203.081 97.0123 205.345 91.5061 203.509 89.242 198.981 86.978 194.453 88.8133 188.947 93.3415 186.683 97.8696 184.419 103.376 186.254 105.64 190.782Z" fill="#595959" transform="matrix(1 0 0 -1 1052.5 2085.38)"/><path d="M1054.55 1694.47 1151.99 1889.36 1147.89 1891.41 1050.45 1696.52ZM1044.3 1699.6C1042.04 1695.07 1043.87 1689.57 1048.4 1687.3 1052.93 1685.04 1058.43 1686.87 1060.7 1691.4 1062.96 1695.93 1061.13 1701.43 1056.6 1703.7 1052.07 1705.96 1046.57 1704.13 1044.3 1699.6ZM1158.14 1886.28C1160.4 1890.81 1158.57 1896.32 1154.04 1898.58 1149.51 1900.84 1144.01 1899.01 1141.74 1894.48 1139.48 1889.95 1141.31 1884.45 1145.84 1882.18 1150.37 1879.92 1155.88 1881.75 1158.14 1886.28Z" fill="#595959"/><path d="M1150.5 1888.21 1403.85 1888.21 1403.85 1892.79 1150.5 1892.79ZM1150.5 1899.67C1145.44 1899.67 1141.33 1895.56 1141.33 1890.5 1141.33 1885.44 1145.44 1881.33 1150.5 1881.33 1155.56 1881.33 1159.67 1885.44 1159.67 1890.5 1159.67 1895.56 1155.56 1899.67 1150.5 1899.67ZM1403.85 1881.33C1408.91 1881.33 1413.01 1885.44 1413.01 1890.5 1413.01 1895.56 1408.91 1899.67 1403.85 1899.67 1398.78 1899.67 1394.68 1895.56 1394.68 1890.5 1394.68 1885.44 1398.78 1881.33 1403.85 1881.33Z" fill="#595959"/><path d="M2.04973-1.02486 99.4907 193.857 95.3912 195.907-2.04973 1.02486ZM-8.19892 4.09946C-10.463-0.428678-8.62759-5.93485-4.09946-8.19892 0.428678-10.463 5.93485-8.62759 8.19892-4.09946 10.463 0.428678 8.62759 5.93485 4.09946 8.19892-0.428678 10.463-5.93485 8.62759-8.19892 4.09946ZM105.64 190.782C107.904 195.311 106.069 200.817 101.54 203.081 97.0123 205.345 91.5061 203.509 89.242 198.981 86.978 194.453 88.8133 188.947 93.3415 186.683 97.8696 184.419 103.376 186.254 105.64 190.782Z" fill="#595959" transform="matrix(1 0 0 -1 1403.5 1890.38)"/><path d="M1405.55 1500.48 1502.99 1695.36 1498.89 1697.41 1401.45 1502.52ZM1395.3 1505.6C1393.04 1501.07 1394.87 1495.57 1399.4 1493.3 1403.93 1491.04 1409.43 1492.87 1411.7 1497.4 1413.96 1501.93 1412.13 1507.43 1407.6 1509.7 1403.07 1511.96 1397.57 1510.13 1395.3 1505.6ZM1509.14 1692.28C1511.4 1696.81 1509.57 1702.32 1505.04 1704.58 1500.51 1706.84 1495.01 1705.01 1492.74 1700.48 1490.48 1695.95 1492.31 1690.45 1496.84 1688.18 1501.37 1685.92 1506.88 1687.75 1509.14 1692.28Z" fill="#595959"/><path d="M1150.5 1499.21 1403.85 1499.21 1403.85 1503.79 1150.5 1503.79ZM1150.5 1510.67C1145.44 1510.67 1141.33 1506.56 1141.33 1501.5 1141.33 1496.44 1145.44 1492.33 1150.5 1492.33 1155.56 1492.33 1159.67 1496.44 1159.67 1501.5 1159.67 1506.56 1155.56 1510.67 1150.5 1510.67ZM1403.85 1492.33C1408.91 1492.33 1413.01 1496.44 1413.01 1501.5 1413.01 1506.56 1408.91 1510.67 1403.85 1510.67 1398.78 1510.67 1394.68 1506.56 1394.68 1501.5 1394.68 1496.44 1398.78 1492.33 1403.85 1492.33Z" fill="#595959"/><path d="M1150.5 1109.21 1403.85 1109.21 1403.85 1113.79 1150.5 1113.79ZM1150.5 1120.67C1145.44 1120.67 1141.33 1116.56 1141.33 1111.5 1141.33 1106.44 1145.44 1102.33 1150.5 1102.33 1155.56 1102.33 1159.67 1106.44 1159.67 1111.5 1159.67 1116.56 1155.56 1120.67 1150.5 1120.67ZM1403.85 1102.33C1408.91 1102.33 1413.01 1106.44 1413.01 1111.5 1413.01 1116.56 1408.91 1120.67 1403.85 1120.67 1398.78 1120.67 1394.68 1116.56 1394.68 1111.5 1394.68 1106.44 1398.78 1102.33 1403.85 1102.33Z" fill="#595959"/><path d="M1405.55 1110.47 1502.99 1305.36 1498.89 1307.41 1401.45 1112.52ZM1395.3 1115.6C1393.04 1111.07 1394.87 1105.57 1399.4 1103.3 1403.93 1101.04 1409.43 1102.87 1411.7 1107.4 1413.96 1111.93 1412.13 1117.43 1407.6 1119.7 1403.07 1121.96 1397.57 1120.13 1395.3 1115.6ZM1509.14 1302.28C1511.4 1306.81 1509.57 1312.32 1505.04 1314.58 1500.51 1316.84 1495.01 1315.01 1492.74 1310.48 1490.48 1305.95 1492.31 1300.45 1496.84 1298.18 1501.37 1295.92 1506.88 1297.75 1509.14 1302.28Z" fill="#595959"/><path d="M1501.5 1304.21 1754.85 1304.21 1754.85 1308.79 1501.5 1308.79ZM1501.5 1315.67C1496.44 1315.67 1492.33 1311.56 1492.33 1306.5 1492.33 1301.44 1496.44 1297.33 1501.5 1297.33 1506.56 1297.33 1510.67 1301.44 1510.67 1306.5 1510.67 1311.56 1506.56 1315.67 1501.5 1315.67ZM1754.85 1297.33C1759.91 1297.33 1764.01 1301.44 1764.01 1306.5 1764.01 1311.56 1759.91 1315.67 1754.85 1315.67 1749.78 1315.67 1745.68 1311.56 1745.68 1306.5 1745.68 1301.44 1749.78 1297.33 1754.85 1297.33Z" fill="#595959"/><path d="M1501.5 1693.21 1754.85 1693.21 1754.85 1697.79 1501.5 1697.79ZM1501.5 1704.67C1496.44 1704.67 1492.33 1700.56 1492.33 1695.5 1492.33 1690.44 1496.44 1686.33 1501.5 1686.33 1506.56 1686.33 1510.67 1690.44 1510.67 1695.5 1510.67 1700.56 1506.56 1704.67 1501.5 1704.67ZM1754.85 1686.33C1759.91 1686.33 1764.01 1690.44 1764.01 1695.5 1764.01 1700.56 1759.91 1704.67 1754.85 1704.67 1749.78 1704.67 1745.68 1700.56 1745.68 1695.5 1745.68 1690.44 1749.78 1686.33 1754.85 1686.33Z" fill="#595959"/><path d="M1405.55 1889.48 1502.99 2084.36 1498.89 2086.41 1401.45 1891.53ZM1395.3 1894.6C1393.04 1890.07 1394.87 1884.57 1399.4 1882.3 1403.93 1880.04 1409.43 1881.87 1411.7 1886.4 1413.96 1890.93 1412.13 1896.43 1407.6 1898.7 1403.07 1900.96 1397.57 1899.13 1395.3 1894.6ZM1509.14 2081.28C1511.4 2085.81 1509.57 2091.32 1505.04 2093.58 1500.51 2095.84 1495.01 2094.01 1492.74 2089.48 1490.48 2084.95 1492.31 2079.45 1496.84 2077.18 1501.37 2074.92 1506.88 2076.75 1509.14 2081.28Z" fill="#595959"/><path d="M2.04973-1.02486 99.4907 193.857 95.3912 195.907-2.04973 1.02486ZM-8.19892 4.09946C-10.463-0.428678-8.62759-5.93485-4.09946-8.19892 0.428678-10.463 5.93485-8.62759 8.19892-4.09946 10.463 0.428678 8.62759 5.93485 4.09946 8.19892-0.428678 10.463-5.93485 8.62759-8.19892 4.09946ZM105.64 190.782C107.904 195.311 106.069 200.817 101.54 203.081 97.0123 205.345 91.5061 203.509 89.242 198.981 86.978 194.453 88.8133 188.947 93.3415 186.683 97.8696 184.419 103.376 186.254 105.64 190.782Z" fill="#595959" transform="matrix(-1 0 0 1 1851.94 1111.5)"/><path d="M2.04973-1.02486 99.4907 193.857 95.3912 195.907-2.04973 1.02486ZM-8.19892 4.09946C-10.463-0.428678-8.62759-5.93485-4.09946-8.19892 0.428678-10.463 5.93485-8.62759 8.19892-4.09946 10.463 0.428678 8.62759 5.93485 4.09946 8.19892-0.428678 10.463-5.93485 8.62759-8.19892 4.09946ZM105.64 190.782C107.904 195.311 106.069 200.817 101.54 203.081 97.0123 205.345 91.5061 203.509 89.242 198.981 86.978 194.453 88.8133 188.947 93.3415 186.683 97.8696 184.419 103.376 186.254 105.64 190.782Z" fill="#595959" transform="matrix(-1 0 0 1 1851.94 1501.5)"/><path d="M1756.55 1694.47 1853.99 1889.36 1849.89 1891.41 1752.45 1696.52ZM1746.3 1699.6C1744.04 1695.07 1745.87 1689.57 1750.4 1687.3 1754.93 1685.04 1760.43 1686.87 1762.7 1691.4 1764.96 1695.93 1763.13 1701.43 1758.6 1703.7 1754.07 1705.96 1748.57 1704.13 1746.3 1699.6ZM1860.14 1886.28C1862.4 1890.81 1860.57 1896.32 1856.04 1898.58 1851.51 1900.84 1846.01 1899.01 1843.74 1894.48 1841.48 1889.95 1843.31 1884.45 1847.84 1882.18 1852.37 1879.92 1857.88 1881.75 1860.14 1886.28Z" fill="#595959"/><path d="M2.04973-1.02486 99.4907 193.857 95.3912 195.907-2.04973 1.02486ZM-8.19892 4.09946C-10.463-0.428678-8.62759-5.93485-4.09946-8.19892 0.428678-10.463 5.93485-8.62759 8.19892-4.09946 10.463 0.428678 8.62759 5.93485 4.09946 8.19892-0.428678 10.463-5.93485 8.62759-8.19892 4.09946ZM105.64 190.782C107.904 195.311 106.069 200.817 101.54 203.081 97.0123 205.345 91.5061 203.509 89.242 198.981 86.978 194.453 88.8133 188.947 93.3415 186.683 97.8696 184.419 103.376 186.254 105.64 190.782Z" fill="#595959" transform="matrix(-1 0 0 1 1851.94 1890.5)"/><path d="M1501.5 2083.21 1754.85 2083.21 1754.85 2087.79 1501.5 2087.79ZM1501.5 2094.67C1496.44 2094.67 1492.33 2090.56 1492.33 2085.5 1492.33 2080.44 1496.44 2076.33 1501.5 2076.33 1506.56 2076.33 1510.67 2080.44 1510.67 2085.5 1510.67 2090.56 1506.56 2094.67 1501.5 2094.67ZM1754.85 2076.33C1759.91 2076.33 1764.01 2080.44 1764.01 2085.5 1764.01 2090.56 1759.91 2094.67 1754.85 2094.67 1749.78 2094.67 1745.68 2090.56 1745.68 2085.5 1745.68 2080.44 1749.78 2076.33 1754.85 2076.33Z" fill="#595959"/><path d="M1851.5 1109.21 2104.85 1109.21 2104.85 1113.79 1851.5 1113.79ZM1851.5 1120.67C1846.44 1120.67 1842.33 1116.56 1842.33 1111.5 1842.33 1106.44 1846.44 1102.33 1851.5 1102.33 1856.56 1102.33 1860.67 1106.44 1860.67 1111.5 1860.67 1116.56 1856.56 1120.67 1851.5 1120.67ZM2104.85 1102.33C2109.91 1102.33 2114.01 1106.44 2114.01 1111.5 2114.01 1116.56 2109.91 1120.67 2104.85 1120.67 2099.78 1120.67 2095.68 1116.56 2095.68 1111.5 2095.68 1106.44 2099.78 1102.33 2104.85 1102.33Z" fill="#595959"/><path d="M2107.55 1110.47 2204.99 1305.36 2200.89 1307.41 2103.45 1112.52ZM2097.3 1115.6C2095.04 1111.07 2096.87 1105.57 2101.4 1103.3 2105.93 1101.04 2111.43 1102.87 2113.7 1107.4 2115.96 1111.93 2114.13 1117.43 2109.6 1119.7 2105.07 1121.96 2099.57 1120.13 2097.3 1115.6ZM2211.14 1302.28C2213.4 1306.81 2211.57 1312.32 2207.04 1314.58 2202.51 1316.84 2197.01 1315.01 2194.74 1310.48 2192.48 1305.95 2194.31 1300.45 2198.84 1298.18 2203.37 1295.92 2208.88 1297.75 2211.14 1302.28Z" fill="#595959"/><path d="M2.04973-1.02486 99.4907 193.857 95.3912 195.907-2.04973 1.02486ZM-8.19892 4.09946C-10.463-0.428678-8.62759-5.93485-4.09946-8.19892 0.428678-10.463 5.93485-8.62759 8.19892-4.09946 10.463 0.428678 8.62759 5.93485 4.09946 8.19892-0.428678 10.463-5.93485 8.62759-8.19892 4.09946ZM105.64 190.782C107.904 195.311 106.069 200.817 101.54 203.081 97.0123 205.345 91.5061 203.509 89.242 198.981 86.978 194.453 88.8133 188.947 93.3415 186.683 97.8696 184.419 103.376 186.254 105.64 190.782Z" fill="#595959" transform="matrix(-1 0 0 1 2202.94 1306.5)"/><path d="M1851.5 1499.21 2104.85 1499.21 2104.85 1503.79 1851.5 1503.79ZM1851.5 1510.67C1846.44 1510.67 1842.33 1506.56 1842.33 1501.5 1842.33 1496.44 1846.44 1492.33 1851.5 1492.33 1856.56 1492.33 1860.67 1496.44 1860.67 1501.5 1860.67 1506.56 1856.56 1510.67 1851.5 1510.67ZM2104.85 1492.33C2109.91 1492.33 2114.01 1496.44 2114.01 1501.5 2114.01 1506.56 2109.91 1510.67 2104.85 1510.67 2099.78 1510.67 2095.68 1506.56 2095.68 1501.5 2095.68 1496.44 2099.78 1492.33 2104.85 1492.33Z" fill="#595959"/><path d="M2107.55 1500.48 2204.99 1695.36 2200.89 1697.41 2103.45 1502.52ZM2097.3 1505.6C2095.04 1501.07 2096.87 1495.57 2101.4 1493.3 2105.93 1491.04 2111.43 1492.87 2113.7 1497.4 2115.96 1501.93 2114.13 1507.43 2109.6 1509.7 2105.07 1511.96 2099.57 1510.13 2097.3 1505.6ZM2211.14 1692.28C2213.4 1696.81 2211.57 1702.32 2207.04 1704.58 2202.51 1706.84 2197.01 1705.01 2194.74 1700.48 2192.48 1695.95 2194.31 1690.45 2198.84 1688.18 2203.37 1685.92 2208.88 1687.75 2211.14 1692.28Z" fill="#595959"/><path d="M1851.5 1888.21 2104.85 1888.21 2104.85 1892.79 1851.5 1892.79ZM1851.5 1899.67C1846.44 1899.67 1842.33 1895.56 1842.33 1890.5 1842.33 1885.44 1846.44 1881.33 1851.5 1881.33 1856.56 1881.33 1860.67 1885.44 1860.67 1890.5 1860.67 1895.56 1856.56 1899.67 1851.5 1899.67ZM2104.85 1881.33C2109.91 1881.33 2114.01 1885.44 2114.01 1890.5 2114.01 1895.56 2109.91 1899.67 2104.85 1899.67 2099.78 1899.67 2095.68 1895.56 2095.68 1890.5 2095.68 1885.44 2099.78 1881.33 2104.85 1881.33Z" fill="#595959"/><path d="M2.04973-1.02486 99.4907 193.857 95.3912 195.907-2.04973 1.02486ZM-8.19892 4.09946C-10.463-0.428678-8.62759-5.93485-4.09946-8.19892 0.428678-10.463 5.93485-8.62759 8.19892-4.09946 10.463 0.428678 8.62759 5.93485 4.09946 8.19892-0.428678 10.463-5.93485 8.62759-8.19892 4.09946ZM105.64 190.782C107.904 195.311 106.069 200.817 101.54 203.081 97.0123 205.345 91.5061 203.509 89.242 198.981 86.978 194.453 88.8133 188.947 93.3415 186.683 97.8696 184.419 103.376 186.254 105.64 190.782Z" fill="#595959" transform="matrix(-1 0 0 1 2202.94 1695.5)"/><path d="M2202.5 1693.21 2455.85 1693.21 2455.85 1697.79 2202.5 1697.79ZM2202.5 1704.67C2197.44 1704.67 2193.33 1700.56 2193.33 1695.5 2193.33 1690.44 2197.44 1686.33 2202.5 1686.33 2207.56 1686.33 2211.67 1690.44 2211.67 1695.5 2211.67 1700.56 2207.56 1704.67 2202.5 1704.67ZM2455.85 1686.33C2460.91 1686.33 2465.01 1690.44 2465.01 1695.5 2465.01 1700.56 2460.91 1704.67 2455.85 1704.67 2450.78 1704.67 2446.68 1700.56 2446.68 1695.5 2446.68 1690.44 2450.78 1686.33 2455.85 1686.33Z" fill="#595959"/><path d="M2107.55 1889.48 2204.99 2084.36 2200.89 2086.41 2103.45 1891.53ZM2097.3 1894.6C2095.04 1890.07 2096.87 1884.57 2101.4 1882.3 2105.93 1880.04 2111.43 1881.87 2113.7 1886.4 2115.96 1890.93 2114.13 1896.43 2109.6 1898.7 2105.07 1900.96 2099.57 1899.13 2097.3 1894.6ZM2211.14 2081.28C2213.4 2085.81 2211.57 2091.32 2207.04 2093.58 2202.51 2095.84 2197.01 2094.01 2194.74 2089.48 2192.48 2084.95 2194.31 2079.45 2198.84 2077.18 2203.37 2074.92 2208.88 2076.75 2211.14 2081.28Z" fill="#595959"/><path d="M2202.5 2083.21 2455.85 2083.21 2455.85 2087.79 2202.5 2087.79ZM2202.5 2094.67C2197.44 2094.67 2193.33 2090.56 2193.33 2085.5 2193.33 2080.44 2197.44 2076.33 2202.5 2076.33 2207.56 2076.33 2211.67 2080.44 2211.67 2085.5 2211.67 2090.56 2207.56 2094.67 2202.5 2094.67ZM2455.85 2076.33C2460.91 2076.33 2465.01 2080.44 2465.01 2085.5 2465.01 2090.56 2460.91 2094.67 2455.85 2094.67 2450.78 2094.67 2446.68 2090.56 2446.68 2085.5 2446.68 2080.44 2450.78 2076.33 2455.85 2076.33Z" fill="#595959"/><path d="M2.04973-1.02486 99.4907 193.857 95.3912 195.907-2.04973 1.02486ZM-8.19892 4.09946C-10.463-0.428678-8.62759-5.93485-4.09946-8.19892 0.428678-10.463 5.93485-8.62759 8.19892-4.09946 10.463 0.428678 8.62759 5.93485 4.09946 8.19892-0.428678 10.463-5.93485 8.62759-8.19892 4.09946ZM105.64 190.782C107.904 195.311 106.069 200.817 101.54 203.081 97.0123 205.345 91.5061 203.509 89.242 198.981 86.978 194.453 88.8133 188.947 93.3415 186.683 97.8696 184.419 103.376 186.254 105.64 190.782Z" fill="#595959" transform="matrix(-1 0 0 1 2553.94 1890.5)"/><path d="M2458.55 1694.47 2555.99 1889.36 2551.89 1891.41 2454.45 1696.52ZM2448.3 1699.6C2446.04 1695.07 2447.87 1689.57 2452.4 1687.3 2456.93 1685.04 2462.43 1686.87 2464.7 1691.4 2466.96 1695.93 2465.13 1701.43 2460.6 1703.7 2456.07 1705.96 2450.57 1704.13 2448.3 1699.6ZM2562.14 1886.28C2564.4 1890.81 2562.57 1896.32 2558.04 1898.58 2553.51 1900.84 2548.01 1899.01 2545.74 1894.48 2543.48 1889.95 2545.31 1884.45 2549.84 1882.18 2554.37 1879.92 2559.88 1881.75 2562.14 1886.28Z" fill="#595959"/><path d="M2808.55 1500.48 2905.99 1695.36 2901.89 1697.41 2804.45 1502.52ZM2798.3 1505.6C2796.04 1501.07 2797.87 1495.57 2802.4 1493.3 2806.93 1491.04 2812.43 1492.87 2814.7 1497.4 2816.96 1501.93 2815.13 1507.43 2810.6 1509.7 2806.07 1511.96 2800.56 1510.13 2798.3 1505.6ZM2912.14 1692.28C2914.4 1696.81 2912.57 1702.32 2908.04 1704.58 2903.51 1706.84 2898.01 1705.01 2895.74 1700.48 2893.48 1695.95 2895.31 1690.45 2899.84 1688.18 2904.37 1685.92 2909.88 1687.75 2912.14 1692.28Z" fill="#595959"/><path d="M2.04973-1.02486 99.4907 193.857 95.3912 195.907-2.04973 1.02486ZM-8.19892 4.09946C-10.463-0.428678-8.62759-5.93485-4.09946-8.19892 0.428678-10.463 5.93485-8.62759 8.19892-4.09946 10.463 0.428678 8.62759 5.93485 4.09946 8.19892-0.428678 10.463-5.93485 8.62759-8.19892 4.09946ZM105.64 190.782C107.904 195.311 106.069 200.817 101.54 203.081 97.0123 205.345 91.5061 203.509 89.242 198.981 86.978 194.453 88.8133 188.947 93.3415 186.683 97.8696 184.419 103.376 186.254 105.64 190.782Z" fill="#595959" transform="matrix(-1 0 0 1 2903.94 1695.5)"/><path d="M3.26448e-06-2.29167 253.346-2.29131 253.346 2.29203-3.26448e-06 2.29167ZM-1.30579e-05 9.16667C-5.06262 9.16666-9.16667 5.0626-9.16667-1.30579e-05-9.16666-5.06262-5.0626-9.16667 1.30579e-05-9.16667 5.06262-9.16666 9.16667-5.0626 9.16667 1.30579e-05 9.16666 5.06262 5.0626 9.16667-1.30579e-05 9.16667ZM253.346-9.16631C258.409-9.1663 262.513-5.06224 262.513 0.00037395 262.513 5.06298 258.409 9.16703 253.346 9.16703 248.284 9.16702 244.18 5.06296 244.18 0.000347834 244.18-5.06226 248.284-9.16631 253.346-9.16631Z" fill="#595959" transform="matrix(-1 0 0 1 2806.85 1890.5)"/><path d="M97.5001 2083.21 350.847 2083.21 350.847 2087.79 97.5001 2087.79ZM97.5001 2094.67C92.4375 2094.67 88.3335 2090.56 88.3335 2085.5 88.3335 2080.44 92.4375 2076.33 97.5001 2076.33 102.563 2076.33 106.667 2080.44 106.667 2085.5 106.667 2090.56 102.563 2094.67 97.5001 2094.67ZM350.847 2076.33C355.909 2076.33 360.013 2080.44 360.013 2085.5 360.013 2090.56 355.909 2094.67 350.847 2094.67 345.784 2094.67 341.68 2090.56 341.68 2085.5 341.68 2080.44 345.784 2076.33 350.847 2076.33Z" fill="#595959"/><path d="M2.04973-1.02486 99.4907 193.857 95.3912 195.907-2.04973 1.02486ZM-8.19892 4.09946C-10.463-0.428678-8.62759-5.93485-4.09946-8.19892 0.428678-10.463 5.93485-8.62759 8.19892-4.09946 10.463 0.428678 8.62759 5.93485 4.09946 8.19892-0.428678 10.463-5.93485 8.62759-8.19892 4.09946ZM105.64 190.782C107.904 195.311 106.069 200.817 101.54 203.081 97.0123 205.345 91.5061 203.509 89.242 198.981 86.978 194.453 88.8133 188.947 93.3415 186.683 97.8696 184.419 103.376 186.254 105.64 190.782Z" fill="#595959" transform="matrix(-1 0 0 1 448.941 1890.5)"/><path d="M353.55 2084.48 450.991 2279.36 446.891 2281.41 349.45 2086.52ZM343.301 2089.6C341.037 2085.07 342.873 2079.57 347.401 2077.3 351.929 2075.04 357.435 2076.87 359.699 2081.4 361.963 2085.93 360.128 2091.43 355.6 2093.7 351.071 2095.96 345.565 2094.13 343.301 2089.6ZM457.14 2276.28C459.404 2280.81 457.569 2286.32 453.041 2288.58 448.512 2290.84 443.006 2289.01 440.742 2284.48 438.478 2279.95 440.314 2274.45 444.842 2272.18 449.37 2269.92 454.876 2271.75 457.14 2276.28Z" fill="#595959"/><path d="M2.04973-1.02486 99.4907 193.857 95.3912 195.907-2.04973 1.02486ZM-8.19892 4.09946C-10.463-0.428678-8.62759-5.93485-4.09946-8.19892 0.428678-10.463 5.93485-8.62759 8.19892-4.09946 10.463 0.428678 8.62759 5.93485 4.09946 8.19892-0.428678 10.463-5.93485 8.62759-8.19892 4.09946ZM105.64 190.782C107.904 195.311 106.069 200.817 101.54 203.081 97.0123 205.345 91.5061 203.509 89.242 198.981 86.978 194.453 88.8133 188.947 93.3415 186.683 97.8696 184.419 103.376 186.254 105.64 190.782Z" fill="#595959" transform="matrix(-1 0 0 1 799.941 2085.5)"/><path d="M2.04973-1.02486 99.4907 193.857 95.3912 195.907-2.04973 1.02486ZM-8.19892 4.09946C-10.463-0.428678-8.62759-5.93485-4.09946-8.19892 0.428678-10.463 5.93485-8.62759 8.19892-4.09946 10.463 0.428678 8.62759 5.93485 4.09946 8.19892-0.428678 10.463-5.93485 8.62759-8.19892 4.09946ZM105.64 190.782C107.904 195.311 106.069 200.817 101.54 203.081 97.0123 205.345 91.5061 203.509 89.242 198.981 86.978 194.453 88.8133 188.947 93.3415 186.683 97.8696 184.419 103.376 186.254 105.64 190.782Z" fill="#595959" transform="matrix(-1 0 0 1 1500.94 2085.5)"/><path d="M1756.55 2084.48 1853.99 2279.36 1849.89 2281.41 1752.45 2086.52ZM1746.3 2089.6C1744.04 2085.07 1745.87 2079.57 1750.4 2077.3 1754.93 2075.04 1760.43 2076.87 1762.7 2081.4 1764.96 2085.93 1763.13 2091.43 1758.6 2093.7 1754.07 2095.96 1748.57 2094.13 1746.3 2089.6ZM1860.14 2276.28C1862.4 2280.81 1860.57 2286.32 1856.04 2288.58 1851.51 2290.84 1846.01 2289.01 1843.74 2284.48 1841.48 2279.95 1843.31 2274.45 1847.84 2272.18 1852.37 2269.92 1857.88 2271.75 1860.14 2276.28Z" fill="#595959"/><path d="M2.04973-1.02486 99.4907 193.857 95.3912 195.907-2.04973 1.02486ZM-8.19892 4.09946C-10.463-0.428678-8.62759-5.93485-4.09946-8.19892 0.428678-10.463 5.93485-8.62759 8.19892-4.09946 10.463 0.428678 8.62759 5.93485 4.09946 8.19892-0.428678 10.463-5.93485 8.62759-8.19892 4.09946ZM105.64 190.782C107.904 195.311 106.069 200.817 101.54 203.081 97.0123 205.345 91.5061 203.509 89.242 198.981 86.978 194.453 88.8133 188.947 93.3415 186.683 97.8696 184.419 103.376 186.254 105.64 190.782Z" fill="#595959" transform="matrix(-1 0 0 1 2202.94 2085.5)"/><path d="M2458.55 2084.48 2555.99 2279.36 2551.89 2281.41 2454.45 2086.52ZM2448.3 2089.6C2446.04 2085.07 2447.87 2079.57 2452.4 2077.3 2456.93 2075.04 2462.43 2076.87 2464.7 2081.4 2466.96 2085.93 2465.13 2091.43 2460.6 2093.7 2456.07 2095.96 2450.57 2094.13 2448.3 2089.6ZM2562.14 2276.28C2564.4 2280.81 2562.57 2286.32 2558.04 2288.58 2553.51 2290.84 2548.01 2289.01 2545.74 2284.48 2543.48 2279.95 2545.31 2274.45 2549.84 2272.18 2554.37 2269.92 2559.88 2271.75 2562.14 2276.28Z" fill="#595959"/><path d="M2.04973-1.02486 99.4907 193.857 95.3912 195.907-2.04973 1.02486ZM-8.19892 4.09946C-10.463-0.428678-8.62759-5.93485-4.09946-8.19892 0.428678-10.463 5.93485-8.62759 8.19892-4.09946 10.463 0.428678 8.62759 5.93485 4.09946 8.19892-0.428678 10.463-5.93485 8.62759-8.19892 4.09946ZM105.64 190.782C107.904 195.311 106.069 200.817 101.54 203.081 97.0123 205.345 91.5061 203.509 89.242 198.981 86.978 194.453 88.8133 188.947 93.3415 186.683 97.8696 184.419 103.376 186.254 105.64 190.782Z" fill="#595959" transform="matrix(1 0 0 -1 2806.5 1501.38)"/><path d="M2.04973-1.02486 99.4907 193.857 95.3912 195.907-2.04973 1.02486ZM-8.19892 4.09946C-10.463-0.428678-8.62759-5.93485-4.09946-8.19892 0.428678-10.463 5.93485-8.62759 8.19892-4.09946 10.463 0.428678 8.62759 5.93485 4.09946 8.19892-0.428678 10.463-5.93485 8.62759-8.19892 4.09946ZM105.64 190.782C107.904 195.311 106.069 200.817 101.54 203.081 97.0123 205.345 91.5061 203.509 89.242 198.981 86.978 194.453 88.8133 188.947 93.3415 186.683 97.8696 184.419 103.376 186.254 105.64 190.782Z" fill="#595959" transform="matrix(1 0 0 -1 2105.5 1111.38)"/><text fill="#3A3A3A" font-family="Aptos ExtraBold,Aptos ExtraBold_MSFontService,sans-serif" font-weight="800" font-size="202" transform="matrix(1 0 0 1 1525.43 542)">rea</text><text fill="#1B28BE" font-family="Aptos ExtraBold,Aptos ExtraBold_MSFontService,sans-serif" font-weight="800" font-size="202" transform="matrix(1 0 0 1 2065.92 542)">Mdica</text><text fill="#3A3A3A" font-family="Aptos ExtraBold,Aptos ExtraBold_MSFontService,sans-serif" font-weight="800" font-size="202" transform="matrix(1 0 0 1 2886.17 542)">Regulatoria</text><path d="M2802 2014 2955.5 1707 3355.5 1707 3509 2014 3355.5 2321 2955.5 2321Z" fill="#D9D9D9" fill-rule="evenodd" fill-opacity="0.301961"/><path d="M3259 1435.51 3548.25 857 4300.75 857 4590 1435.51 4300.75 2014.01 3548.25 2014.01Z" fill="#D9D9D9" fill-rule="evenodd" fill-opacity="0.2"/></g></svg>