<svg width="696" height="182" xmlns="http://www.w3.org/2000/svg" xmlns:xlink="http://www.w3.org/1999/xlink" xml:space="preserve" overflow="hidden"><defs><clipPath id="clip0"><rect x="33" y="51" width="696" height="182"/></clipPath></defs><g clip-path="url(#clip0)" transform="translate(-33 -51)"><text fill="#FFFFFF" font-family="Calibri,Calibri_MSFontService,sans-serif" font-weight="400" font-size="293" transform="matrix(1.00106 0 0 1.00369 262.482 229)">mre</text><path d="M204.416 89.9432C200.328 80.0831 189.025 75.5138 179.165 79.6021 170.989 82.9689 166.179 91.6266 167.381 100.044L136.358 113.03C132.99 107.258 126.978 102.93 120.245 101.727L120.245 68.2991C128.422 66.1347 134.674 58.6795 134.674 49.7814 134.674 39.1998 126.017 30.5422 115.435 30.5422L115.435 30.5422C104.854 30.5422 96.1959 39.1998 96.1959 49.7814 96.1959 58.6795 102.448 66.1347 110.625 68.2991L110.625 101.487C103.651 102.689 97.8794 107.018 94.5125 112.79L63.4893 99.8033C64.6917 91.3861 60.1224 82.7285 51.7053 79.3616 41.8452 75.2733 30.5422 79.8426 26.4538 89.7027 22.3655 99.5628 26.9349 110.866 36.795 114.954 44.9716 118.321 54.3507 115.675 59.4009 108.702L91.1457 121.688C90.9051 122.65 90.9051 123.852 90.9051 124.814 90.9051 130.105 92.5886 135.156 95.7149 139.244L70.704 164.495C63.2488 160.166 53.6292 161.128 47.3765 167.381 39.9213 174.836 39.9213 187.101 47.3765 194.557 54.8317 202.011 67.0967 202.011 74.5518 194.557 80.8046 188.304 81.7666 178.684 77.4377 171.229L102.93 145.737C106.537 147.901 110.625 149.103 114.954 149.103 115.195 149.103 115.195 149.103 115.435 149.103 115.675 149.103 115.675 149.103 115.916 149.103 120.245 149.103 124.333 147.901 127.94 145.737L153.432 171.229C149.103 178.684 150.066 188.304 156.318 194.797 163.774 202.252 176.039 202.252 183.494 194.797 190.949 187.342 190.949 175.077 183.494 167.621 177.241 161.368 167.621 160.406 160.166 164.736L135.156 139.484C138.282 135.396 139.965 130.586 139.965 125.055 139.965 124.093 139.965 122.89 139.725 121.929L171.469 108.942C176.519 115.675 185.898 118.561 194.075 115.195 203.695 110.866 208.504 99.8033 204.416 89.9432Z" fill="#FFFFFF" transform="matrix(1 0 0 1.00274 8.16377 21.7073)"/></g></svg>