<svg width="973" height="617" xmlns="http://www.w3.org/2000/svg" xmlns:xlink="http://www.w3.org/1999/xlink" xml:space="preserve" overflow="hidden"><g transform="translate(-1098 -671)"><text fill="#1B28BE" font-family="Junction Bold,Junction Bold_MSFontService,sans-serif" font-weight="700" font-size="293" transform="matrix(1 0 0 1 1327.74 1024)">mre</text><g><g><g><path d="M204.224 89.8584C200.139 80.0076 188.847 75.4426 178.996 79.5271 170.827 82.8908 166.022 91.5402 167.223 99.9494L136.229 112.924C132.865 107.157 126.859 102.833 120.132 101.631L120.132 68.2347C128.3 66.0723 134.547 58.6242 134.547 49.7345 134.547 39.1629 125.898 30.5134 115.326 30.5134L115.326 30.5134C104.755 30.5134 96.1052 39.1629 96.1052 49.7345 96.1052 58.6242 102.352 66.0723 110.521 68.2347L110.521 101.391C103.553 102.592 97.7871 106.917 94.4234 112.683L63.4295 99.7092C64.6308 91.3 60.0658 82.6505 51.6566 79.2868 41.8058 75.2023 30.5134 79.7673 26.4289 89.6181 22.3445 99.4689 26.9095 110.761 36.7603 114.846 44.9292 118.209 54.2995 115.567 59.345 108.599L91.0597 121.573C90.8194 122.534 90.8194 123.735 90.8194 124.697 90.8194 129.982 92.5013 135.028 95.6247 139.112L70.6373 164.34C63.1892 160.015 53.5787 160.976 47.3318 167.223 39.8837 174.671 39.8837 186.925 47.3318 194.373 54.78 201.821 67.0334 201.821 74.4816 194.373 80.7284 188.126 81.6894 178.515 77.3647 171.067L102.833 145.599C106.437 147.762 110.521 148.963 114.846 148.963 115.086 148.963 115.086 148.963 115.326 148.963 115.567 148.963 115.567 148.963 115.807 148.963 120.132 148.963 124.216 147.762 127.82 145.599L153.288 171.067C148.963 178.515 149.924 188.126 156.171 194.613 163.619 202.061 175.873 202.061 183.321 194.613 190.769 187.165 190.769 174.912 183.321 167.463 177.074 161.217 167.463 160.255 160.015 164.58L135.028 139.353C138.151 135.268 139.833 130.463 139.833 124.937 139.833 123.976 139.833 122.774 139.593 121.813L171.308 108.839C176.353 115.567 185.723 118.45 193.892 115.086 203.503 110.761 208.308 99.7092 204.224 89.8584Z" fill="#1B28BE" transform="matrix(1.00541 0 0 1 1073.05 827.563)"/></g></g></g></g></svg>