<svg width="1180" height="259" xmlns="http://www.w3.org/2000/svg" xmlns:xlink="http://www.w3.org/1999/xlink" xml:space="preserve" overflow="hidden"><defs><clipPath id="clip0"><rect x="26" y="121" width="1180" height="259"/></clipPath></defs><g clip-path="url(#clip0)" transform="translate(-26 -121)"><text fill="#1B28BE" font-family="Junction Bold,Junction Bold_MSFontService,sans-serif" font-weight="700" font-size="293" transform="matrix(1.51354 0 0 1.50777 373.721 373)">mre</text><path d="M307.922 135.485C301.763 120.633 284.737 113.75 269.884 119.908 257.567 124.98 250.322 138.021 252.133 150.7L205.401 170.263C200.329 161.568 191.274 155.048 181.131 153.236L181.131 102.882C193.446 99.6215 202.865 88.3915 202.865 74.9878 202.865 59.0482 189.824 46.007 173.884 46.007L173.884 46.007C157.946 46.007 144.904 59.0482 144.904 74.9878 144.904 88.3915 154.323 99.6215 166.639 102.882L166.639 152.874C156.133 154.685 147.44 161.206 142.368 169.899L95.6369 150.338C97.4478 137.659 90.5652 124.617 77.8858 119.546 63.0334 113.387 46.007 120.27 39.8486 135.123 33.6903 149.976 40.5732 167.002 55.4258 173.161 67.7429 178.231 81.871 174.248 89.4781 163.742L137.297 183.303C136.934 184.752 136.934 186.563 136.934 188.014 136.934 195.982 139.47 203.59 144.179 209.748L106.504 247.786C95.2747 241.265 80.7839 242.714 71.3653 252.133 60.1353 263.363 60.1353 281.839 71.3653 293.069 82.5954 304.298 101.071 304.298 112.301 293.069 121.719 283.65 123.168 269.159 116.648 257.929L155.048 219.529C160.482 222.79 166.639 224.601 173.161 224.601 173.523 224.601 173.523 224.601 173.884 224.601 174.248 224.601 174.248 224.601 174.61 224.601 181.131 224.601 187.289 222.79 192.723 219.529L231.122 257.929C224.601 269.159 226.05 283.65 235.469 293.431 246.699 304.661 265.175 304.661 276.405 293.431 287.635 282.201 287.635 263.726 276.405 252.495 266.986 243.077 252.495 241.627 241.265 248.148L203.59 210.111C208.299 203.953 210.835 196.708 210.835 188.376 210.835 186.926 210.835 185.114 210.474 183.665L258.292 164.104C265.899 174.248 280.026 178.595 292.344 173.523 306.835 167.002 314.08 150.338 307.922 135.485Z" fill="#1B28BE" transform="matrix(1.00926 0 0 1 -11.7629 77.0662)"/></g></svg>